<svg xmlns="http://www.w3.org/2000/svg" width="673" height="140" viewBox="0 0 673 140">
  <g fill="#022B69" transform="translate(1 19)">
    <path d="M0.75,85.5 L0.75,1.5 L30.098122,1.5 C52.3315478,1.5 61.3996093,10.1572069 61.3996093,23.8644511 C61.3996093,31.706124 56.809995,38.5597461 46.2808798,42.1041822 C57.9851903,44.723301 63.75,50.9339059 63.75,60.8144137 C63.75,75.0392084 52.6332871,85.5 32.7978951,85.5 L0.75,85.5 Z M16.6310184,37.8696789 L29.3358331,37.8696789 C40.0872826,37.8696789 45.7409251,34.1527259 45.7409251,25.7307692 C45.7409251,16.9637789 40.8654525,13.5918596 30.2092891,13.5918596 L16.6310184,13.5918596 L16.6310184,37.8696789 Z M16.6310184,48.6755041 L16.6310184,73.298357 L32.6232039,73.298357 C44.3433955,73.298357 48.1548399,67.3700523 48.1548399,60.4693801 C48.1548399,53.207991 43.6287497,48.6755041 32.5755609,48.6755041 L16.6310184,48.6755041 Z"/>
    <polygon points="125.25 1.5 125.25 13.937 87.288 13.937 87.288 38.795 119.334 38.795 119.334 51.295 87.288 51.295 87.288 85.5 71.25 85.5 71.25 1.5"/>
    <path d="M132.201619,81.9522241 C131.387292,84.0976134 129.31158,85.512213 127.00091,85.4965131 L114.75,85.4965131 L148.009245,1.5 L164.053985,1.5 L197.25,85.4965131 L185.06232,85.4965131 C182.731108,85.5804708 180.61909,84.1411281 179.861611,81.9522241 L159.311698,25.8395423 C158.379048,23.3459938 157.209283,19.9114836 156.150172,15.9751273 C155.027831,19.9114836 153.984528,23.4087246 152.988647,25.9650038 L132.201619,81.9522241 Z"/>
    <path d="M144.782319 63.8951613L153.056084 40.5266129C153.961027 38.2149194 154.930608 35.0697581 155.964829 31.5 156.98289 35.0697581 158.065589 38.1677419 158.938213 40.4322581L170.25 70.5C170.25 70.5 163.915399 63.9895161 144.75 63.8951613M301.803738 16.0037325L295.360996 22.0850861C290.992824 17.7131724 285.835146 14.2048891 280.159904 11.7452136 275.083251 9.49371087 269.600475 8.2961028 264.045172 8.22525703 257.544102 8.20188443 251.143311 9.82386942 245.441557 12.9394846 239.761998 15.9184331 235.023054 20.4119219 231.752699 25.9193246 228.584232 31.1314088 226.906357 37.1092397 226.900951 43.2048257 226.899177 49.5121417 228.649442 55.6965909 231.95748 61.0717483 235.281033 66.6671359 240.081695 71.244117 245.835368 74.3030137 251.795087 77.5272973 258.478625 79.1873563 265.258109 79.1272399 273.111458 79.3592939 280.792477 76.8033285 286.933448 71.9144717 292.743228 67.286217 296.508382 60.5750624 297.424564 53.2147023L270.960488 53.2147023 270.960488 45.2162295 306.75 45.2162295C306.655485 58.0284525 302.832897 68.19547 295.282234 75.717282 287.731571 83.239094 277.650018 87 265.037575 87 249.694712 87 237.544341 81.7619693 228.586461 71.285908 221.812734 63.5833765 218.132343 53.6548329 218.252869 43.4091089 218.194108 35.7382268 220.207412 28.1931393 224.081267 21.5665211 227.955341 14.8937933 233.595978 9.41367172 240.385028 5.7267164 247.55172 1.83927994 255.60514-.131280155 263.761629.00678693241 270.568627-.0352455988 277.317629 1.25681132 283.625438 3.80959719 290.391867 6.71205472 296.556606 10.8474063 301.803738 16.0037325z"/>
    <polygon points="321.75 3 330.117 3 330.117 77.668 362.25 77.668 362.25 85.5 321.75 85.5"/>
    <path d="M415.777925.0128160842C427.49369-.274193412 438.814688 4.2698871 447.101263 12.5855385 455.411786 20.6800423 459.990806 31.8796961 459.74023 43.4987198 459.96133 55.0921849 455.398826 66.2621067 447.132587 74.3647534 429.977273 91.2117489 402.549601 91.2117489 385.394287 74.3647534 377.148377 66.3820345 372.571701 55.3246928 372.75532 43.8287538 372.701936 36.0742898 374.684342 28.4424304 378.503152 21.7007623 386.082997 8.21713123 400.350666-.0843665988 415.777925.0128160842L415.777925.0128160842zM416.138143 8.05934798C410.024591 8.06269813 404.024813 9.71848619 398.769352 12.8527089 393.426458 15.9273245 389.002533 20.38285 385.958107 25.7554653 382.855451 31.2765463 381.261599 37.5222262 381.337915 43.8601856 381.144671 53.2294766 384.83059 62.2599544 391.518 68.8013237 397.973531 75.4373961 406.866314 79.1148193 416.10682 78.969513 422.348839 79.0069093 428.488741 77.3798415 433.898476 74.2547421 439.242351 71.2464713 443.658288 66.8206796 446.662737 61.461997 449.737734 55.9603426 451.315004 49.7432421 451.235944 43.4358562 451.324422 37.1871122 449.74544 31.0283793 446.662737 25.5983062 443.590546 20.2716698 439.15001 15.8700313 433.804506 12.8527089 428.444396 9.70902922 422.346637 8.05454631 416.138143 8.05934798zM477.75 3L494.004017 3C500.543169 3 505.580506 3.76751471 509.084741 5.31820771 512.519907 6.80376242 515.422548 9.30033003 517.407298 12.4764572 519.470161 15.6722127 520.557473 19.400937 520.536079 23.2059996 520.575518 26.7245289 519.650244 30.1864777 517.860971 33.215018 515.974532 36.3306237 513.268507 38.8666459 510.039019 40.5455667 513.624113 41.6299995 516.97669 43.3721311 519.925966 45.6832163 522.230302 47.6290094 524.073816 50.0633662 525.323113 52.8101386 526.616593 55.6512598 527.273359 58.7414069 527.247314 61.8636795 527.346344 68.2534704 524.703308 74.3788754 519.988542 78.686349 515.076356 83.228783 508.547633 85.5 500.402374 85.5L477.75 85.5 477.75 3zM485.822255 11.0823998L485.822255 37.506835 490.515426 37.506835C494.787639 37.7212143 499.064587 37.1912238 503.155701 35.9404785 505.754105 34.9551376 507.987583 33.1945413 509.554058 30.8968103 511.114242 28.6499808 511.939608 25.9737469 511.916287 23.2373268 512.081956 19.8108302 510.613121 16.5090646 507.958379 14.3404215 505.31456 12.1788494 501.106349 11.113727 495.349392 11.113727L485.822255 11.0823998zM485.822255 45.8241883L485.822255 77.4802544 496.037724 77.4802544C502.065842 77.4802544 506.482638 76.8902601 509.288111 75.7102715 512.036362 74.5752155 514.387774 72.6513924 516.046278 70.1810328 519.821405 64.7322324 519.395244 57.4072751 515.01378 52.434213 512.388456 49.5793563 508.936755 47.6185607 505.142477 46.8266565 500.297793 45.9948305 495.381123 45.6589431 490.468494 45.8241883L485.822255 45.8241883zM577.268117 3L615.75 85.5 606.841867 85.5 593.863234 58.3237137 558.30898 58.3237137 545.455593 85.5 536.25 85.5 575.248523 3 577.268117 3zM576.219181 20.5275299L562.128988 50.4136131 590.309374 50.4136131 576.219181 20.5275299z"/>
    <polygon points="629.25 3 637.588 3 637.588 77.668 669.75 77.668 669.75 85.5 629.25 85.5"/>
  </g>
</svg>
