<svg xmlns="http://www.w3.org/2000/svg" width="807" height="96" viewBox="0 0 807 96">
  <g fill="#022B69" transform="translate(1 23)">
    <path d="M13.5572444 2.13789409C22.5276781 1.24062702 31.6180373.886442653 40.5405008 2.30318013 38.4058254 2.68097679 34.1604597 3.4601824 32.0257843 3.83797906 29.9870494 15.2899403 31.6420225 26.9307999 30.5866773 38.4299858 29.915094 52.1959516 8.85616151 57.5323295.389415284 47.5679425-1.52939406 42.2079524 4.05913815 41.0509501 8.06465266 41.9954418 7.9926973 44.1441603 7.8487866 48.4415973 7.77683125 50.5903158 13.8690509 50.9681125 21.7841395 49.2208029 22.6236185 42.089891 23.6789637 29.6462134 24.3025767 16.8719639 22.3837674 4.52273551 19.5055534 3.55463157 16.5074138 2.9170997 13.5572444 2.13789409zM43.433786 2.32324819C54.9880098 1.91850257 67.3045742-.343311242 78.4061583 3.84699644 87.6257143 7.7039842 87.1730746 22.4652954 78.2632195 26.3699003 72.4980191 28.5840969 66.1372402 27.9412656 60.0861622 28.250777 60.1814547 34.8219413 60.3482167 41.3692971 60.6817407 47.9404614 63.8978649 48.9642298 67.0901659 50.0118067 70.3062901 51.0593836 61.2773193 51.4641292 52.2483485 51.4403207 43.2432008 51.035575 46.2210936 49.9879981 49.2228095 48.9642298 52.2245253 47.9404614 53.0583353 33.7505558 52.8677502 19.5368417 52.3674642 5.34693613 49.3895715 4.34697634 46.3878556 3.37082512 43.433786 2.32324819M60.3243936 2.96607949C60.1814547 10.846715 60.1576316 18.7035419 60.2529242 26.5603688 64.5649129 25.7508775 69.448657 26.4175174 73.308006 24.0366607 77.9058723 19.9653959 78.0964575 12.3228461 74.9041565 7.3468557 71.4974472 2.89465379 65.1604914 3.94223071 60.3243936 2.96607949zM89.1891017 2.36359009C95.002694 1.61029516 100.887765 1.37489049 106.772836 1.35135003 112.943821 14.6987946 119.09098 28.0462391 125.285792 41.3936836 131.504429 28.1168605 137.508631 14.769416 143.631964 1.44551189 149.326426 1.42197143 155.044713 1.51613329 160.739174 1.93986169 157.713247 2.71669709 154.68732 3.39937062 151.685219 4.08204415 150.207995 18.4417287 150.231821 33.0132775 151.637567 47.3729621 154.68732 48.1262571 157.7609 48.9266329 160.810653 49.7740897 151.756698 50.4803037 142.607438 50.5744656 133.577309 49.585766 135.840798 48.9501734 140.343949 47.6789882 142.583612 47.0433956 143.608138 33.8136534 142.964831 20.5368303 143.107788 7.2835476 136.19819 21.9257178 129.836596 36.8032927 122.688736 51.351301 114.468698 37.2270211 108.798063 21.8550964 101.507246 7.26000713 101.864639 19.0537809 100.768634 30.918176 102.007596 42.6884093 102.531773 46.9727742 107.892667 47.7966905 110.775637 50.1507372 103.651604 50.1978181 96.5275707 50.1742777 89.4035375 50.1978181 92.4532909 48.4793641 95.7889586 47.1610979 98.4336666 44.8541322 100.601851 31.5066877 99.4105407 17.8061361 98.9816691 4.34098928 95.71748 3.68185621 92.4294647 3.06980408 89.1891017 2.36359009zM418.006229 2.02634642C426.819549-1.13098405 436.155492 1.88497342 443.305921 7.32783415 444.018589 5.48998507 445.443923 1.83784908 446.156591 0 447.201836 7.23358548 447.320614 14.5849818 447.13057 21.8892538 444.089855 15.880901 442.617009 8.03469918 435.89418 4.90093088 427.746016.0471243354 415.891982 3.51076299 412.613712 12.6057597 409.050375 22.1484376 408.527752 34.141581 414.727959 42.7417722 420.666854 51.0827796 434.421334 51.0592174 440.835341 43.3308264 443.519721 39.3016957 445.111345 34.6599487 447.083058 30.2773855 447.249347 37.0161654 447.273103 43.7785076 447.296859 50.5172875 445.942791 48.6323141 444.588723 46.7709029 443.25841 44.8859295 434.682646 52.0959528 421.830877 53.6274937 412.162356 47.6898274 395.224628 37.5816575 398.954254 7.53989366 418.006229 2.02634642zM640.528562 7.08814975C644.40526-1.25799389 659.066227-.312255229 661.27477 8.71954893 661.721177 15.2924326 654.696131 17.9641443 650.490501 21.34516 654.766616 27.1141658 659.019236 32.8831716 663.412827 38.581247 664.963507 34.3963534 667.876904 30.4242511 667.665448 25.7664882 665.362924 23.6622197 662.754963 21.9835336 660.217488 20.2102736 666.631661 20.4703517 673.06933 20.5176387 679.483503 20.3994213 671.706612 24.7971061 667.853409 32.8831716 664.305643 40.709159 667.007584 43.4281576 669.380593 46.6673125 672.857873 48.4878594 676.828552 49.8591805 680.282337 46.6673125 683.783113 45.4378522 679.389522 56.1010556 666.420205 53.1219788 660.147003 46.1471562 655.400985 49.3390242 650.39652 53.5475612 644.287784 52.5545356 636.886815 51.963449 630.308176 45.1068437 631.154001 37.4700041 631.482933 30.2587468 638.484485 26.617653 643.394969 22.5982637 641.327396 17.8222835 637.568174 12.3369993 640.528562 7.08814975M645.838463 5.38582017C642.008755 10.2090873 647.130696 15.5288673 648.986812 19.9738389 652.111665 16.8292579 657.633023 13.944755 656.481761 8.62497507 656.152829 3.58891673 648.869336 1.50829168 645.838463 5.38582017M644.734192 23.8040805C641.820794 27.1378093 637.662155 29.9750252 636.933805 34.6564316 636.228951 40.9219502 641.16293 46.9510341 647.036715 48.5115029 651.641763 49.6463893 655.47147 46.1471562 659.371663 44.3266093 654.719626 37.3281433 649.879627 30.4478945 644.734192 23.8040805zM714.853453 1.60766241C723.460522-1.18210471 732.424237 1.96229382 739.366956 7.18719665 740.127802 5.39039749 741.67327 1.79679916 742.457892 0 743.147409 7.23448084 743.266291 14.4926038 742.933421 21.7270846 740.080249 16.1239083 738.986533 8.65300649 732.947319 5.3431133 725.457742.449199791 713.902396 2.10414639 709.622638 10.4025215 704.986233 19.6465803 704.629587 31.4439854 709.289768 40.7353284 714.282819 50.3340187 728.857772 51.8234706 736.133361 44.0688637 739.462061 40.0024235 740.817318 34.8011627 743.00475 30.1200281 743.313844 37.0944459 743.33762 44.0688637 742.980974 51.0196394 742.101246 49.4356191 740.318013 46.2912205 739.438285 44.7072002 730.712334 52.2253862 717.326202 53.7384802 707.577865 47.3078306 690.934361 36.621604 695.309225 6.40700754 714.853453 1.60766241z"/>
    <path d="M174.446001 13.7291988C187.720973 8.26604728 206.42768 17.6077998 203.805463 33.6661541 203.173321 52.2077591 176.389251 57.1269605 166.064273 43.8356569 158.5254 34.1628043 162.224599 17.4185998 174.446001 13.7291988M176.272188 15.3373992C167.867047 20.0910505 167.937285 31.9160537 169.997598 40.1935559 172.409101 51.2381089 189.430097 53.2247094 194.67453 43.4809068 198.116189 36.740655 197.999126 28.2503027 195.236433 21.2735508 192.309852 13.9893488 182.804317 12.2628984 176.272188 15.3373992zM208.580249 14.1464526C218.334177 14.3093256 230.071955 11.1216682 238.314378 17.6831236 244.360396 23.8722979 237.487774 31.5273292 230.827707 33.1327917 237.109898 39.810585 242.163991 48.1869111 251.351105 51.351301 247.17085 51.0953577 242.943361 51.351301 238.833958 50.4904008 233.803482 45.41807 229.953868 39.2986984 224.639985 34.4590434 229.032795 31.4109914 235.787331 28.3164042 233.968802 21.8014839 233.709013 15.1934933 226.080638 15.5192394 221.2391 14.7514095 221.357186 26.0827173 221.593359 37.3907575 221.428038 48.7220653 223.459122 49.2572195 227.521291 50.3507954 229.552375 50.9092171 222.419963 51.1651604 215.263933 51.0720901 208.107904 51.0488225 209.737495 50.4205981 212.949442 49.1408816 214.579033 48.4893896 215.948834 37.9957144 216.090537 27.129758 214.531798 16.6360828 213.043911 16.0078584 210.068136 14.774677 208.580249 14.1464526zM262.207665 14.3291938C269.500368 11.0550736 277.71351 13.3163365 284.20378 17.3442109 284.793804 16.0486957 285.950252 13.4576654 286.516676 12.1621502 286.398671 17.4384302 286.327868 22.7147101 286.351469 27.9909901 283.708159 22.9031487 281.654874 16.0251409 275.188205 14.8002902 268.060709 12.3505888 259.658759 17.3913205 258.738321 24.9053085 257.581873 32.5841802 257.086252 42.6891985 264.190148 47.753485 269.240758 51.3809275 279.507185 50.8391666 280.734436 43.5607269 282.221297 38.6377692 278.657549 35.7169714 274.149762 34.9161075 280.522027 34.7276689 286.870691 34.5627852 293.242956 34.4685659 291.685291 35.245875 288.54636 36.8004932 286.965095 37.5778023 286.799888 41.1110255 286.634681 44.6206938 286.493075 48.153917 277.571904 50.3680702 267.116669 54.1839512 258.903528 47.9419236 247.17384 40.0746133 249.746347 20.100125 262.207665 14.3291938zM314.081221 12.1621502C322.287334 24.6057641 323.698881 41.1894084 335.134806 51.351301 329.201523 51.1395949 323.26824 51.0690262 317.334957 50.9984575 319.081447 50.3868621 322.550504 49.1636713 324.296995 48.5520759 322.430881 44.3885227 320.540844 40.2249695 318.555108 36.108462 314.272617 36.108462 309.966202 36.108462 305.683711 36.0849391 304.128616 39.7309886 302.597447 43.377038 301.090201 47.0466104 302.477824 48.0345721 305.276994 50.0575415 306.664617 51.0455033 302.19073 51.116072 297.716843 51.1631178 293.242956 51.3042552 302.40605 44.317954 306.2579 32.0154775 308.243636 21.2890353 309.248466 22.6533635 310.253296 24.0176916 311.282051 25.3820198 309.344164 28.5576113 307.430202 31.7567256 305.588013 34.9793629 309.918353 35.0264087 314.224768 35.0499316 318.555108 35.0734545 316.043032 28.8163632 313.291711 22.6533635 309.750881 16.8902531L312.478277 17.4312797 314.081221 12.1621502zM337.07231 12.3783022C341.433291 12.5464204 345.817719 12.6424879 350.1787 12.7385555 357.611125 22.5614612 365.04355 32.4083837 372.593206 42.1592388 372.780775 33.3690591 372.87456 24.5548626 372.288406 15.7886998 370.295485 15.0201595 366.333088 13.459062 364.340166 12.6905217 369.920347 12.618471 375.500527 12.4983866 381.080707 12.1621502 378.75954 14.2996529 373.812405 15.0922101 374.32822 19.2471311 373.976528 30.3909655 374.351666 41.5588167 373.859297 52.702651 364.293274 41.3186478 355.735434 29.1180706 346.614887 17.397831 346.380426 27.3888549 344.59852 37.5720139 346.614887 47.4429533 348.42024 48.3075612 352.007499 50.0367769 353.812851 50.9013847 348.045102 50.7572834 342.253906 50.7572834 336.486156 50.6852327 338.924555 49.6044729 341.362953 48.54773 343.801351 47.4909871 344.153043 37.2597944 344.434397 27.0286016 345.184673 16.8214258 342.488367 15.3083621 339.792062 13.8433321 337.07231 12.3783022zM455.404959 13.7499128C462.175442 13.678989 468.969272 13.5607828 475.739755 13.5135003 474.082154 14.1281728 470.720259 15.3338767 469.062658 15.9485492 468.829193 20.7477234 468.689114 25.5468976 468.572382 30.3224305 475.202786 30.3460718 481.83319 30.3460718 488.463595 30.3460718 488.323516 25.6414626 488.183437 20.9368534 488.020011 16.2322443 486.105599 15.641213 482.276774 14.4355091 480.362361 13.8208365 487.342963 13.678989 494.346911 13.6553478 501.35086 13.6080653 498.969517 14.5300741 496.588175 15.4520829 494.206832 16.3740918 493.973367 27.0362965 493.973367 37.7221425 494.206832 48.3843472 496.541482 49.3772798 498.876131 50.3465711 501.234127 51.2922212 494.276872 51.4340687 487.319617 51.3158625 480.362361 50.7957549 482.276774 50.3229299 486.058906 49.3299973 487.949972 48.833531 488.206783 43.3724017 488.346862 37.9349137 488.463595 32.4737845 481.83319 32.4501432 475.226132 32.4501432 468.595728 32.4737845 468.689114 37.8876312 468.805847 43.3251192 469.039311 48.7626072 470.720259 49.3536385 474.058808 50.5593424 475.739755 51.1503737 468.969272 51.3867862 462.198789 51.3867862 455.428305 51.2922212 457.225985 50.6302662 460.844692 49.306356 462.642372 48.6207597 463.062609 37.9112725 462.969223 27.2017853 462.782451 16.492298 460.938078 15.8067017 457.249332 14.4355091 455.404959 13.7499128zM509.920862 43.7063586C514.796411 33.2621912 518.890925 22.4651803 524.026818 12.1621502 529.115377 22.7004093 533.304562 33.6385576 538.203778 44.2473853 539.434499 47.3053623 542.250957 49.1871942 544.59406 51.351301 538.795471 51.116072 532.973214 51.0690262 527.174624 50.9749346 528.807696 50.3398163 532.050173 49.0695797 533.683245 48.4109385 531.67149 44.5061372 531.079797 39.2370077 527.079953 36.7200574 522.748762 36.4142597 518.441238 37.1199467 514.157382 37.5433589 513.068668 40.7424733 512.003621 43.9180647 510.938574 47.0936562 512.311301 48.0816179 515.056756 50.0810644 516.429483 51.0690262 511.837947 51.116072 507.270078 51.1395949 502.70221 51.2807323 505.376661 49.0460568 508.619138 47.1171791 509.920862 43.7063586M515.222429 35.8261872C519.577289 35.7320956 523.955815 35.6144811 528.334342 35.4968666 526.133245 30.4629661 523.955815 25.4525885 521.778386 20.4422109 519.577289 25.570203 517.399859 30.6981951 515.222429 35.8261872zM553.811769 13.6006822C558.788508 11.8319954 563.998897 13.1054499 568.578431 15.4401164 569.256015 14.6147292 570.611184 12.9639549 571.288768 12.1621502 571.265403 16.1004261 571.288768 20.0387021 571.358863 23.976978 568.555066 20.6046818 566.732599 15.4401164 562.012874 14.3789043 557.643625 12.4923051 551.101433 16.477746 553.414565 21.6187289 557.924004 27.679429 566.545679 28.4104862 571.919622 33.5278866 576.709441 38.9990244 573.999105 48.9272529 566.826058 50.6723572 561.498845 52.6297039 556.148266 49.988465 551.568732 47.394391 550.844418 48.3612731 549.372425 50.2714548 548.648111 51.2147545 548.74157 46.3567614 548.83503 41.5223509 548.88176 36.6643578 551.685557 41.4751859 553.367835 48.644263 559.793202 49.6347276 565.681175 51.4269969 572.620571 45.036142 569.139191 39.1169368 564.162452 34.1881963 556.638931 33.0798193 551.545367 28.3161562 547.573322 24.0477254 548.648111 16.4069985 553.811769 13.6006822zM579.631775 13.6201097C589.422338 13.4542728 599.212902 13.5253458 609.003465 13.5490367 609.461644 17.0789938 609.919823 20.6326419 610.378002 24.162599 608.472942 21.4381354 606.760799 18.595217 604.542248 16.1076633 600.515095 14.6151312 596.077992 15.1837149 591.906151 14.7335861 591.882037 19.8982213 591.882037 25.0628565 591.906151 30.2038007 594.052358 30.2038007 598.344773 30.2038007 600.466865 30.2274917 601.093847 28.5691226 602.347811 25.2997663 602.974793 23.6650882 603.095367 28.8771054 603.095367 34.1128136 603.288284 39.3248307 602.299582 33.1888651 597.500759 31.435732 591.882037 31.1040582 591.785578 37.3110968 591.978495 43.5418264 592.629592 49.7251741 597.331956 49.4171912 602.371926 50.2937578 606.833143 48.3984788 609.678676 45.5081784 611.414934 41.7886934 613.512912 38.3535002 613.271765 42.6889509 613.006503 47.0007105 612.789471 51.3361612 601.31088 51.3361612 589.856403 51.4072341 578.377811 51.2413972 580.210527 50.5780496 583.827731 49.2513543 585.636332 48.5880067 586.118626 37.9507535 586.022167 27.2898093 585.82925 16.6525561 584.28591 15.8944445 581.19923 14.3782213 579.631775 13.6201097zM764.956749 13.6913642C777.408293 8.72438628 795.498273 16.1748532 794.535041 31.4305713 795.921156 49.2407351 772.451169 56.8094634 759.976131 47.0647257 748.464326 38.8573859 750.978128 17.783208 764.956749 13.6913642M766.765747 15.2760667C758.120146 20.4795675 758.261107 32.8497078 760.986351 41.435484 764.322425 51.5823104 780.462446 52.6703151 785.34909 43.3040138 788.66167 36.4921583 788.638177 28.0482958 785.795466 21.0945266 782.741313 13.9042347 773.296934 12.130314 766.765747 15.2760667zM798.933419 43.8355337C803.565532 41.1513303 808.241759 48.3238738 803.278782 50.7000539 799.087823 53.4502623 794.896865 46.7837571 798.933419 43.8355337z"/>
  </g>
</svg>
