<svg xmlns="http://www.w3.org/2000/svg" width="673" height="140" viewBox="0 0 673 140">
  <path fill="#022B69" d="M4.25063741e-14 0L131.584034 0C131.621914 44.3682825 131.609287 88.7365649 131.59666 133.104847L4.25063741e-14 133.104847 4.25063741e-14 0zM39.1683785 33.2508585C46.1888874 47.1698226 53.9796319 60.708487 60.7476044 74.741541 61.391572 83.8180239 60.8233653 92.9578901 60.9748871 102.059726 64.1189639 102.04705 67.2504139 102.04705 70.3818639 102.04705 70.5207588 93.1226865 69.9778058 84.1476168 70.5838929 75.2359304 77.4402532 61.0887866 85.3825195 47.4613856 92.2641334 33.3015651 89.0442957 33.2508585 85.8370848 33.2255052 82.6425007 33.2001519 76.8089125 44.0640428 71.8844548 55.3969698 65.8362107 66.1467708 60.4066805 55.2321733 55.330701 44.1527794 49.9264244 33.2381819 46.3404091 33.2508585 42.7543938 33.2381819 39.1683785 33.2508585L39.1683785 33.2508585zM363.671537 26.619849C366.063205 26.1366315 368.454873 25.5771164 370.90915 25.4245214 373.100469 34.65652 372.223941 44.3335874 372.386725 53.7690461 376.95719 50.2593606 382.31653 46.9149865 388.327004 47.7796916 397.154889 48.6062479 403.215451 57.049839 404.642939 65.4044162 406.183123 75.3866737 405.344161 86.8185838 398.39455 94.6517947 391.933289 102.472289 379.336336 101.633017 372.587074 94.613646 372.023592 96.1904612 371.472632 97.7799926 370.90915 99.369524 368.404785 99.3440915 365.912943 99.318659 363.4211 99.318659 365.023893 88.4589802 364.610673 77.4848552 364.635717 66.5615951 364.735891 53.2349635 364.297628 39.9210481 363.671537 26.619849M372.299072 61.2207695C372.436812 70.2365918 372.42429 79.2524141 372.311594 88.2682365 376.40623 91.5871781 381.690439 94.4864835 387.074822 93.0876958 390.067538 92.540897 392.809817 90.5953105 394.049477 87.7214376 397.054715 81.2107169 396.95454 73.784426 396.503754 66.7650551 395.99036 61.4623782 392.747208 55.638335 386.999691 55.129685 381.264697 53.8199111 375.980488 57.0244065 372.299072 61.2207695zM420.789579 28.9143188C425.374638 26.7553258 431.02343 32.0217711 428.67588 36.7515881 427.36761 40.7201417 421.559869 41.5937227 418.943329 38.5736284 415.923303 35.9154463 417.231573 30.374447 420.789579 28.9143188zM177.871897 43.5373909C181.921711 36.3798536 189.269959 31.1813561 197.420529 30.0930007 204.743307 29.2991415 212.384467 31.104531 218.370041 35.5219735 216.943692 37.3401672 215.517342 39.1327526 214.065522 40.9125338 208.95868 38.0572014 203.036782 35.6628195 197.114883 37.1224962 191.511366 38.2364599 186.812053 42.3337979 184.494235 47.5194913 180.635449 54.9587205 181.60333 63.5759345 181.463242 71.6553728 181.195801 80.8231665 186.188025 91.0280989 195.446563 93.7553895 202.170784 96.1497714 209.289797 93.9730606 215.275372 90.6695819 216.829074 92.4877756 218.331836 94.3315777 219.847332 96.1753798 212.002409 101.01536 202.438224 102.897575 193.408921 100.925731 182.57121 97.9423568 174.751757 87.8910746 172.917878 76.9563038 171.084 65.7270369 171.593411 53.3838063 177.871897 43.5373909L177.871897 43.5373909zM549.284187 36.6583445C551.724709 35.4904388 554.425389 35.0634626 557.03935 34.3978819 556.717251 39.3332253 556.17216 44.2434525 556.073052 49.191354 560.148849 49.191354 564.224646 49.2415865 568.312831 49.3546097 567.482806 51.2634448 566.640392 53.1722799 565.822755 55.081115 562.453099 55.0685569 559.071055 55.0685569 555.713787 55.0685569 555.404076 67.1871482 556.395152 79.2806233 556.17216 91.3992146 557.051739 92.2280509 557.943707 93.0568872 558.835674 93.8857235 561.57352 93.835491 564.311365 93.7978166 567.061599 93.7475841 567.21026 95.4806055 567.334145 97.2136268 567.458029 98.9466482 562.20533 100.127112 556.073052 101.458273 551.414998 97.9043237 548.317888 95.8699074 548.367442 91.8513071 548.293111 88.5359619 548.181615 77.3969044 548.293111 66.2578469 548.255946 55.1062312 545.964085 55.0685569 543.684611 55.0308825 541.417527 54.9680919 541.39275 53.0718149 541.39275 51.1755379 541.39275 49.2792609 543.53595 49.2415865 545.67915 49.2164703 547.834739 49.191354 548.491326 45.0471725 547.933847 40.6643866 549.284187 36.6583445L549.284187 36.6583445zM242.327356 48.522161C248.269956 47.5554376 255.083454 47.1662373 260.244808 50.7820338 267.019884 54.9627985 270.221716 63.0104568 270.541899 70.5935857 271.118229 78.5910245 270.29856 87.6932901 264.330345 93.7698371 259.437946 99.0805382 251.535824 101.302747 244.478987 99.683171 236.576865 98.2142537 230.288467 91.610403 228.521056 84.039829 226.996984 77.0091135 226.766452 69.5766429 228.79001 62.6212565 230.736724 56.2057286 235.770004 50.6188208 242.327356 48.522161M244.645482 54.6363725C240.53433 55.6282055 237.550222 59.2063375 236.845819 63.2364441 235.180866 71.1962184 235.385784 79.79629 238.433928 87.4170834 241.264347 93.7949468 250.306321 95.1132059 255.979967 91.7736161 260.078312 88.9864396 261.615192 83.8263966 261.461504 79.130883 261.346238 72.3512645 262.358017 64.9313487 258.579855 58.8548018 255.711013 54.3225012 249.550689 53.431107 244.645482 54.6363725L244.645482 54.6363725zM284.156416 50.1443267C286.495641 49.3779343 288.834866 48.6243151 291.174091 47.8579226 292.017746 50.2465124 292.75914 52.6478753 293.398272 55.1003311 297.667678 51.4982867 302.704042 47.9345619 308.571279 48.2922117 313.582079 48.0367475 316.982264 52.2519059 319.730534 55.8156307 324.319505 52.2391327 329.35587 48.2027992 335.504325 48.2922117 341.818955 47.7940566 348.056889 53.120484 347.992975 59.5837268 348.120802 73.09778 348.542629 86.6246063 348.453151 100.151433 345.704881 100.164206 342.956611 100.176979 340.208341 100.202526 340.144428 88.3489893 340.323385 76.4954531 340.144428 64.6419168 339.991036 61.3336562 339.697035 56.5947963 335.696065 55.7262183 329.534827 54.4616707 324.856377 59.289943 320.535841 62.802575 320.612537 75.2692252 320.548623 87.7358754 320.574189 100.202526 317.68531 100.176979 314.79643 100.176979 311.907551 100.189752 311.830855 87.1227614 312.060943 74.0557705 311.818073 61.0015528 312.009812 57.9232099 308.941976 55.4579809 306.014749 55.6112594 300.901689 55.9689092 296.76011 59.3027163 292.938097 62.368286 293.014793 74.9754414 292.925314 87.5825969 292.989228 100.176979 290.547741 100.176979 288.119038 100.164206 285.690334 100.164206 285.626421 83.4951706 286.112161 66.7111764 284.156416 50.1443267L284.156416 50.1443267zM441.190224 49.9789589C443.659085 49.2719468 446.140543 48.5777895 448.622 47.8579226 449.377774 50.2617637 450.045374 52.6784595 450.750763 55.0951553 455.449157 51.392983 460.878132 47.5365535 467.138458 48.0635989 472.6808 48.6163538 478.462469 52.6784595 479.117473 58.6816347 479.873247 72.5005071 478.82776 86.3707985 480.074787 100.163961 477.177654 100.176816 474.267925 100.189671 471.370792 100.202526 471.04329 86.2679603 472.202143 72.2434118 470.589825 58.3602656 469.418376 57.3190297 468.246927 56.2777937 467.10067 55.223703 460.764766 54.5809647 455.285406 58.0517513 450.536627 61.8696164 450.599608 74.6472528 450.536627 87.4120344 450.587012 100.189671 448.105555 100.189671 445.624097 100.176816 443.155236 100.151106 442.37427 86.6278937 442.953697 73.053262 442.752157 59.5043397 442.663983 56.2777937 441.90821 53.1155215 441.190224 49.9789589L441.190224 49.9789589zM494.013419 54.3669304C501.944876 49.3314285 511.573178 46.5125725 520.957236 48.4985847 525.199345 49.8055088 528.837274 53.5084606 529.904229 57.8392485 530.469843 68.4612105 529.672841 79.1472374 530.225601 89.7820124 530.238455 92.5624295 532.269526 94.5740677 533.91495 96.5728929 532.475204 98.3282714 531.086877 100.147715 529.415743 101.698086 526.330574 100.519291 524.60802 97.4954276 522.564095 95.1122129 516.188077 101.352135 505.685645 103.530342 497.908446 98.597344 489.552777 92.7930632 490.375489 78.9037908 498.744013 73.4582735 505.685645 68.2433898 514.722622 69.1402986 522.744064 67.8461874 522.448401 63.2719528 522.744064 56.6220152 517.332161 54.9307016 510.28769 53.3418918 503.448897 56.7245191 497.535654 60.1968372 496.340151 58.2620769 495.157503 56.3273166 494.013419 54.3669304M507.048262 75.5211636C500.235178 78.0837599 498.821142 88.0266339 503.256074 93.2158916 508.038087 97.0213472 515.133978 95.2531557 519.298957 91.3195703 524.08097 86.8350266 521.432866 79.5188139 522.088465 73.765785 517.049354 73.5735903 511.804565 73.6248422 507.048262 75.5211636L507.048262 75.5211636zM590.840464 48.491831C597.141864 47.3231609 604.343463 47.4739571 609.628923 51.5077536 616.457583 56.3709289 619.222483 64.9537421 619.093883 72.9333708 619.543983 80.5108764 617.807883 88.6161685 612.432403 94.3464216 603.790483 102.992066 586.995324 102.049591 580.218105 91.6195248 575.176985 84.6954691 575.627085 75.861329 576.000025 67.7937359 576.835925 59.4622496 582.159965 50.7663393 590.840464 48.491831M592.242204 54.7373041C586.159424 56.5971231 584.294725 63.5714442 584.603365 69.1257684 584.783405 75.3209762 583.857485 81.8931743 586.648104 87.686259 589.914544 94.1956254 599.636704 95.1129686 605.295103 91.2299682 610.207623 86.9825438 609.796103 79.9202582 610.104743 74.0769081 609.821823 68.2209916 610.014723 61.2718032 605.153643 57.0243788 601.810044 53.6314658 596.576024 54.1466859 592.242204 54.7373041L592.242204 54.7373041zM632.621915 50.2360604C635.093571 49.4433478 637.565227 48.6506352 640.036883 47.8579226 640.782106 50.4278457 641.465227 53.0361259 642.048985 55.6571918 646.023507 50.8369877 651.637519 47.2442097 658.046436 48.1519934 657.17701 51.1310585 656.183379 54.0845523 655.053124 56.9741175 650.109812 56.3987616 644.781469 58.8280422 642.719685 63.6098891 641.427966 75.7051491 642.396755 87.9410516 642.111087 100.10024 639.415864 100.125811 636.745482 100.164168 634.062679 100.202526 633.640386 83.555561 635.143252 66.7423825 632.621915 50.2360604zM418.94402 49.47524C421.307746 48.7564323 423.753384 48.3585209 426.175618 47.8579226 426.280932 65.301845 426.210722 82.7586032 426.222424 100.202526 423.72998 100.176854 421.249238 100.151182 418.768496 100.138346 418.932319 83.2463656 418.546166 66.341549 418.94402 49.47524z" transform="translate(6 3)"/>
</svg>
