<?xml version="1.0" encoding="utf-8"?>
<!-- Generator: Adobe Illustrator 22.1.0, SVG Export Plug-In . SVG Version: 6.00 Build 0)  -->
<svg version="1.1" id="Layer_1" xmlns="http://www.w3.org/2000/svg" xmlns:xlink="http://www.w3.org/1999/xlink" x="0px" y="0px"
	 viewBox="0 0 675.6 685.4" style="enable-background:new 0 0 675.6 685.4;" xml:space="preserve">
<style type="text/css">
	.st0{fill:none;}
	.st1{fill:#CDF2FC;}
	.st2{fill:#CDF2CA;}
	.st3{opacity:0.8;}
	.st4{fill:url(#SVGID_1_);}
	.st5{fill:url(#SVGID_2_);}
</style>
<pattern  y="685.4" width="36.9" height="21.3" patternUnits="userSpaceOnUse" id="SVGID_1_2" viewBox="0 -21.3 36.9 21.3" style="overflow:visible;">
	<g>
		<rect y="-21.3" class="st0" width="36.9" height="21.3"/>
		<g>
			<rect y="-21.3" class="st0" width="36.9" height="21.3"/>
			<g>
				<rect y="-21.3" class="st0" width="36.9" height="21.3"/>
				<g>
					<rect y="-21.3" class="st0" width="36.9" height="21.3"/>
					<polygon class="st1" points="0,0 0.5,0 0,-0.3 					"/>
					<polygon class="st1" points="4.6,0 0,-2.7 0,-2.1 3.6,0 					"/>
					<polygon class="st1" points="8.7,0 0,-5 0,-4.5 7.7,0 					"/>
					<polygon class="st1" points="12.8,0 0,-7.4 0,-6.8 11.8,0 					"/>
					<polygon class="st1" points="16.9,0 0,-9.8 0,-9.2 15.9,0 					"/>
					<polygon class="st1" points="21,0 0,-12.1 0,-11.5 20,0 					"/>
					<polygon class="st1" points="25.1,0 0,-14.5 0,-13.9 24.1,0 					"/>
					<polygon class="st1" points="29.2,0 0,-16.9 0,-16.3 28.2,0 					"/>
					<polygon class="st1" points="33.3,0 0,-19.2 0,-18.6 32.3,0 					"/>
					<polygon class="st1" points="36.9,0 36.9,-0.3 0.5,-21.3 0,-21.3 0,-21 36.4,0 					"/>
					<polygon class="st1" points="36.9,-2.7 4.6,-21.3 3.6,-21.3 36.9,-2.1 					"/>
					<polygon class="st1" points="36.9,-5 8.7,-21.3 7.7,-21.3 36.9,-4.5 					"/>
					<polygon class="st1" points="36.9,-7.4 12.8,-21.3 11.8,-21.3 36.9,-6.8 					"/>
					<polygon class="st1" points="36.9,-9.8 16.9,-21.3 15.9,-21.3 36.9,-9.2 					"/>
					<polygon class="st1" points="36.9,-12.1 21,-21.3 20,-21.3 36.9,-11.5 					"/>
					<polygon class="st1" points="36.9,-14.5 25.1,-21.3 24.1,-21.3 36.9,-13.9 					"/>
					<polygon class="st1" points="36.9,-16.9 29.2,-21.3 28.2,-21.3 36.9,-16.3 					"/>
					<polygon class="st1" points="36.9,-19.2 33.3,-21.3 32.3,-21.3 36.9,-18.6 					"/>
					<polygon class="st1" points="36.9,-21.3 36.4,-21.3 36.9,-21 					"/>
				</g>
			</g>
		</g>
	</g>
</pattern>
<pattern  y="685.4" width="22.2" height="24.7" patternUnits="userSpaceOnUse" id="SVGID_2_2" viewBox="5.6 -24.7 22.2 24.7" style="overflow:visible;">
	<g>
		<rect x="5.6" y="-24.7" class="st0" width="22.2" height="24.7"/>
		<g>
			<rect x="5.6" y="-24.7" class="st0" width="22.2" height="24.7"/>
			<g>
				<rect x="5.6" y="-24.7" class="st0" width="22.2" height="24.7"/>
				<g>
					<rect x="5.6" y="-24.7" class="st0" width="22.2" height="24.7"/>
					<g>
						<polygon class="st2" points="22.2,-0.3 22.2,-0.6 22.2,-0.6 						"/>
						<polygon class="st2" points="22.2,-24 22.2,-24.4 22.2,-24.4 						"/>
						<path class="st2" d="M33.4-22.2v-0.5l0,0c-0.3-0.4-0.7-0.8-1.1-1c0.4-0.2,0.7-0.3,1.1-0.3v-0.3c-0.5,0-1,0.2-1.4,0.4
							c-0.4-0.3-0.9-0.4-1.4-0.4s-1,0.2-1.4,0.4c-0.4-0.3-0.9-0.4-1.4-0.4s-1,0.2-1.4,0.4c-0.4-0.3-0.9-0.5-1.4-0.5c0,0,0,0-0.1,0
							c-0.2,0-0.8,0-1.4,0.4c-0.4-0.2-0.9-0.4-1.3-0.4v0.3c0.3,0,0.7,0.1,1,0.3c-0.3,0.2-0.7,0.6-1,1.1v0.5c0.5,0.6,0.9,1.3,1.2,1.9
							c-0.2,0.4-0.3,0.7-0.3,0.7L22.2-18v0.7l1.2,2.3l-1.2,2.3v0.7l1.2,2.3l-1.2,2.3v0.7L23.1-5c0,0,0.1,0.3,0.3,0.7
							c-0.3,0.5-0.7,1.2-1.2,1.9v0.5c0.2,0.3,0.5,0.6,0.8,0.8c0.1,0.1,0.2,0.2,0.3,0.2c-0.4,0.2-0.7,0.3-1.1,0.3v0.3
							c0.5,0,1-0.2,1.4-0.4C24.4-0.2,25-0.3,25-0.3l0,0c0.5,0,1-0.2,1.4-0.4c0.4,0.3,0.9,0.4,1.4,0.4s1-0.2,1.4-0.4
							c0.4,0.3,0.9,0.4,1.4,0.4s1-0.2,1.4-0.4c0.4,0.3,0.9,0.4,1.4,0.4v-0.3c-0.4,0-0.7-0.1-1.1-0.3c0.4-0.3,0.8-0.7,1.1-1l0,0v-0.5
							l0,0c-0.5-0.6-0.9-1.3-1.2-1.9C32.4-4.7,32.5-5,32.5-5l0.9-1.6l0,0v-0.7l0,0l-1.3-2.4l1.2-2.3l0,0v-0.7l0,0L32.1-15l1.2-2.3
							l0,0V-18l0,0l-0.9-1.7c0,0-0.1-0.3-0.3-0.7C32.4-20.8,32.8-21.5,33.4-22.2L33.4-22.2z M32-15.3l-1.2-2.3l1-1.8
							c0,0,0.1-0.2,0.2-0.5c0.2,0.3,0.2,0.5,0.2,0.5l1,1.9L32-15.3z M26.4-10l-1.2-2.3l1.2-2.3l1.2,2.3L26.4-10z M27.8-12L29-9.7
							l-1.2,2.3l-1.2-2.3L27.8-12z M26.6-15l1.2-2.3L29-15l-1.2,2.3L26.6-15z M29.2-14.7l1.2,2.3l-1.2,2.3L28-12.3L29.2-14.7z
							 M29.4-15l1.2-2.3l1.2,2.3l-1.2,2.3L29.4-15z M30.6-12l1.2,2.3l-1.2,2.3l-1.2-2.3L30.6-12z M31.4-5.1c0,0,0.1,0.3,0.3,0.7
							c-0.3,0.5-0.7,1.2-1.2,1.9c-0.5-0.6-0.9-1.3-1.2-1.8C29.5-4.7,29.6-5,29.6-5l0.9-1.6L31.4-5.1z M29.2-4.7
							C29-5,29-5.2,28.9-5.2l-1-1.9l1.2-2.3l1.2,2.3l-1,1.8C29.4-5.2,29.3-5,29.2-4.7z M29-4.3c-0.3,0.5-0.7,1.2-1.2,1.9
							c-0.5-0.7-0.9-1.4-1.2-1.9C26.8-4.7,26.9-5,26.9-5l0.9-1.6l0.9,1.7C28.7-5,28.8-4.7,29-4.3z M26.4-4.7
							c-0.2-0.3-0.2-0.5-0.2-0.5l-1-1.9l1.2-2.3l1.2,2.3l-1,1.8C26.6-5.2,26.6-5,26.4-4.7z M26.2-4.4c-0.3,0.5-0.7,1.2-1.2,1.9
							c-0.5-0.6-0.9-1.3-1.2-1.9c0.2-0.4,0.3-0.7,0.3-0.7L25-6.7L25.9-5C25.9-5,26-4.7,26.2-4.4z M25-7.4l-1.2-2.3L25-12l1.2,2.3
							L25-7.4z M25-12.7L23.8-15l1.2-2.3l1.2,2.3L25-12.7z M25-18l-0.9-1.7c0,0-0.1-0.3-0.3-0.7c0.3-0.5,0.7-1.2,1.2-1.9
							c0.5,0.6,0.9,1.3,1.2,1.9c-0.2,0.5-0.3,0.7-0.3,0.8L25-18z M26.4-20c0.2,0.3,0.2,0.5,0.2,0.5l1,1.9l-1.2,2.3l-1.2-2.3l1-1.8
							C26.2-19.5,26.3-19.7,26.4-20z M26.6-20.3c0.3-0.5,0.7-1.2,1.2-1.9c0.5,0.6,0.9,1.3,1.2,1.9c-0.2,0.4-0.3,0.7-0.3,0.7L27.8-18
							l-0.9-1.7C26.9-19.7,26.8-19.9,26.6-20.3z M29.2-20c0.2,0.3,0.2,0.5,0.2,0.5l1,1.9l-1.2,2.3L28-17.6l1-1.8
							C28.9-19.5,29-19.7,29.2-20z M29.4-20.3c0.3-0.5,0.7-1.2,1.2-1.9c0.5,0.6,0.9,1.3,1.2,1.9c-0.2,0.4-0.3,0.7-0.3,0.7L30.6-18
							l-0.9-1.7C29.7-19.7,29.6-19.9,29.4-20.3z M32-10l-1.2-2.3l1.2-2.4l1.2,2.3L32-10z M32-4.7c-0.2-0.3-0.2-0.5-0.2-0.5l-1-1.9
							L32-9.4l1.2,2.3l-1,1.8C32.2-5.2,32.1-5,32-4.7z M30.8-2.3c0.5-0.6,0.9-1.3,1.2-1.8c0.3,0.5,0.7,1.2,1.2,1.8
							c-0.4,0.4-0.8,0.8-1.2,1.1C31.5-1.4,31.1-1.8,30.8-2.3z M29.5-1c0.4-0.3,0.8-0.7,1.1-1c0.3,0.4,0.7,0.8,1.1,1
							c-0.4,0.2-0.7,0.3-1.1,0.3C30.2-0.6,29.8-0.8,29.5-1z M28-2.2c0.5-0.6,0.9-1.3,1.2-1.8c0.3,0.5,0.7,1.2,1.2,1.8
							c-0.4,0.4-0.8,0.8-1.2,1.1C28.8-1.4,28.4-1.8,28-2.2z M27.3-1.4c0.2-0.2,0.4-0.4,0.5-0.6c0.3,0.4,0.7,0.7,1.1,1
							c-0.4,0.2-0.7,0.3-1.1,0.3S27.1-0.8,26.7-1C26.9-1.1,27.1-1.2,27.3-1.4 M26.4-1.1c-0.4-0.3-0.8-0.7-1.2-1.1
							c0.5-0.6,0.9-1.3,1.2-1.8c0.3,0.5,0.7,1.2,1.2,1.8C27.3-1.8,26.9-1.4,26.4-1.1z M23.9-1c0.4-0.3,0.8-0.6,1.1-1
							c0.3,0.4,0.7,0.8,1.1,1.1c-0.4,0.2-0.7,0.3-1.1,0.3C25-0.6,24.6-0.6,23.9-1z M23.6-4c0.3,0.5,0.7,1.2,1.2,1.8
							c-0.4,0.4-0.8,0.8-1.2,1.1c-0.1-0.1-0.3-0.2-0.4-0.3c-0.2-0.2-0.5-0.5-0.7-0.8C22.9-2.9,23.3-3.5,23.6-4z M23.6-9.4l1.2,2.3
							l-1,1.8c0,0-0.1,0.2-0.2,0.5c-0.2-0.3-0.2-0.5-0.2-0.5l-1-1.9L23.6-9.4z M23.6-14.7l1.2,2.3l-1.2,2.3l-1.2-2.3L23.6-14.7z
							 M23.6-20c0.2,0.3,0.2,0.5,0.2,0.5l1,1.9l-1.2,2.3l-1.2-2.3l1-1.8C23.4-19.5,23.5-19.7,23.6-20z M24.8-22.4
							c-0.5,0.6-0.9,1.3-1.2,1.8c-0.3-0.5-0.7-1.2-1.2-1.8c0.3-0.6,0.7-0.9,1.1-1.2C24-23.3,24.4-22.9,24.8-22.4z M26.1-23.7
							c-0.4,0.3-0.8,0.7-1.1,1c-0.4-0.4-0.7-0.8-1.2-1.1C24.5-24,25-24,25-24C25.4-24,25.8-23.9,26.1-23.7z M27.6-22.4
							c-0.5,0.6-0.9,1.3-1.2,1.8c-0.3-0.5-0.7-1.2-1.2-1.8c0.4-0.4,0.8-0.8,1.2-1.1C26.8-23.3,27.2-22.9,27.6-22.4z M28.9-23.7
							c-0.4,0.3-0.8,0.7-1.1,1c-0.3-0.4-0.7-0.8-1.1-1c0.4-0.2,0.7-0.3,1.1-0.3C28.2-24,28.5-23.9,28.9-23.7z M30.4-22.4
							c-0.5,0.6-0.9,1.3-1.2,1.8c-0.3-0.5-0.7-1.2-1.2-1.8c0.4-0.4,0.8-0.8,1.2-1.1C29.6-23.3,30-22.9,30.4-22.4z M31.7-23.7
							c-0.4,0.3-0.8,0.7-1.1,1c-0.3-0.4-0.7-0.8-1.1-1c0.4-0.2,0.7-0.3,1.1-0.3S31.3-23.9,31.7-23.7z M33.1-22.4
							c-0.4,0.6-0.8,1.2-1.1,1.7c-0.3-0.5-0.7-1.2-1.2-1.8c0.4-0.4,0.8-0.8,1.2-1.1C32.4-23.3,32.8-22.9,33.1-22.4z"/>
					</g>
					<g>
						<polygon class="st2" points="11.1,-0.3 11.1,-0.6 11.1,-0.6 						"/>
						<polygon class="st2" points="11.1,-24 11.1,-24.4 11.1,-24.4 						"/>
						<path class="st2" d="M22.2-22.2v-0.5l0,0c-0.3-0.4-0.7-0.8-1.1-1c0.4-0.2,0.7-0.3,1.1-0.3v-0.3c-0.5,0-1,0.2-1.4,0.4
							c-0.4-0.3-0.9-0.4-1.4-0.4s-1,0.2-1.4,0.4c-0.4-0.3-0.9-0.4-1.4-0.4s-1,0.2-1.4,0.4c-0.4-0.3-0.9-0.4-1.4-0.4c0,0,0,0-0.1,0
							c-0.2,0-0.8,0-1.4,0.4c-0.4-0.2-0.9-0.4-1.3-0.4v0.3c0.3,0,0.7,0.1,1,0.3c-0.3,0.2-0.7,0.6-1,1.1v0.5c0.5,0.6,0.9,1.3,1.2,1.9
							c-0.1,0.3-0.2,0.5-0.2,0.6L11.1-18v0.7l1.2,2.3l-1.2,2.3v0.7l1.2,2.3l-1.2,2.3v0.7L12-5c0,0,0.1,0.3,0.3,0.7
							c-0.3,0.5-0.7,1.2-1.2,1.9v0.5c0.2,0.3,0.5,0.6,0.8,0.8C12-1,12.1-0.9,12.2-0.9c-0.4,0.2-0.7,0.3-1.1,0.3v0.3
							c0.5,0,1-0.2,1.4-0.4c0.8,0.5,1.4,0.4,1.4,0.4l0,0c0.5,0,1-0.2,1.4-0.4c0.4,0.3,0.9,0.4,1.4,0.4s1-0.2,1.4-0.4
							c0.4,0.3,0.9,0.4,1.4,0.4s1-0.2,1.4-0.4c0.4,0.3,0.9,0.4,1.4,0.4v-0.3c-0.4,0-0.7-0.1-1.1-0.3c0.4-0.3,0.8-0.7,1.1-1l0,0v-0.5
							l0,0c-0.5-0.6-0.9-1.3-1.2-1.9C21.3-4.7,21.4-5,21.4-5l0.9-1.6l0,0v-0.7l0,0L21-9.7l1.2-2.3l0,0v-0.7l0,0L21-15l1.2-2.3l0,0
							V-18l0,0l-0.9-1.7c0,0-0.1-0.3-0.3-0.7C21.3-20.8,21.7-21.5,22.2-22.2L22.2-22.2z M20.8-15.3l-1.2-2.3l1-1.8
							c0,0,0.1-0.2,0.2-0.5c0.2,0.2,0.3,0.4,0.3,0.4l1,1.9L20.8-15.3z M15.3-10l-1.2-2.3l1.2-2.3l1.2,2.3L15.3-10z M16.7-12l1.2,2.3
							l-1.2,2.3l-1.2-2.3L16.7-12z M15.5-15l1.2-2.3l1.2,2.3l-1.2,2.3L15.5-15z M18.1-14.7l1.2,2.3l-1.2,2.3l-1.2-2.3L18.1-14.7z
							 M18.2-15l1.2-2.3l1.2,2.3l-1.1,2.3L18.2-15z M19.5-12l1.2,2.3l-1.2,2.3l-1.3-2.3L19.5-12z M20.3-5.1c0,0,0.1,0.3,0.3,0.7
							c-0.3,0.5-0.7,1.2-1.2,1.9c-0.5-0.6-0.9-1.3-1.2-1.8C18.4-4.7,18.5-5,18.5-5l0.9-1.6L20.3-5.1z M18.1-4.7
							c-0.2-0.3-0.2-0.5-0.3-0.5l-1-1.9L18-9.4l1.2,2.3l-1,1.8C18.3-5.2,18.2-5,18.1-4.7z M17.9-4.3c-0.3,0.5-0.7,1.2-1.2,1.9
							c-0.5-0.7-0.9-1.4-1.2-1.9C15.7-4.7,15.8-5,15.8-5l0.9-1.6l0.9,1.7C17.6-5,17.7-4.7,17.9-4.3z M15.3-4.7
							c-0.2-0.3-0.2-0.5-0.2-0.5l-1-1.9l1.2-2.3l1.2,2.3l-1,1.8C15.5-5.2,15.4-5,15.3-4.7z M15.1-4.4c-0.3,0.5-0.7,1.2-1.2,1.9
							c-0.5-0.6-0.9-1.3-1.2-1.9C12.9-4.8,13-5.1,13-5.1l0.9-1.6L14.8-5C14.8-5,14.9-4.7,15.1-4.4z M13.9-7.4l-1.2-2.3l1.2-2.3
							l1.2,2.3L13.9-7.4z M13.9-12.7L12.7-15l1.2-2.3l1.2,2.3L13.9-12.7z M13.9-18L13-19.6c0,0-0.1-0.3-0.3-0.7
							c0.3-0.5,0.7-1.2,1.2-1.9c0.5,0.6,0.9,1.3,1.2,1.9c-0.2,0.4-0.3,0.7-0.3,0.7L13.9-18z M15.3-20c0.2,0.3,0.2,0.5,0.2,0.5l1,1.9
							l-1.2,2.3l-1.2-2.3l1-1.8C15-19.5,15.1-19.7,15.3-20z M15.5-20.3c0.3-0.5,0.7-1.2,1.2-1.9c0.5,0.6,0.9,1.3,1.2,1.9
							c-0.2,0.4-0.3,0.7-0.3,0.7L16.7-18l-0.9-1.7C15.8-19.7,15.7-19.9,15.5-20.3z M18.1-20c0.2,0.3,0.2,0.5,0.2,0.5l1,1.9l-1.2,2.3
							l-1.2-2.3l1-1.8C17.8-19.5,17.9-19.7,18.1-20z M18.2-20.3c0.3-0.5,0.7-1.2,1.2-1.9c0.5,0.6,0.9,1.3,1.2,1.9
							c-0.2,0.4-0.3,0.7-0.3,0.7L19.4-18l-0.9-1.7C18.6-19.7,18.4-19.9,18.2-20.3z M20.8-10l-1.2-2.3l1.2-2.3l1.2,2.3L20.8-10z
							 M20.8-4.7c-0.2-0.3-0.2-0.5-0.2-0.5l-1-1.9l1.2-2.3L22-7.1l-1,1.8C21.1-5.2,21-5,20.8-4.7z M19.7-2.3
							c0.5-0.6,0.9-1.3,1.2-1.8c0.3,0.5,0.7,1.2,1.2,1.8c-0.4,0.4-0.8,0.8-1.2,1.1C20.4-1.4,20-1.8,19.7-2.3z M18.4-1
							c0.4-0.3,0.8-0.7,1.1-1c0.3,0.4,0.7,0.8,1.1,1c-0.4,0.2-0.7,0.3-1.1,0.3C19.1-0.6,18.7-0.8,18.4-1z M16.9-2.2
							c0.5-0.6,0.9-1.3,1.2-1.8c0.3,0.5,0.7,1.2,1.2,1.8c-0.4,0.4-0.8,0.8-1.2,1.1C17.7-1.4,17.3-1.8,16.9-2.2z M16.2-1.4
							c0.2-0.2,0.4-0.4,0.5-0.6c0.3,0.4,0.7,0.7,1.1,1c-0.4,0.2-0.7,0.3-1.1,0.3S16-0.8,15.6-1C15.8-1.1,16-1.2,16.2-1.4 M15.3-1.1
							c-0.4-0.3-0.8-0.7-1.2-1.1C14.6-2.8,15-3.5,15.3-4c0.3,0.5,0.7,1.2,1.2,1.8C16.1-1.8,15.7-1.4,15.3-1.1z M12.8-1
							c0.4-0.3,0.8-0.6,1.1-1c0.3,0.4,0.7,0.8,1.1,1.1c-0.4,0.2-0.7,0.3-1.1,0.3C13.9-0.6,13.5-0.6,12.8-1z M12.5-4
							c0.3,0.5,0.7,1.2,1.2,1.8c-0.4,0.4-0.8,0.8-1.2,1.1c-0.1-0.1-0.3-0.2-0.4-0.3c-0.2-0.2-0.5-0.5-0.7-0.8
							C11.8-2.9,12.2-3.5,12.5-4z M12.5-9.4l1.2,2.3l-1,1.8c0,0-0.1,0.2-0.2,0.5c-0.2-0.3-0.2-0.5-0.2-0.5l-1-1.9L12.5-9.4z
							 M12.5-14.7l1.2,2.3l-1.2,2.3l-1.2-2.3L12.5-14.7z M12.5-20c0.2,0.3,0.2,0.5,0.2,0.5l1,1.9l-1.2,2.3l-1.2-2.3l1-1.8
							C12.3-19.5,12.4-19.7,12.5-20z M13.7-22.4c-0.5,0.6-0.9,1.3-1.2,1.8c-0.3-0.5-0.7-1.2-1.2-1.8c0.3-0.6,0.7-0.9,1.1-1.2
							C12.9-23.3,13.3-22.9,13.7-22.4z M15-23.7c-0.4,0.3-0.8,0.7-1.1,1c-0.4-0.4-0.7-0.8-1.2-1.1c0.6-0.3,1.1-0.3,1.2-0.3
							C14.3-24,14.6-23.9,15-23.7z M16.5-22.4c-0.5,0.6-0.9,1.2-1.2,1.7c-0.3-0.5-0.7-1.2-1.2-1.8c0.4-0.4,0.8-0.8,1.2-1.1
							C15.7-23.3,16.1-22.9,16.5-22.4z M17.8-23.7c-0.4,0.3-0.8,0.7-1.1,1c-0.3-0.4-0.7-0.8-1.1-1c0.4-0.2,0.7-0.3,1.1-0.3
							C17.1-24,17.4-23.9,17.8-23.7z M19.3-22.4c-0.5,0.6-0.9,1.3-1.2,1.8c-0.3-0.5-0.7-1.2-1.2-1.8c0.4-0.4,0.8-0.8,1.2-1.1
							C18.5-23.3,18.9-22.9,19.3-22.4z M20.6-23.7c-0.4,0.3-0.8,0.7-1.1,1c-0.3-0.4-0.7-0.8-1.1-1c0.4-0.2,0.7-0.3,1.1-0.3
							C19.8-24,20.2-23.9,20.6-23.7z M22-22.4c-0.5,0.6-0.9,1.3-1.2,1.8c-0.3-0.5-0.7-1.2-1.2-1.8c0.4-0.4,0.8-0.8,1.2-1.1
							C21.3-23.3,21.7-22.9,22-22.4z"/>
					</g>
					<g>
						<path class="st2" d="M11.1-22.2v-0.5l0,0c-0.3-0.4-0.7-0.8-1.1-1c0.4-0.2,0.7-0.3,1.1-0.3v-0.3c-0.5,0-1,0.2-1.4,0.4
							c-0.4-0.3-0.9-0.5-1.4-0.5s-1,0.2-1.4,0.4c-0.4-0.2-0.9-0.4-1.3-0.4c-0.5,0-1,0.2-1.4,0.4c-0.5-0.2-0.9-0.4-1.4-0.4
							c0,0,0,0-0.1,0c-0.2,0-0.8,0-1.4,0.4c-0.4-0.2-0.8-0.4-1.3-0.4v0.3c0.3,0,0.7,0.1,1,0.3c-0.4,0.3-0.7,0.6-1,1.1v0.5
							c0.5,0.6,0.9,1.3,1.2,1.9c-0.2,0.4-0.3,0.6-0.3,0.7L0-18v0.7L1.2-15L0-12.7v0.7l1.2,2.3L0-7.4v0.7L0.9-5c0,0,0.1,0.3,0.3,0.7
							C0.9-3.8,0.5-3.1,0-2.4v0.5c0.2,0.3,0.5,0.6,0.8,0.8C0.9-1,1-0.9,1.1-0.9C0.7-0.7,0.4-0.6,0-0.6v0.3c0.5,0,1-0.2,1.4-0.4
							c0.8,0.5,1.4,0.4,1.4,0.4l0,0c0.5,0,1-0.2,1.4-0.4c0.4,0.3,0.9,0.4,1.4,0.4s1-0.2,1.4-0.4c0.4,0.3,0.9,0.4,1.4,0.4
							s1-0.2,1.4-0.4c0.4,0.3,0.9,0.4,1.4,0.4v-0.3c-0.4,0-0.7-0.1-1.1-0.3c0.4-0.3,0.8-0.7,1.1-1l0,0v-0.5l0,0
							C10.7-3,10.3-3.7,10-4.3C10.2-4.7,10.3-5,10.3-5l0.9-1.6l0,0v-0.7l0,0L9.9-9.7l1.2-2.3l0,0v-0.7l0,0L9.9-15l1.2-2.3l0,0V-18
							l0,0l-0.9-1.7c0,0-0.1-0.3-0.3-0.7C10.2-20.8,10.6-21.5,11.1-22.2L11.1-22.2z M9.7-15.3l-1.2-2.3l1-1.8c0,0,0.1-0.2,0.2-0.5
							c0.2,0.2,0.3,0.4,0.3,0.4l1,1.9L9.7-15.3z M4.2-10L3-12.3l1.2-2.4l1.2,2.3L4.2-10z M5.6-12l1.2,2.3L5.6-7.4L4.3-9.7L5.6-12z
							 M4.3-15l1.2-2.3L6.7-15l-1.1,2.3L4.3-15z M6.9-14.7l1.2,2.3l-1.2,2.3l-1.2-2.3L6.9-14.7z M7.1-15l1.2-2.3L9.5-15l-1.2,2.3
							L7.1-15z M8.3-12l1.3,2.3L8.4-7.4L7.1-9.7L8.3-12z M9.2-5.1c0,0,0.1,0.3,0.3,0.7C9.2-3.9,8.8-3.2,8.3-2.5
							C7.8-3.1,7.4-3.8,7.1-4.3C7.3-4.7,7.4-5,7.4-5l0.9-1.7L9.2-5.1z M7-4.7C6.8-5,6.8-5.2,6.7-5.2l-1-1.9l1.2-2.3l1.2,2.3l-1,1.8
							C7.2-5.2,7.1-5,7-4.7z M6.8-4.3C6.5-3.8,6.1-3.1,5.6-2.4C5.1-3.1,4.7-3.8,4.4-4.3C4.6-4.7,4.7-5,4.7-5l0.9-1.7L6.5-5
							C6.4-5,6.6-4.7,6.8-4.3z M4.2-4.7C4-5,4-5.2,4-5.2L3-7.1l1.2-2.3l1.2,2.3l-1,1.8C4.4-5.2,4.3-5,4.2-4.7z M4-4.4
							C3.7-3.9,3.3-3.2,2.8-2.5C2.3-3.1,1.9-3.8,1.6-4.4c0.2-0.4,0.3-0.7,0.3-0.7l0.9-1.6L3.7-5C3.7-5,3.8-4.7,4-4.4z M2.8-7.4
							L1.6-9.7L2.8-12L4-9.7L2.8-7.4z M2.8-12.7L1.6-15l1.2-2.3L4-15L2.8-12.7z M2.8-18l-0.9-1.6c0,0-0.1-0.3-0.3-0.7
							c0.3-0.5,0.7-1.2,1.2-1.9c0.5,0.7,0.9,1.4,1.2,1.9c-0.2,0.4-0.3,0.6-0.4,0.7L2.8-18z M4.2-20c0.1,0.3,0.2,0.5,0.2,0.5l1,1.9
							l-1.2,2.3L3-17.6l1-1.8C3.9-19.5,4-19.7,4.2-20z M4.3-20.3c0.3-0.5,0.7-1.2,1.3-1.9c0.5,0.6,0.9,1.3,1.2,1.9
							c-0.2,0.4-0.4,0.6-0.4,0.7L5.6-18l-0.9-1.6C4.7-19.7,4.5-19.9,4.3-20.3z M6.9-20c0.2,0.3,0.3,0.5,0.3,0.5l1,1.9l-1.3,2.3
							l-1.2-2.3l1-1.8C6.7-19.5,6.8-19.7,6.9-20z M7.1-20.3c0.3-0.5,0.7-1.2,1.2-1.9c0.5,0.6,0.9,1.3,1.2,1.9
							c-0.2,0.4-0.3,0.6-0.3,0.7L8.3-18l-0.8-1.6C7.5-19.7,7.3-19.9,7.1-20.3z M9.7-10l-1.2-2.3l1.2-2.4l1.2,2.3L9.7-10z M9.7-4.7
							C9.5-5,9.5-5.2,9.5-5.2l-1-1.9l1.2-2.3l1.2,2.3l-1,1.8C10-5.2,9.9-5,9.7-4.7z M8.5-2.3C9-2.9,9.4-3.6,9.7-4.1
							c0.3,0.5,0.7,1.2,1.2,1.8c-0.4,0.4-0.8,0.8-1.2,1.1C9.3-1.4,8.9-1.8,8.5-2.3z M7.2-1C7.6-1.3,8-1.7,8.3-2C8.6-1.6,9-1.2,9.4-1
							C9-0.8,8.7-0.7,8.3-0.7C8-0.6,7.6-0.8,7.2-1z M5.8-2.2C6.3-2.8,6.7-3.5,7-4c0.3,0.5,0.7,1.2,1.2,1.8C7.8-1.8,7.4-1.4,7-1.1
							C6.5-1.4,6.1-1.8,5.8-2.2z M5.1-1.4C5.3-1.6,5.5-1.8,5.6-2c0.3,0.4,0.7,0.7,1.1,1C6.3-0.8,6-0.7,5.6-0.7S4.9-0.8,4.5-1
							C4.7-1.1,4.9-1.2,5.1-1.4 M4.2-1.1C3.8-1.4,3.4-1.8,3-2.2C3.5-2.8,3.9-3.5,4.2-4c0.3,0.5,0.7,1.2,1.2,1.8
							C5-1.8,4.6-1.4,4.2-1.1z M1.7-1c0.4-0.3,0.8-0.6,1.1-1c0.3,0.4,0.7,0.8,1.1,1.1C3.5-0.7,3.2-0.6,2.8-0.6
							C2.8-0.6,2.4-0.6,1.7-1z M1.4-4c0.3,0.5,0.7,1.2,1.2,1.8C2.2-1.8,1.8-1.4,1.4-1.1C1.3-1.2,1.1-1.3,1-1.4
							C0.8-1.6,0.5-1.9,0.3-2.2C0.7-2.9,1.1-3.5,1.4-4z M1.4-9.4l1.2,2.3l-1,1.8c0,0-0.1,0.2-0.2,0.5C1.2-5.1,1.2-5.3,1.2-5.3
							l-1-1.9L1.4-9.4z M1.4-14.7l1.2,2.3l-1.2,2.3l-1.2-2.3L1.4-14.7z M1.4-20c0.1,0.3,0.2,0.5,0.2,0.5l1,1.9l-1.2,2.3l-1.2-2.3
							l1-1.8C1.1-19.5,1.2-19.7,1.4-20z M2.6-22.4c-0.5,0.6-0.9,1.2-1.2,1.7c-0.3-0.5-0.7-1.1-1.2-1.8c0.3-0.6,0.7-0.9,1.1-1.2
							C1.8-23.3,2.2-22.9,2.6-22.4z M3.9-23.7c-0.4,0.3-0.8,0.6-1.1,1c-0.4-0.4-0.8-0.8-1.2-1.1c0.6-0.3,1.1-0.3,1.2-0.3
							C3.2-24,3.5-23.9,3.9-23.7z M5.4-22.4c-0.5,0.6-0.9,1.2-1.2,1.7c-0.3-0.5-0.7-1.1-1.2-1.7c0.4-0.4,0.8-0.8,1.2-1.1
							C4.6-23.3,5-22.9,5.4-22.4z M6.7-23.7c-0.4,0.3-0.8,0.6-1.1,1c-0.4-0.4-0.7-0.7-1.1-1C4.9-23.9,5.2-24,5.6-24
							C5.9-24,6.3-23.9,6.7-23.7z M8.1-22.4c-0.5,0.6-0.9,1.2-1.2,1.7c-0.2-0.5-0.6-1.1-1.1-1.7c0.4-0.4,0.8-0.8,1.2-1.1
							C7.4-23.3,7.8-22.9,8.1-22.4z M9.4-23.7c-0.4,0.3-0.7,0.6-1.1,1c-0.3-0.4-0.7-0.7-1.1-1C7.6-23.9,8-24,8.3-24
							C8.7-24,9.1-23.9,9.4-23.7z M10.9-22.4c-0.5,0.6-0.9,1.2-1.2,1.7c-0.3-0.5-0.7-1.1-1.2-1.7c0.4-0.4,0.8-0.8,1.2-1.1
							C10.2-23.3,10.6-22.9,10.9-22.4z"/>
					</g>
				</g>
			</g>
		</g>
	</g>
</pattern>
<title>Asset 17</title>
<g id="Layer_2_2_" class="st3">
	<g id="Layer_1-2_1_">
		
			<pattern  id="SVGID_1_" xlink:href="#SVGID_1_2" patternTransform="matrix(1.8786 6.884794e-02 -5.901252e-02 -1.9769 49888.9414 -91699.5078)">
		</pattern>
		<polygon class="st4" points="675.6,589.6 256.3,476 127.3,0 546.7,113.6 		"/>
		<pattern  id="SVGID_2_" xlink:href="#SVGID_2_2" patternTransform="matrix(2.1326 0 0 -2.1326 51211.8633 -72872.5234)">
		</pattern>
		<polygon class="st5" points="548.3,685.4 129,571.8 0,95.8 419.4,209.4 		"/>
	</g>
</g>
</svg>
