<svg xmlns="http://www.w3.org/2000/svg" xmlns:xlink="http://www.w3.org/1999/xlink" viewBox="0 0 603 871"><defs><style>.a{fill:none;}.b{fill:#cdf2ca;}.c{fill:#bce5f7;}.d{fill:url(#a);}.e{fill:url(#b);}</style><pattern id="a" width="36.87604" height="21.29041" patternTransform="translate(227.4339 1007.23474) scale(3.13166 3.81729)" patternUnits="userSpaceOnUse" viewBox="0 0 36.876 21.29"><rect class="a" width="36.87604" height="21.29041"/><polygon class="c" points="0 0 0.5 0 0 0.289 0 0"/><polygon class="c" points="4.597 0 0 2.654 0 2.077 3.598 0 4.597 0"/><polygon class="c" points="8.695 0 0 5.02 0 4.443 7.695 0 8.695 0"/><polygon class="c" points="12.792 0 0 7.385 0 6.809 11.793 0 12.792 0"/><polygon class="c" points="16.889 0 0 9.751 0 9.174 15.89 0 16.889 0"/><polygon class="c" points="20.986 0 0 12.117 0 11.54 19.987 0 20.986 0"/><polygon class="c" points="25.083 0 0 14.482 0 13.905 24.084 0 25.083 0"/><polygon class="c" points="29.181 0 0 16.848 0 16.271 28.182 0 29.181 0"/><polygon class="c" points="33.278 0 0 19.213 0 18.636 32.279 0 33.278 0"/><polygon class="c" points="36.876 0 36.876 0.289 0.5 21.291 0 21.291 0 21.002 36.376 0 36.876 0"/><polygon class="c" points="36.876 2.654 4.597 21.291 3.597 21.291 36.876 2.077 36.876 2.654"/><polygon class="c" points="36.876 5.02 8.695 21.291 7.695 21.291 36.876 4.443 36.876 5.02"/><polygon class="c" points="36.876 7.385 12.792 21.291 11.793 21.291 36.876 6.809 36.876 7.385"/><polygon class="c" points="36.876 9.751 16.889 21.291 15.89 21.291 36.876 9.174 36.876 9.751"/><polygon class="c" points="36.876 12.117 20.986 21.291 19.987 21.291 36.876 11.54 36.876 12.117"/><polygon class="c" points="36.876 14.482 25.083 21.291 24.084 21.291 36.876 13.905 36.876 14.482"/><polygon class="c" points="36.876 16.848 29.181 21.291 28.182 21.291 36.876 16.271 36.876 16.848"/><polygon class="c" points="36.876 19.213 33.278 21.291 32.279 21.291 36.876 18.637 36.876 19.213"/><polygon class="c" points="36.876 21.291 36.376 21.291 36.876 21.002 36.876 21.291"/></pattern><pattern id="b" width="22.2362" height="24.71765" patternTransform="translate(-263.12736 -1568.83959) scale(2.70691)" patternUnits="userSpaceOnUse" viewBox="0 0 22.236 24.718"><rect class="a" width="22.2362" height="24.71765"/><polygon class="b" points="16.677 0.35 16.677 0.658 16.678 0.659 16.678 0.35 16.677 0.35"/><polygon class="b" points="16.677 24.062 16.677 24.37 16.678 24.37 16.678 24.062 16.677 24.062"/><path class="b" d="M27.79529,22.20481v.49047l-.00036-.00042a6.54546,6.54546,0,0,1-1.10205,1.04467,2.29018,2.29018,0,0,0,1.102.32227v.30859a2.6784,2.6784,0,0,1-1.38959-.433,2.44625,2.44625,0,0,1-2.7793,0,2.44659,2.44659,0,0,1-2.7796-.00006,2.67915,2.67915,0,0,1-1.38989.4331c-.00586.001-.02344.001-.05225.001A3.22735,3.22735,0,0,1,17.982,23.984a2.627,2.627,0,0,1-1.30432.38635v-.30859a2.22215,2.22215,0,0,0,.99536-.26526,3.59879,3.59879,0,0,1-.99536-1.06055v-.53729a14.10544,14.10544,0,0,0,1.21142-1.854c-.20458-.38452-.33-.65637-.3496-.69983l-.86182-1.64533v-.6676l1.2149-2.3194-1.2149-2.31915V12.026l1.215-2.31884-1.215-2.31958V6.721l.86621-1.65338c.01862-.04157.14252-.31049.34528-.69189a14.13318,14.13318,0,0,0-1.21149-1.854V2.01438a4.12912,4.12912,0,0,1,.75391-.80121c.11816-.09058.22888-.16449.33886-.23712A2.28505,2.28505,0,0,0,16.67768.65854V.35A2.685,2.685,0,0,1,18.0763.78946,2.736,2.736,0,0,1,19.47016.34989h.00049a2.75471,2.75471,0,0,1,1.4013.41656,2.4443,2.4443,0,0,1,2.75391.01648,2.44625,2.44625,0,0,1,2.7793,0,2.67919,2.67919,0,0,1,1.38971-.433V.65848a2.29022,2.29022,0,0,0-1.102.32227,6.54674,6.54674,0,0,1,1.102,1.04467l.00048-.00055v.49079L27.79481,2.515A13.98787,13.98787,0,0,0,26.583,4.37564c.20459.38452.3299.65638.34955.69983L27.795,6.72171l.0003-.00061v.66644l-.0003-.00061L26.57947,9.70719l1.2154,2.31976.00042-.00079v.667l-.00042-.00079-1.21546,2.32025L27.79474,17.333l.00055-.001v.66736l-.00055-.001-.86657,1.6543c-.01862.04157-.14252.31049-.34528.6919a14.00633,14.00633,0,0,0,1.212,1.86077Zm-1.39013-6.85944L25.1897,17.66568l.966,1.84436c.00488.01081.09491.20618.24945.50336.15271-.29407.24115-.48639.24518-.49555l.97015-1.85217Zm-5.55872-5.30585L19.6308,12.35965l1.21552,2.32044L22.062,12.35965ZM22.23627,12.027,23.4516,9.70719,22.23615,7.38712,21.0207,9.70688Zm-1.2157,2.98584,1.21534,2.32007,1.21557-2.32038-1.21521-2.32006Zm2.60523-.333,1.21545-2.32013-1.21533-2.31982-1.21533,2.31982Zm.17425.3327,1.2154,2.32056,1.21545-2.32037-1.21533-2.32025ZM25.01557,12.027,26.231,9.707,25.01569,7.38693,23.80018,9.70719Zm.8667-6.95929c.01861-.04157.14252-.31049.34527-.69189a14.00455,14.00455,0,0,0-1.212-1.86078A13.94933,13.94933,0,0,0,23.812,4.36069c.20178.39429.32342.67334.34222.71771l.86121,1.64374ZM23.63178,4.696c-.15607.29992-.24695.49713-.251.50641l-.97039,1.85211,1.21545,2.32,1.21558-2.32019-.966-1.84411C23.87037,5.19876,23.7829,4.99869,23.63178,4.696Zm-.1745-.33734a12.976,12.976,0,0,0-1.19751-1.87433,13.90585,13.90585,0,0,0-1.23559,1.89172c.2044.38428.32965.65595.3493.6994L22.23615,6.722,23.103,5.06766C23.12183,5.02542,23.24885,4.74954,23.45728,4.35868Zm-2.61084.34869c-.15259.29376-.2409.4859-.24493.49506l-.9704,1.85211,1.21533,2.3197,1.21546-2.3197-.96625-1.8443C21.09077,5.19943,21.0008,5.00431,20.84644,4.70737Zm-.17773-.33118a14.00268,14.00268,0,0,0-1.21253-1.86157A13.96463,13.96463,0,0,0,18.24451,4.3754c.20465.38464.33.65655.34967.70007L19.45685,6.722l.86683-1.65436C20.34223,5.02609,20.46607,4.75736,20.66871,4.37619ZM19.45685,7.38712,18.24128,9.70719,19.45649,12.027l1.21564-2.32007Zm-.00036,5.3053-1.21533,2.32006,1.21545,2.32038,1.21545-2.32007Zm.00012,5.30566-.86682,1.65454c-.01862.04157-.14252.31049-.34528.6919a13.99746,13.99746,0,0,0,1.2121,1.86077,13.98272,13.98272,0,0,0,1.212-1.86108c-.20441-.38428-.32972-.65594-.34937-.6994Zm1.38971,2.01483c.15259-.29376.24091-.4859.24493-.49506l.9704-1.85241-1.21533-2.32-1.21545,2.32.96624,1.8446C20.602,19.52085,20.692,19.716,20.84632,20.01291Zm.17773.33118A14.01248,14.01248,0,0,0,22.236,22.20481a13.93939,13.93939,0,0,0,1.21222-1.86c-.20459-.38458-.33-.65649-.34961-.7l-.86267-1.64673-.86682,1.65454C21.35053,19.69419,21.22669,19.96292,21.02405,20.34409Zm2.60181-.33063c.15271-.29407.24115-.48645.24518-.49561l.97015-1.85217-1.21545-2.32049-1.21558,2.32025.96625,1.8446C23.38129,19.52085,23.47132,19.71622,23.62586,20.01346Zm.17773.33106a14.00633,14.00633,0,0,0,1.212,1.86077,13.983,13.983,0,0,0,1.21185-1.86059c-.20459-.38458-.33-.65643-.34961-.69989l-.86242-1.64649-.86658,1.6543C24.13025,19.69419,24.00635,19.96311,23.80359,20.34452Zm2.60169-10.30481-1.21539,2.31994L26.40516,14.68l1.21539-2.32031Zm0-5.33277c-.15271.294-.24115.48633-.24518.49549l-.9704,1.85229,1.21546,2.31982,1.21557-2.32019-.966-1.84411C26.64985,5.19943,26.55982,5.00412,26.40528,4.70694ZM25.21943,2.26871a13.51931,13.51931,0,0,1,1.18579,1.78308,13.506,13.506,0,0,1,1.18561-1.78314A6.08019,6.08019,0,0,0,26.40522,1.156,6.08007,6.08007,0,0,0,25.21943,2.26871ZM23.91352.98075a6.54674,6.54674,0,0,1,1.102,1.04467A6.54509,6.54509,0,0,1,26.11756.98075a2.04534,2.04534,0,0,0-2.204,0ZM22.46729,2.23624a12.60119,12.60119,0,0,1,1.17017,1.79492,13.47087,13.47087,0,0,1,1.17407-1.76251A6.08019,6.08019,0,0,0,23.62592,1.156,6.02162,6.02162,0,0,0,22.46729,2.23624Zm-.72882-.797a7.16068,7.16068,0,0,1,.52484.55473A6.487,6.487,0,0,1,23.33826.98075,2.0386,2.0386,0,0,0,21.16431.96427a5.37768,5.37768,0,0,1,.57416.475m-.87073-.29909A6.03738,6.03738,0,0,0,19.6601,2.26834a13.51475,13.51475,0,0,1,1.18628,1.78388,13.42922,13.42922,0,0,1,1.20923-1.814A5.75207,5.75207,0,0,0,20.86774,1.14017ZM18.35853.98355a6.55266,6.55266,0,0,1,1.0979,1.04193,6.50815,6.50815,0,0,1,1.11871-1.056,2.388,2.388,0,0,0-1.11865-.311A2.346,2.346,0,0,0,18.35853.98355Zm-.29169,3.06824a13.4977,13.4977,0,0,1,1.18567-1.78308,6.07462,6.07462,0,0,0-1.189-1.11511,5.30012,5.30012,0,0,0-.44439.30566,3.91472,3.91472,0,0,0-.74341.80243A13.49754,13.49754,0,0,1,18.06684,4.05179ZM18.067,9.37454l1.21558-2.32-.96625-1.8443c-.00488-.01081-.095-.20618-.24951-.50348-.15271.29413-.24109.48645-.24512.49567l-.97015,1.85192Zm-.00018,5.30524,1.21533-2.32013L18.067,10.03983l-1.21545,2.31982Zm-.00006,5.33362c.15271-.29407.24115-.48639.24518-.49555l.97039-1.85241L18.0669,15.34519l-1.21558,2.32049.966,1.84436C17.82221,19.52085,17.91224,19.71622,18.06678,20.0134Zm1.18585,2.43817a13.51726,13.51726,0,0,1-1.18579-1.78308,13.45558,13.45558,0,0,1-1.19849,1.7998,3.2648,3.2648,0,0,0,1.11084,1.15918A5.91484,5.91484,0,0,0,19.25263,22.45157Zm1.3045,1.2868a6.54561,6.54561,0,0,1-1.10052-1.04357,6.4058,6.4058,0,0,1-1.17169,1.09259,2.967,2.967,0,0,0,1.16424.27441A2.30374,2.30374,0,0,0,20.55713,23.73837ZM22.03187,22.451a13.52067,13.52067,0,0,1-1.18549-1.7829,13.49757,13.49757,0,0,1-1.18579,1.78351,6.08459,6.08459,0,0,0,1.18426,1.11157A6.07976,6.07976,0,0,0,22.03187,22.451Zm1.30645,1.28857a6.54246,6.54246,0,0,1-1.102-1.04473A6.54454,6.54454,0,0,1,21.134,23.73953a2.04575,2.04575,0,0,0,2.20428,0Zm1.47339-1.2879a13.51961,13.51961,0,0,1-1.18579-1.78314,13.49671,13.49671,0,0,1-1.18567,1.78308,6.083,6.083,0,0,0,1.18567,1.11273A6.07965,6.07965,0,0,0,24.81171,22.45163Zm1.30591,1.2879a6.54674,6.54674,0,0,1-1.102-1.04467,6.54509,6.54509,0,0,1-1.10205,1.04467,2.04534,2.04534,0,0,0,2.204,0Zm1.47339-1.2879a13.51861,13.51861,0,0,1-1.18579-1.78314,13.507,13.507,0,0,1-1.18561,1.78314,6.08237,6.08237,0,0,0,1.18561,1.11267A6.07993,6.07993,0,0,0,27.591,22.45163Z"/><polygon class="b" points="5.559 0.35 5.559 0.658 5.56 0.659 5.56 0.35 5.559 0.35"/><polygon class="b" points="5.559 24.062 5.559 24.37 5.56 24.37 5.56 24.062 5.559 24.062"/><path class="b" d="M16.67719,22.20481v.49047l-.00036-.00042a6.54546,6.54546,0,0,1-1.102,1.04467,2.29018,2.29018,0,0,0,1.102.32227v.30859a2.6784,2.6784,0,0,1-1.38959-.433,2.67919,2.67919,0,0,1-1.38971.433,2.6784,2.6784,0,0,1-1.38959-.433,2.67919,2.67919,0,0,1-1.38971.433,2.67932,2.67932,0,0,1-1.38989-.4331,2.67915,2.67915,0,0,1-1.38989.4331c-.00586.001-.02344.001-.05225.001A3.22735,3.22735,0,0,1,6.8639,23.984a2.627,2.627,0,0,1-1.30432.38635v-.30859a2.22215,2.22215,0,0,0,.99536-.26526,3.59879,3.59879,0,0,1-.99536-1.06055v-.53729a14.10544,14.10544,0,0,0,1.21142-1.854c-.20458-.38452-.33-.65637-.3496-.69983l-.86182-1.64533v-.6676l1.2149-2.3194-1.2149-2.31915V12.026l1.215-2.31884-1.215-2.31958V6.721l.86621-1.65338c.01862-.04157.14252-.31049.34528-.69189a14.13318,14.13318,0,0,0-1.21149-1.854V2.01438a4.12912,4.12912,0,0,1,.75391-.80121c.11816-.09058.22888-.16449.33886-.23712A2.28505,2.28505,0,0,0,5.55958.65854V.35A2.685,2.685,0,0,1,6.9582.78946,2.736,2.736,0,0,1,8.35206.34989h.00049a2.75471,2.75471,0,0,1,1.4013.41656A2.66255,2.66255,0,0,1,11.11817.34989a2.6784,2.6784,0,0,1,1.38959.433,2.67919,2.67919,0,0,1,1.38971-.433,2.6784,2.6784,0,0,1,1.38959.433,2.67919,2.67919,0,0,1,1.38971-.433V.65848a2.29022,2.29022,0,0,0-1.10205.32227,6.54674,6.54674,0,0,1,1.102,1.04467l.00048-.00055v.49079L16.67671,2.515a13.98787,13.98787,0,0,0-1.2118,1.86065c.20459.38452.3299.65638.34955.69983l.86243,1.64624.0003-.00061v.66644l-.0003-.00061L15.46137,9.70719l1.2154,2.31976.00042-.00079v.667l-.00042-.00079-1.21546,2.32025L16.67664,17.333l.00055-.001v.66736l-.00055-.001-.86657,1.6543c-.01862.04157-.14252.31049-.34528.6919a14.00633,14.00633,0,0,0,1.212,1.86077Zm-1.39013-6.85944L14.0716,17.66568l.966,1.84436c.00488.01081.09491.20618.24945.50336.15271-.29407.24115-.48639.24518-.49555l.97015-1.85217ZM9.72834,10.03952,8.5127,12.35965l1.21552,2.32044,1.21564-2.32044ZM11.11817,12.027,12.3335,9.70719,11.11805,7.38712,9.9026,9.70688Zm-1.2157,2.98584,1.21534,2.32007,1.21557-2.32038-1.21521-2.32006Zm2.60523-.333,1.21545-2.32013-1.21533-2.31982-1.21533,2.31982Zm.17425.3327,1.2154,2.32056,1.21545-2.32037-1.21533-2.32025ZM13.89747,12.027,15.11292,9.707,13.89759,7.38693,12.68208,9.70719Zm.8667-6.95929c.01861-.04157.14252-.31049.34527-.69189a14.00455,14.00455,0,0,0-1.212-1.86078,13.94933,13.94933,0,0,0-1.20349,1.8457c.20178.39429.32342.67334.34222.71771l.86121,1.64374ZM12.51368,4.696c-.15607.29992-.24695.49713-.251.50641l-.97039,1.85211,1.21545,2.32,1.21558-2.32019-.966-1.84411C12.75227,5.19876,12.6648,4.99869,12.51368,4.696Zm-.1745-.33734a12.976,12.976,0,0,0-1.19751-1.87433A13.90585,13.90585,0,0,0,9.90608,4.37607c.2044.38428.32965.65595.3493.6994L11.11805,6.722l.86682-1.65436C12.00373,5.02542,12.13075,4.74954,12.33918,4.35868Zm-2.61084.34869c-.15259.29376-.2409.4859-.24493.49506L8.513,7.05454l1.21533,2.3197,1.21546-2.3197-.96625-1.8443C9.97267,5.19943,9.8827,5.00431,9.72834,4.70737Zm-.17773-.33118A14.00268,14.00268,0,0,0,8.33808,2.51462,13.96463,13.96463,0,0,0,7.12641,4.3754c.20465.38464.33.65655.34967.70007L8.33875,6.722l.86683-1.65436C9.22413,5.02609,9.348,4.75736,9.55061,4.37619ZM8.33875,7.38712,7.12318,9.70719,8.33839,12.027,9.554,9.70688Zm-.00036,5.3053L7.12306,15.01248l1.21545,2.32038L9.554,15.01279Zm.00012,5.30566-.86682,1.65454c-.01862.04157-.14252.31049-.34528.6919a13.99746,13.99746,0,0,0,1.2121,1.86077,13.98272,13.98272,0,0,0,1.212-1.86108c-.20441-.38428-.32972-.65594-.34937-.6994Zm1.38971,2.01483c.15259-.29376.24091-.4859.24493-.49506l.9704-1.85241-1.21533-2.32-1.21545,2.32L9.479,19.51C9.4839,19.52085,9.57386,19.716,9.72822,20.01291Zm.17773.33118a14.01248,14.01248,0,0,0,1.21192,1.86072,13.93939,13.93939,0,0,0,1.21222-1.86c-.20459-.38458-.33-.65649-.34961-.7l-.86267-1.64673L10.251,19.65262C10.23243,19.69419,10.10859,19.96292,9.906,20.34409Zm2.60181-.33063c.15271-.29407.24115-.48645.24518-.49561l.97015-1.85217-1.21545-2.32049-1.21558,2.32025.96625,1.8446C12.26319,19.52085,12.35322,19.71622,12.50776,20.01346Zm.17773.33106a14.00633,14.00633,0,0,0,1.212,1.86077,13.983,13.983,0,0,0,1.21185-1.86059c-.20459-.38458-.33-.65643-.34961-.69989l-.86242-1.64649-.86658,1.6543C13.01215,19.69419,12.88825,19.96311,12.68549,20.34452Zm2.60169-10.30481-1.21539,2.31994L15.28706,14.68l1.21539-2.32031Zm0-5.33277c-.15271.294-.24115.48633-.24518.49549l-.9704,1.85229,1.21546,2.31982,1.21557-2.32019-.966-1.84411C15.53175,5.19943,15.44172,5.00412,15.28718,4.70694ZM14.10133,2.26871a13.51931,13.51931,0,0,1,1.18579,1.78308,13.506,13.506,0,0,1,1.18561-1.78314A6.08019,6.08019,0,0,0,15.28712,1.156,6.08007,6.08007,0,0,0,14.10133,2.26871ZM12.79542.98075a6.54674,6.54674,0,0,1,1.102,1.04467,6.54509,6.54509,0,0,1,1.102-1.04467,2.29021,2.29021,0,0,0-1.102-.32227A2.29025,2.29025,0,0,0,12.79542.98075ZM11.34919,2.23624a12.60119,12.60119,0,0,1,1.17017,1.79492,13.47087,13.47087,0,0,1,1.17407-1.76251A6.08019,6.08019,0,0,0,12.50782,1.156,6.02162,6.02162,0,0,0,11.34919,2.23624Zm-.72882-.797a7.16068,7.16068,0,0,1,.52484.55473A6.487,6.487,0,0,1,12.22016.98075a2.29021,2.29021,0,0,0-1.102-.32227,2.27267,2.27267,0,0,0-1.072.30579,5.37768,5.37768,0,0,1,.57416.475m-.87073-.29909A6.03738,6.03738,0,0,0,8.542,2.26834,13.51475,13.51475,0,0,1,9.72828,4.05222a13.42922,13.42922,0,0,1,1.20923-1.814A5.75207,5.75207,0,0,0,9.74964,1.14017ZM7.24043.98355a6.55266,6.55266,0,0,1,1.0979,1.04193A6.50815,6.50815,0,0,1,9.457.96945a2.388,2.388,0,0,0-1.11865-.311A2.346,2.346,0,0,0,7.24043.98355ZM6.94874,4.05179A13.4977,13.4977,0,0,1,8.13441,2.26871a6.07462,6.07462,0,0,0-1.189-1.11511,5.30012,5.30012,0,0,0-.44439.30566,3.91472,3.91472,0,0,0-.74341.80243A13.49754,13.49754,0,0,1,6.94874,4.05179Zm.00018,5.32275,1.21558-2.32-.96625-1.8443c-.00488-.01081-.095-.20618-.24951-.50348-.15271.29413-.24109.48645-.24512.49567L5.73347,7.05435Zm-.00018,5.30524,1.21533-2.32013L6.94886,10.03983,5.73341,12.35965ZM6.94868,20.0134c.15271-.29407.24115-.48639.24518-.49555l.97039-1.85241L6.9488,15.34519,5.73322,17.66568l.966,1.84436C6.70411,19.52085,6.79414,19.71622,6.94868,20.0134Zm1.18585,2.43817a13.51726,13.51726,0,0,1-1.18579-1.78308,13.45558,13.45558,0,0,1-1.19849,1.7998,3.2648,3.2648,0,0,0,1.11084,1.15918A5.91484,5.91484,0,0,0,8.13453,22.45157Zm1.3045,1.2868A6.54561,6.54561,0,0,1,8.33851,22.6948a6.4058,6.4058,0,0,1-1.17169,1.09259,2.967,2.967,0,0,0,1.16424.27441A2.30374,2.30374,0,0,0,9.439,23.73837ZM10.91377,22.451a13.52067,13.52067,0,0,1-1.18549-1.7829,13.49757,13.49757,0,0,1-1.18579,1.78351,6.08459,6.08459,0,0,0,1.18426,1.11157A6.07976,6.07976,0,0,0,10.91377,22.451Zm1.30645,1.28857a6.54246,6.54246,0,0,1-1.102-1.04473,6.54454,6.54454,0,0,1-1.10229,1.04473,2.29091,2.29091,0,0,0,1.10223.32227A2.29022,2.29022,0,0,0,12.22022,23.73953Zm1.47339-1.2879a13.51961,13.51961,0,0,1-1.18579-1.78314,13.49671,13.49671,0,0,1-1.18567,1.78308,6.083,6.083,0,0,0,1.18567,1.11273A6.07965,6.07965,0,0,0,13.69361,22.45163Zm1.30591,1.2879a6.54674,6.54674,0,0,1-1.102-1.04467,6.54509,6.54509,0,0,1-1.10205,1.04467,2.29021,2.29021,0,0,0,1.102.32227A2.29025,2.29025,0,0,0,14.99952,23.73953Zm1.47339-1.2879a13.51861,13.51861,0,0,1-1.18579-1.78314,13.507,13.507,0,0,1-1.18561,1.78314,6.08237,6.08237,0,0,0,1.18561,1.11267A6.07993,6.07993,0,0,0,16.47291,22.45163Z"/><path class="b" d="M5.55909,22.20481v.49047l-.00036-.00042a6.54546,6.54546,0,0,1-1.102,1.04467,2.29018,2.29018,0,0,0,1.102.32227v.30859a2.6784,2.6784,0,0,1-1.38959-.433,2.67919,2.67919,0,0,1-1.38971.433,2.6784,2.6784,0,0,1-1.38959-.433,2.67919,2.67919,0,0,1-1.38971.433,2.67932,2.67932,0,0,1-1.38989-.4331,2.67915,2.67915,0,0,1-1.38989.4331c-.00586.001-.02344.001-.05225.001A3.22735,3.22735,0,0,1-4.2542,23.984a2.627,2.627,0,0,1-1.30432.38635v-.30859a2.22215,2.22215,0,0,0,.99536-.26526,3.59879,3.59879,0,0,1-.99536-1.06055v-.53729a14.10544,14.10544,0,0,0,1.21142-1.854c-.20458-.38452-.33-.65637-.3496-.69983l-.86182-1.64533v-.6676l1.2149-2.3194-1.2149-2.31915V12.026l1.215-2.31884-1.215-2.31958V6.721l.86621-1.65338c.01862-.04157.14252-.31049.34528-.69189a14.13318,14.13318,0,0,0-1.21149-1.854V2.01438a4.12912,4.12912,0,0,1,.75391-.80121c.11816-.09058.22888-.16449.33886-.23712A2.28505,2.28505,0,0,0-5.55852.65854V.35A2.685,2.685,0,0,1-4.1599.78946,2.736,2.736,0,0,1-2.766.34989h.00049a2.75471,2.75471,0,0,1,1.4013.41656A2.66255,2.66255,0,0,1,.00007.34989a2.6784,2.6784,0,0,1,1.38959.433,2.67919,2.67919,0,0,1,1.38971-.433A2.6784,2.6784,0,0,1,4.169.78293a2.67919,2.67919,0,0,1,1.38971-.433V.65848A2.29022,2.29022,0,0,0,4.45662.98075a6.54674,6.54674,0,0,1,1.102,1.04467l.00048-.00055v.49079L5.55861,2.515a13.98787,13.98787,0,0,0-1.2118,1.86065c.20459.38452.3299.65638.34955.69983l.86243,1.64624.0003-.00061v.66644l-.0003-.00061L4.34327,9.70719,5.55867,12.027l.00042-.00079v.667l-.00042-.00079L4.34321,15.01267,5.55854,17.333l.00055-.001v.66736l-.00055-.001L4.692,19.65262c-.01862.04157-.14252.31049-.34528.6919a14.00633,14.00633,0,0,0,1.212,1.86077ZM4.169,15.34537,2.9535,17.66568l.966,1.84436c.00488.01081.09491.20618.24945.50336.15271-.29407.24115-.48639.24518-.49555l.97015-1.85217Zm-5.55872-5.30585L-2.6054,12.35965l1.21552,2.32044,1.21564-2.32044ZM.00007,12.027,1.2154,9.70719,0,7.38712-1.2155,9.70688Zm-1.2157,2.98584,1.21534,2.32007,1.21557-2.32038L.00007,12.69242Zm2.60523-.333,1.21545-2.32013L1.38972,10.03983.17439,12.35965Zm.17425.3327L2.77925,17.333,3.9947,15.01267,2.77937,12.69242ZM2.77937,12.027,3.99482,9.707,2.77949,7.38693,1.564,9.70719Zm.8667-6.95929c.01861-.04157.14252-.31049.34527-.69189A14.00455,14.00455,0,0,0,2.77931,2.515a13.94933,13.94933,0,0,0-1.20349,1.8457c.20178.39429.32342.67334.34222.71771l.86121,1.64374ZM1.39558,4.696c-.15607.29992-.24695.49713-.251.50641L.17421,7.05454l1.21545,2.32L2.60524,7.05435l-.966-1.84411C1.63417,5.19876,1.5467,4.99869,1.39558,4.696Zm-.1745-.33734A12.976,12.976,0,0,0,.02357,2.48435,13.90585,13.90585,0,0,0-1.212,4.37607c.2044.38428.32965.65595.3493.6994L0,6.722.86677,5.06766C.88563,5.02542,1.01265,4.74954,1.22108,4.35868Zm-2.61084.34869c-.15259.29376-.2409.4859-.24493.49506l-.9704,1.85211,1.21533,2.3197L-.1743,7.05454l-.96625-1.8443C-1.14543,5.19943-1.2354,5.00431-1.38976,4.70737Zm-.17773-.33118A14.00268,14.00268,0,0,0-2.78,2.51462,13.96463,13.96463,0,0,0-3.99169,4.3754c.20465.38464.33.65655.34967.70007L-2.77935,6.722l.86683-1.65436C-1.894,5.02609-1.77013,4.75736-1.56749,4.37619ZM-2.77935,7.38712-3.99492,9.70719-2.77971,12.027l1.21564-2.32007Zm-.00036,5.3053L-3.995,15.01248l1.21545,2.32038,1.21545-2.32007Zm.00012,5.30566-.86682,1.65454c-.01862.04157-.14252.31049-.34528.6919a13.99746,13.99746,0,0,0,1.2121,1.86077,13.98272,13.98272,0,0,0,1.212-1.86108c-.20441-.38428-.32972-.65594-.34937-.6994Zm1.38971,2.01483c.15259-.29376.24091-.4859.24493-.49506l.9704-1.85241-1.21533-2.32-1.21545,2.32.96624,1.8446C-1.6342,19.52085-1.54424,19.716-1.38988,20.01291Zm.17773.33118A14.01248,14.01248,0,0,0-.00023,22.20481a13.93939,13.93939,0,0,0,1.21222-1.86c-.20459-.38458-.33-.65649-.34961-.7l-.86267-1.64673-.86682,1.65454C-.88567,19.69419-1.00951,19.96292-1.21215,20.34409Zm2.60181-.33063c.15271-.29407.24115-.48645.24518-.49561L2.605,17.66568,1.38954,15.34519.174,17.66544,1.14021,19.51C1.14509,19.52085,1.23512,19.71622,1.38966,20.01346Zm.17773.33106a14.00633,14.00633,0,0,0,1.212,1.86077A13.983,13.983,0,0,0,3.99128,20.3447c-.20459-.38458-.33-.65643-.34961-.69989l-.86242-1.64649-.86658,1.6543C1.89405,19.69419,1.77015,19.96311,1.56739,20.34452ZM4.16908,10.03971,2.95369,12.35965,4.169,14.68l1.21539-2.32031Zm0-5.33277c-.15271.294-.24115.48633-.24518.49549L2.9535,7.05472,4.169,9.37454,5.38453,7.05435l-.966-1.84411C4.41365,5.19943,4.32362,5.00412,4.16908,4.70694ZM2.98323,2.26871A13.51931,13.51931,0,0,1,4.169,4.05179,13.506,13.506,0,0,1,5.35463,2.26865,6.08019,6.08019,0,0,0,4.169,1.156,6.08007,6.08007,0,0,0,2.98323,2.26871ZM1.67732.98075a6.54674,6.54674,0,0,1,1.102,1.04467A6.54509,6.54509,0,0,1,3.88136.98075a2.29021,2.29021,0,0,0-1.102-.32227A2.29025,2.29025,0,0,0,1.67732.98075ZM.23109,2.23624A12.60119,12.60119,0,0,1,1.40126,4.03116,13.47087,13.47087,0,0,1,2.57533,2.26865,6.08019,6.08019,0,0,0,1.38972,1.156,6.02162,6.02162,0,0,0,.23109,2.23624Zm-.72882-.797A7.16068,7.16068,0,0,1,.02711,1.994,6.487,6.487,0,0,1,1.10206.98075,2.29021,2.29021,0,0,0,.00007.65848a2.27267,2.27267,0,0,0-1.072.30579,5.37768,5.37768,0,0,1,.57416.475m-.87073-.29909A6.03738,6.03738,0,0,0-2.5761,2.26834,13.51475,13.51475,0,0,1-1.38982,4.05222a13.42922,13.42922,0,0,1,1.20923-1.814A5.75207,5.75207,0,0,0-1.36846,1.14017ZM-3.87767.98355a6.55266,6.55266,0,0,1,1.0979,1.04193A6.50815,6.50815,0,0,1-1.66106.96945a2.388,2.388,0,0,0-1.11865-.311A2.346,2.346,0,0,0-3.87767.98355Zm-.29169,3.06824A13.4977,13.4977,0,0,1-2.98369,2.26871a6.07462,6.07462,0,0,0-1.189-1.11511,5.30012,5.30012,0,0,0-.44439.30566,3.91472,3.91472,0,0,0-.74341.80243A13.49754,13.49754,0,0,1-4.16936,4.05179Zm.00018,5.32275,1.21558-2.32-.96625-1.8443c-.00488-.01081-.095-.20618-.24951-.50348-.15271.29413-.24109.48645-.24512.49567l-.97015,1.85192Zm-.00018,5.30524L-2.954,12.35965l-1.21521-2.31982-1.21545,2.31982Zm-.00006,5.33362c.15271-.29407.24115-.48639.24518-.49555l.97039-1.85241L-4.1693,15.34519l-1.21558,2.32049.966,1.84436C-4.414,19.52085-4.324,19.71622-4.16942,20.0134Zm1.18585,2.43817a13.51726,13.51726,0,0,1-1.18579-1.78308,13.45558,13.45558,0,0,1-1.19849,1.7998A3.2648,3.2648,0,0,0-4.257,23.62747,5.91484,5.91484,0,0,0-2.98357,22.45157Zm1.3045,1.2868A6.54561,6.54561,0,0,1-2.77959,22.6948a6.4058,6.4058,0,0,1-1.17169,1.09259A2.967,2.967,0,0,0-2.787,24.0618,2.30374,2.30374,0,0,0-1.67907,23.73837ZM-.20433,22.451a13.52067,13.52067,0,0,1-1.18549-1.7829,13.49757,13.49757,0,0,1-1.18579,1.78351,6.08459,6.08459,0,0,0,1.18426,1.11157A6.07976,6.07976,0,0,0-.20433,22.451Zm1.30645,1.28857a6.54246,6.54246,0,0,1-1.102-1.04473,6.54454,6.54454,0,0,1-1.10229,1.04473,2.29091,2.29091,0,0,0,1.10223.32227A2.29022,2.29022,0,0,0,1.10212,23.73953Zm1.47339-1.2879a13.51961,13.51961,0,0,1-1.18579-1.78314A13.49671,13.49671,0,0,1,.20405,22.45157,6.083,6.083,0,0,0,1.38972,23.5643,6.07965,6.07965,0,0,0,2.57551,22.45163Zm1.30591,1.2879a6.54674,6.54674,0,0,1-1.102-1.04467,6.54509,6.54509,0,0,1-1.102,1.04467,2.29021,2.29021,0,0,0,1.102.32227A2.29025,2.29025,0,0,0,3.88142,23.73953Zm1.47339-1.2879A13.51861,13.51861,0,0,1,4.169,20.66849a13.507,13.507,0,0,1-1.18561,1.78314A6.08237,6.08237,0,0,0,4.169,23.5643,6.07993,6.07993,0,0,0,5.35481,22.45163Z"/></pattern></defs><title>save-ptn-01</title><rect class="d" y="54" width="527" height="527"/><polygon class="e" points="603 527 76 871 76 368 603 0 603 527"/></svg>