<svg xmlns="http://www.w3.org/2000/svg" xmlns:xlink="http://www.w3.org/1999/xlink" viewBox="0 0 730.74 630.13"><defs><style>.cls-1{fill:none;}.cls-2{fill:#f9d5b4;}.cls-3{fill:#0051b2;}.cls-4{fill:#ecfbec;}.cls-5{fill:#cdf2ca;}.cls-6{fill:#ffe8d9;}.cls-7{clip-path:url(#clip-path);}.cls-8{fill:#fce0c0;}.cls-9{clip-path:url(#clip-path-2);}.cls-10{clip-path:url(#clip-path-3);}.cls-11{clip-path:url(#clip-path-4);}.cls-12{clip-path:url(#clip-path-5);}.cls-13{clip-path:url(#clip-path-6);}.cls-14{clip-path:url(#clip-path-7);}.cls-15{fill:#e8e8e8;}.cls-16,.cls-17,.cls-19,.cls-20{stroke-miterlimit:10;}.cls-16{fill:url(#Curved-Green-wBG);}.cls-16,.cls-17{stroke:url(#Thick-Green-Vertical-wBG);}.cls-17{fill:url(#Thin-Grey-Horizontal);}.cls-18{isolation:isolate;}.cls-19{fill:#fff;stroke:#bee8ba;}.cls-20{fill:url(#Thick-Green-Vertical-wBG-5);stroke:url(#Thick-Green-Vertical-wBG-7);}.cls-21{fill:url(#Orange-Aztec);}.cls-22{fill:#e5c4a8;}.cls-23{clip-path:url(#clip-path-8);}.cls-24{fill:#0066f5;}.cls-25{fill:#003a7f;}.cls-26{clip-path:url(#clip-path-9);}</style><clipPath id="clip-path"><polygon class="cls-1" points="281.08 350.43 189.05 175.22 332.66 175.22 332.63 350.43 281.08 350.43"/></clipPath><clipPath id="clip-path-2"><polygon class="cls-1" points="281.08 350.43 73.03 350.43 163.86 260.21 163.86 175.22 189.05 175.22 281.08 350.43"/></clipPath><clipPath id="clip-path-3"><polygon class="cls-1" points="0 350.43 0 175.22 163.86 175.22 163.86 260.21 73.03 350.43 0 350.43"/></clipPath><clipPath id="clip-path-4"><polygon class="cls-1" points="51.58 0 143.61 175.22 0 175.22 0.03 0 51.58 0"/></clipPath><clipPath id="clip-path-5"><polygon class="cls-1" points="51.58 0 259.63 0 168.8 89.91 168.8 175.22 143.61 175.22 51.58 0"/></clipPath><clipPath id="clip-path-6"><polygon class="cls-1" points="332.66 0 332.66 175.22 168.8 175.22 168.8 89.91 259.63 0 332.66 0"/></clipPath><clipPath id="clip-path-7"><rect class="cls-1" width="36.88" height="36.88"/></clipPath><pattern id="Curved-Green-wBG" data-name="Curved-Green-wBG" width="22.24" height="24.72" patternTransform="translate(-48.11 17.87) scale(2)" patternUnits="userSpaceOnUse" viewBox="0 0 22.24 24.72"><rect class="cls-1" width="22.24" height="24.72"/><rect class="cls-4" x="16.68" width="11.12" height="24.72"/><polygon class="cls-5" points="16.68 0.35 16.68 0.66 16.68 0.66 16.68 0.35 16.68 0.35"/><polygon class="cls-5" points="16.68 24.06 16.68 24.37 16.68 24.37 16.68 24.06 16.68 24.06"/><path class="cls-5" d="M27.8,22.2v.49h0a6,6,0,0,1-1.1,1,2.39,2.39,0,0,0,1.1.32v.31a2.7,2.7,0,0,1-1.38-.43,2.76,2.76,0,0,1-1.39.43,2.73,2.73,0,0,1-1.39-.43,2.76,2.76,0,0,1-1.39.43,2.73,2.73,0,0,1-1.39-.43,2.76,2.76,0,0,1-1.39.43H19.4A3.24,3.24,0,0,1,18,24a2.59,2.59,0,0,1-1.3.39v-.31a2.21,2.21,0,0,0,1-.26,3.7,3.7,0,0,1-1-1.07V22.2a15.54,15.54,0,0,0,1.21-1.86c-.21-.38-.33-.65-.35-.7L16.68,18v-.67L17.89,15l-1.21-2.32V12l1.21-2.32L16.68,7.39V6.72l.86-1.65.35-.7a15.5,15.5,0,0,0-1.21-1.85V2a4.15,4.15,0,0,1,.75-.8L17.77,1A2.21,2.21,0,0,0,16.68.66V.35a2.71,2.71,0,0,1,1.4.44A2.75,2.75,0,0,1,19.47.35h0a2.75,2.75,0,0,1,1.4.42,2.45,2.45,0,0,1,2.76,0A2.64,2.64,0,0,1,25,.35a2.67,2.67,0,0,1,1.39.43A2.6,2.6,0,0,1,27.79.35V.66a2.28,2.28,0,0,0-1.1.32,6.35,6.35,0,0,1,1.1,1h0v.49h0a15.54,15.54,0,0,0-1.21,1.86c.21.39.33.66.35.7l.86,1.65h0v.67h0L26.58,9.71,27.79,12h0v.66h0L26.58,15l1.21,2.32h0V18h0l-.86,1.65s-.14.31-.35.69a14.1,14.1,0,0,0,1.21,1.86Zm-1.39-6.86-1.22,2.32,1,1.85a4.74,4.74,0,0,0,.25.5c.15-.29.24-.48.24-.49l1-1.86ZM20.85,10l-1.22,2.32,1.22,2.32,1.21-2.32Zm1.39,2,1.21-2.32L22.24,7.39,21,9.71ZM21,15l1.22,2.32L23.45,15l-1.21-2.32Zm2.61-.33,1.21-2.32L23.63,10l-1.22,2.32Zm.17.33L25,17.33,26.23,15,25,12.69ZM25,12l1.21-2.32L25,7.39,23.8,9.71Zm.86-7s.14-.31.35-.7A15.54,15.54,0,0,0,25,2.51a14.35,14.35,0,0,0-1.21,1.85,6.88,6.88,0,0,1,.34.72L25,6.72Zm-2.25-.38-.25.51-1,1.85,1.22,2.32,1.21-2.32-1-1.84S23.78,5,23.63,4.69Zm-.17-.33a12.77,12.77,0,0,0-1.2-1.88A14.05,14.05,0,0,0,21,4.38c.21.38.33.65.35.69l.87,1.65.86-1.65C23.12,5,23.25,4.75,23.46,4.36Zm-2.61.35c-.16.29-.24.48-.25.49l-1,1.85,1.22,2.32,1.21-2.32-1-1.84S21,5,20.85,4.71Zm-.18-.33a13.78,13.78,0,0,0-1.21-1.87,14.57,14.57,0,0,0-1.22,1.86c.21.39.33.66.35.7l.87,1.65.86-1.65S20.47,4.76,20.67,4.38Zm-1.21,3L18.24,9.71,19.46,12l1.21-2.32Zm0,5.3L18.24,15l1.22,2.32L20.67,15Zm0,5.31-.87,1.65s-.14.31-.35.69a13.3,13.3,0,0,0,1.22,1.86,13.74,13.74,0,0,0,1.21-1.86c-.21-.38-.33-.65-.35-.7Zm1.39,2c.15-.29.24-.48.24-.49l1-1.86-1.21-2.32-1.22,2.32,1,1.85S20.69,19.71,20.85,20Zm.17.33a13.3,13.3,0,0,0,1.22,1.86,13.74,13.74,0,0,0,1.21-1.86c-.21-.38-.33-.65-.35-.7L22.24,18l-.87,1.65S21.23,20,21,20.34ZM23.63,20c.15-.29.24-.48.24-.49l1-1.86-1.21-2.32-1.22,2.32,1,1.85A4.74,4.74,0,0,0,23.63,20Zm.17.33A13.3,13.3,0,0,0,25,22.2a14.78,14.78,0,0,0,1.21-1.86c-.21-.38-.33-.65-.35-.7L25,18l-.87,1.65S24,20,23.8,20.34ZM26.41,10l-1.22,2.32,1.22,2.32,1.21-2.32Zm0-5.33a5.34,5.34,0,0,0-.25.49l-1,1.85,1.22,2.32,1.21-2.32-1-1.84S26.56,5,26.41,4.71ZM25.22,2.27a14.12,14.12,0,0,1,1.19,1.78,13,13,0,0,1,1.18-1.78,6.14,6.14,0,0,0-1.18-1.11A5.91,5.91,0,0,0,25.22,2.27ZM23.91,1A6.79,6.79,0,0,1,25,2a6.35,6.35,0,0,1,1.1-1,2.07,2.07,0,0,0-2.21,0ZM22.47,2.24A13.2,13.2,0,0,1,23.64,4a13,13,0,0,1,1.17-1.76,6.14,6.14,0,0,0-1.18-1.11A5.6,5.6,0,0,0,22.47,2.24ZM21.16,1a6.29,6.29,0,0,1,1.1,1,6.41,6.41,0,0,1,1.08-1,2.28,2.28,0,0,0-1.1-.32A2.38,2.38,0,0,0,21.16,1Zm-.29.18a5.83,5.83,0,0,0-1.21,1.13,14.12,14.12,0,0,1,1.19,1.78,12.65,12.65,0,0,1,1.21-1.81A5.58,5.58,0,0,0,20.87,1.14ZM18.36,1a7.16,7.16,0,0,1,1.1,1,6.52,6.52,0,0,1,1.12-1A2.42,2.42,0,0,0,19.46.66,2.24,2.24,0,0,0,18.36,1Zm-.29,3.07a13,13,0,0,1,1.18-1.78,6,6,0,0,0-1.19-1.12l-.44.31a3.61,3.61,0,0,0-.74.8A14.17,14.17,0,0,1,18.07,4.05Zm0,5.32,1.21-2.32-1-1.84s-.1-.21-.25-.5c-.16.29-.24.48-.25.49l-1,1.85Zm0,5.31,1.21-2.32L18.07,10l-1.22,2.32Zm0,5.33c.15-.29.24-.48.24-.49l1-1.86-1.21-2.32-1.22,2.32,1,1.85A4.74,4.74,0,0,0,18.07,20Zm1.18,2.44a13,13,0,0,1-1.18-1.78,15.16,15.16,0,0,1-1.2,1.8A3.27,3.27,0,0,0,18,23.63,5.86,5.86,0,0,0,19.25,22.45Zm1.31,1.29a6,6,0,0,1-1.1-1,6.43,6.43,0,0,1-1.18,1.1,3.07,3.07,0,0,0,1.17.27A2.4,2.4,0,0,0,20.56,23.74ZM22,22.45a13,13,0,0,1-1.18-1.78,14.12,14.12,0,0,1-1.19,1.78,6.14,6.14,0,0,0,1.18,1.11A5.91,5.91,0,0,0,22,22.45Zm1.31,1.29a6,6,0,0,1-1.1-1,6.44,6.44,0,0,1-1.11,1,2.07,2.07,0,0,0,2.21,0Zm1.47-1.29a13,13,0,0,1-1.18-1.78,14.12,14.12,0,0,1-1.19,1.78,5.91,5.91,0,0,0,1.19,1.11A6.14,6.14,0,0,0,24.81,22.45Zm1.31,1.29a6,6,0,0,1-1.1-1,6.44,6.44,0,0,1-1.11,1,2.07,2.07,0,0,0,2.21,0Zm1.47-1.29a13,13,0,0,1-1.18-1.78,14.12,14.12,0,0,1-1.19,1.78,5.91,5.91,0,0,0,1.19,1.11A6.14,6.14,0,0,0,27.59,22.45Z"/><rect class="cls-4" x="5.56" width="11.12" height="24.72"/><polygon class="cls-5" points="5.56 0.35 5.56 0.66 5.56 0.66 5.56 0.35 5.56 0.35"/><polygon class="cls-5" points="5.56 24.06 5.56 24.37 5.56 24.37 5.56 24.06 5.56 24.06"/><path class="cls-5" d="M16.68,22.2v.49h0a6.44,6.44,0,0,1-1.11,1,2.4,2.4,0,0,0,1.11.32v.31a2.73,2.73,0,0,1-1.39-.43,2.76,2.76,0,0,1-1.39.43,2.73,2.73,0,0,1-1.39-.43,2.76,2.76,0,0,1-1.39.43,2.73,2.73,0,0,1-1.39-.43,2.76,2.76,0,0,1-1.39.43H8.29A3.24,3.24,0,0,1,6.86,24a2.59,2.59,0,0,1-1.3.39v-.31a2.21,2.21,0,0,0,1-.26,3.7,3.7,0,0,1-1-1.07V22.2a13.4,13.4,0,0,0,1.21-1.86c-.2-.38-.33-.65-.35-.7L5.56,18v-.67L6.77,15,5.56,12.69V12L6.77,9.71,5.56,7.39V6.72l.87-1.65s.14-.31.34-.7A14.35,14.35,0,0,0,5.56,2.52V2a4.49,4.49,0,0,1,.75-.8L6.65,1A2.21,2.21,0,0,0,5.56.66V.35A2.68,2.68,0,0,1,7,.79,2.75,2.75,0,0,1,8.35.35h0a2.7,2.7,0,0,1,1.4.42A2.68,2.68,0,0,1,11.12.35a2.67,2.67,0,0,1,1.39.43A2.64,2.64,0,0,1,13.9.35a2.67,2.67,0,0,1,1.39.43A2.64,2.64,0,0,1,16.68.35V.66A2.29,2.29,0,0,0,15.57,1a6.79,6.79,0,0,1,1.11,1h0v.49h0a14.57,14.57,0,0,0-1.22,1.86c.21.39.33.66.35.7l.87,1.65h0v.67h0L15.46,9.71,16.68,12h0v.66h0L15.46,15l1.22,2.32h0V18h0l-.87,1.65s-.14.31-.35.69a13.3,13.3,0,0,0,1.22,1.86Zm-1.39-6.86-1.22,2.32,1,1.85a4.74,4.74,0,0,0,.25.5c.15-.29.24-.48.24-.49l1-1.86ZM9.73,10,8.51,12.36l1.22,2.32,1.21-2.32Zm1.39,2,1.21-2.32L11.12,7.39,9.9,9.71ZM9.9,15l1.22,2.32L12.33,15l-1.21-2.32Zm2.61-.33,1.21-2.32L12.51,10l-1.22,2.32Zm.17.33,1.22,2.32L15.11,15,13.9,12.69Zm1.22-3,1.21-2.32L13.9,7.39,12.68,9.71Zm.86-7,.35-.7A14.39,14.39,0,0,0,13.9,2.51a14.35,14.35,0,0,0-1.21,1.85c.21.39.33.67.35.72l.86,1.64Zm-2.25-.38c-.15.3-.24.5-.25.51l-1,1.85,1.22,2.32,1.21-2.32-1-1.84S12.66,5,12.51,4.69Zm-.17-.33a12.77,12.77,0,0,0-1.2-1.88,13.89,13.89,0,0,0-1.23,1.9c.2.38.33.65.35.69l.86,1.65L12,5.07C12,5,12.13,4.75,12.34,4.36Zm-2.61.35-.25.49-1,1.85L9.73,9.37l1.21-2.32L10,5.21S9.88,5,9.73,4.71Zm-.18-.33A13.78,13.78,0,0,0,8.34,2.51,13.4,13.4,0,0,0,7.13,4.37l.35.7.86,1.65.87-1.65S9.35,4.76,9.55,4.38Zm-1.21,3L7.12,9.71,8.34,12,9.55,9.71Zm0,5.3L7.12,15l1.22,2.32L9.55,15Zm0,5.31-.87,1.65s-.14.31-.34.69A12.32,12.32,0,0,0,8.34,22.2a13.74,13.74,0,0,0,1.21-1.86c-.2-.38-.33-.65-.35-.7Zm1.39,2c.15-.29.24-.48.24-.49l1-1.86L9.73,15.34,8.51,17.66l1,1.85S9.57,19.71,9.73,20Zm.18.33a12.32,12.32,0,0,0,1.21,1.86,13.74,13.74,0,0,0,1.21-1.86c-.2-.38-.33-.65-.35-.7L11.12,18l-.87,1.65S10.11,20,9.91,20.34Zm2.6-.33c.15-.29.24-.48.24-.49l1-1.86-1.21-2.32-1.22,2.32,1,1.85A4.74,4.74,0,0,0,12.51,20Zm.18.33A12.32,12.32,0,0,0,13.9,22.2a13.74,13.74,0,0,0,1.21-1.86c-.21-.38-.33-.65-.35-.7L13.9,18,13,19.65S12.89,20,12.69,20.34ZM15.29,10l-1.22,2.32,1.22,2.32,1.21-2.32Zm0-5.33c-.16.29-.24.48-.25.49l-1,1.85,1.22,2.32L16.5,7.05l-1-1.84S15.44,5,15.29,4.71ZM14.1,2.27a14.12,14.12,0,0,1,1.19,1.78,13,13,0,0,1,1.18-1.78,6.14,6.14,0,0,0-1.18-1.11A5.91,5.91,0,0,0,14.1,2.27ZM12.8,1a7.16,7.16,0,0,1,1.1,1A6.35,6.35,0,0,1,15,1,2.25,2.25,0,0,0,13.9.66,2.22,2.22,0,0,0,12.8,1ZM11.35,2.24A12.3,12.3,0,0,1,12.52,4a13,13,0,0,1,1.17-1.76,6.14,6.14,0,0,0-1.18-1.11A5.6,5.6,0,0,0,11.35,2.24ZM10.05,1a7.08,7.08,0,0,1,1.1,1,6,6,0,0,1,1.07-1,2.25,2.25,0,0,0-1.1-.32A2.3,2.3,0,0,0,10.05,1Zm-.3.18A6.09,6.09,0,0,0,8.54,2.27,14.12,14.12,0,0,1,9.73,4.05a13.56,13.56,0,0,1,1.21-1.81A5.58,5.58,0,0,0,9.75,1.14ZM7.24,1a6.73,6.73,0,0,1,1.1,1A6.52,6.52,0,0,1,9.46,1,2.39,2.39,0,0,0,8.34.66,2.24,2.24,0,0,0,7.24,1ZM7,4.05A14,14,0,0,1,8.13,2.27,6.2,6.2,0,0,0,7,1.15a5.23,5.23,0,0,0-.45.31,3.61,3.61,0,0,0-.74.8A14.17,14.17,0,0,1,7,4.05ZM7,9.37,8.16,7.05l-1-1.84L7,4.71,6.7,5.2l-1,1.85Zm0,5.31,1.21-2.32L7,10,5.73,12.36ZM7,20c.15-.29.24-.48.24-.49l1-1.86L7,15.34,5.73,17.66l1,1.85A4.74,4.74,0,0,0,7,20Zm1.18,2.44A14,14,0,0,1,7,20.67a14,14,0,0,1-1.2,1.8,3.36,3.36,0,0,0,1.11,1.16A5.86,5.86,0,0,0,8.13,22.45Zm1.31,1.29a6,6,0,0,1-1.1-1,6.71,6.71,0,0,1-1.17,1.1,3,3,0,0,0,1.16.27A2.4,2.4,0,0,0,9.44,23.74Zm1.47-1.29a14,14,0,0,1-1.18-1.78,14.12,14.12,0,0,1-1.19,1.78,5.91,5.91,0,0,0,1.19,1.11A6.14,6.14,0,0,0,10.91,22.45Zm1.31,1.29a6,6,0,0,1-1.1-1,6.77,6.77,0,0,1-1.1,1,2.33,2.33,0,0,0,1.1.32A2.36,2.36,0,0,0,12.22,23.74Zm1.47-1.29a13,13,0,0,1-1.18-1.78,14.12,14.12,0,0,1-1.19,1.78,5.91,5.91,0,0,0,1.19,1.11A6.14,6.14,0,0,0,13.69,22.45ZM15,23.74a6,6,0,0,1-1.1-1,6.77,6.77,0,0,1-1.1,1,2.33,2.33,0,0,0,1.1.32A2.36,2.36,0,0,0,15,23.74Zm1.47-1.29a13,13,0,0,1-1.18-1.78,14.12,14.12,0,0,1-1.19,1.78,5.91,5.91,0,0,0,1.19,1.11A6.14,6.14,0,0,0,16.47,22.45Z"/><rect class="cls-4" x="-5.56" width="11.12" height="24.72"/><path class="cls-5" d="M5.56,22.2v.49h0a6.77,6.77,0,0,1-1.1,1,2.33,2.33,0,0,0,1.1.32v.31a2.73,2.73,0,0,1-1.39-.43,2.76,2.76,0,0,1-1.39.43,2.76,2.76,0,0,1-1.39-.43A2.76,2.76,0,0,1,0,24.37a2.76,2.76,0,0,1-1.39-.43,2.76,2.76,0,0,1-1.39.43h-.05A3.18,3.18,0,0,1-4.25,24a2.65,2.65,0,0,1-1.31.39v-.31a2.29,2.29,0,0,0,1-.26,3.59,3.59,0,0,1-1-1.07V22.2a13.4,13.4,0,0,0,1.21-1.86c-.2-.38-.33-.65-.35-.7L-5.56,18v-.67L-4.34,15l-1.22-2.32V12l1.22-2.32L-5.56,7.39V6.72l.87-1.65s.14-.31.34-.7A13.36,13.36,0,0,0-5.56,2.52V2a4.19,4.19,0,0,1,.76-.8A3.29,3.29,0,0,1-4.47,1,2.18,2.18,0,0,0-5.56.66V.35a2.68,2.68,0,0,1,1.4.44A2.79,2.79,0,0,1-2.77.35h0A2.76,2.76,0,0,1-1.36.77,2.64,2.64,0,0,1,0,.35,2.67,2.67,0,0,1,1.39.78,2.67,2.67,0,0,1,2.78.35,2.67,2.67,0,0,1,4.17.78,2.64,2.64,0,0,1,5.56.35V.66A2.22,2.22,0,0,0,4.46,1a7.16,7.16,0,0,1,1.1,1h0v.49h0A13.4,13.4,0,0,0,4.35,4.37l.35.7.86,1.65h0v.67h0L4.34,9.71,5.56,12h0v.66h0L4.34,15l1.22,2.32h0V18h0l-.87,1.65s-.14.31-.34.69A12.32,12.32,0,0,0,5.56,22.2ZM4.17,15.34,3,17.66l1,1.85a4.74,4.74,0,0,0,.25.5c.15-.29.24-.48.24-.49l1-1.86ZM-1.39,10l-1.22,2.32,1.22,2.32,1.22-2.32ZM0,12,1.22,9.71,0,7.39-1.22,9.71Zm-1.22,3L0,17.33,1.22,15,0,12.69Zm2.61-.33L2.6,12.36,1.39,10,.17,12.36Zm.17.33,1.22,2.32L4,15,2.78,12.69Zm1.22-3L4,9.71,2.78,7.39,1.56,9.71Zm.87-7s.14-.31.34-.7A14.39,14.39,0,0,0,2.78,2.51a13.2,13.2,0,0,0-1.2,1.85c.2.39.32.67.34.72l.86,1.64ZM1.4,4.69c-.16.3-.25.5-.26.51l-1,1.85L1.39,9.37,2.61,7.05l-1-1.84S1.55,5,1.4,4.69Zm-.18-.33A12.77,12.77,0,0,0,0,2.48a13.89,13.89,0,0,0-1.23,1.9c.2.38.33.65.35.69L0,6.72.87,5.07C.89,5,1,4.75,1.22,4.36Zm-2.61.35c-.15.29-.24.48-.24.49l-1,1.85,1.22,2.32L-.17,7.05l-1-1.84S-1.24,5-1.39,4.71Zm-.18-.33A12.88,12.88,0,0,0-2.78,2.51,13.4,13.4,0,0,0-4,4.37c.2.39.33.66.35.7l.86,1.65.87-1.65S-1.77,4.76-1.57,4.38Zm-1.21,3L-4,9.71-2.78,12l1.22-2.32Zm0,5.3L-4,15l1.22,2.32L-1.56,15Zm0,5.31-.87,1.65s-.14.31-.34.69A13.15,13.15,0,0,0-2.78,22.2a12.84,12.84,0,0,0,1.21-1.86c-.2-.38-.33-.65-.35-.7Zm1.39,2c.15-.29.24-.48.24-.49l1-1.86-1.22-2.32-1.22,2.32,1,1.85S-1.54,19.71-1.39,20Zm.18.33A12.32,12.32,0,0,0,0,22.2a12.84,12.84,0,0,0,1.21-1.86c-.2-.38-.33-.65-.35-.7L0,18l-.87,1.65S-1,20-1.21,20.34ZM1.39,20c.15-.29.24-.48.24-.49l1-1.86L1.39,15.34.17,17.66l1,1.85S1.24,19.72,1.39,20Zm.18.33A12.32,12.32,0,0,0,2.78,22.2,13.74,13.74,0,0,0,4,20.34c-.2-.38-.33-.65-.35-.7L2.78,18l-.87,1.65S1.77,20,1.57,20.34ZM4.17,10,3,12.36l1.22,2.32,1.21-2.32Zm0-5.33-.25.49L3,7.05,4.17,9.37,5.38,7.05l-1-1.84S4.32,5,4.17,4.71ZM3,2.27A14.12,14.12,0,0,1,4.17,4.05,14,14,0,0,1,5.35,2.27,6.14,6.14,0,0,0,4.17,1.16,5.91,5.91,0,0,0,3,2.27ZM1.68,1a7.16,7.16,0,0,1,1.1,1,6.73,6.73,0,0,1,1.1-1A2.22,2.22,0,0,0,2.78.66,2.22,2.22,0,0,0,1.68,1ZM.23,2.24A12.3,12.3,0,0,1,1.4,4,12.29,12.29,0,0,1,2.58,2.27,6.18,6.18,0,0,0,1.39,1.16,5.86,5.86,0,0,0,.23,2.24ZM-1.07,1A6.66,6.66,0,0,1,0,2,6.76,6.76,0,0,1,1.1,1,2.22,2.22,0,0,0,0,.66,2.3,2.3,0,0,0-1.07,1Zm-.3.18A6.09,6.09,0,0,0-2.58,2.27,13.11,13.11,0,0,1-1.39,4.05,13.56,13.56,0,0,1-.18,2.24,5.58,5.58,0,0,0-1.37,1.14ZM-3.88,1a6.73,6.73,0,0,1,1.1,1A6.91,6.91,0,0,1-1.66,1,2.39,2.39,0,0,0-2.78.66,2.27,2.27,0,0,0-3.88,1Zm-.29,3.07A13.11,13.11,0,0,1-3,2.27,6.56,6.56,0,0,0-4.17,1.15l-.45.31a3.87,3.87,0,0,0-.74.8A13.16,13.16,0,0,1-4.17,4.05Zm0,5.32,1.22-2.32-1-1.84a4.74,4.74,0,0,0-.25-.5c-.15.29-.24.48-.24.49l-1,1.85Zm0,5.31,1.22-2.32L-4.17,10l-1.21,2.32Zm0,5.33.25-.49,1-1.86-1.22-2.32-1.21,2.32,1,1.85S-4.32,19.72-4.17,20ZM-3,22.45a13.11,13.11,0,0,1-1.19-1.78,14,14,0,0,1-1.2,1.8,3.36,3.36,0,0,0,1.11,1.16A6.15,6.15,0,0,0-3,22.45Zm1.3,1.29a6.77,6.77,0,0,1-1.1-1,6.71,6.71,0,0,1-1.17,1.1,3,3,0,0,0,1.16.27A2.4,2.4,0,0,0-1.68,23.74ZM-.2,22.45a13.11,13.11,0,0,1-1.19-1.78,13.11,13.11,0,0,1-1.19,1.78,6.18,6.18,0,0,0,1.19,1.11A6.49,6.49,0,0,0-.2,22.45Zm1.3,1.29a6.77,6.77,0,0,1-1.1-1,6.77,6.77,0,0,1-1.1,1,2.33,2.33,0,0,0,1.1.32A2.33,2.33,0,0,0,1.1,23.74Zm1.48-1.29a13.11,13.11,0,0,1-1.19-1.78A13.11,13.11,0,0,1,.2,22.45a6.18,6.18,0,0,0,1.19,1.11A6.18,6.18,0,0,0,2.58,22.45Zm1.3,1.29a6.39,6.39,0,0,1-1.1-1,6.77,6.77,0,0,1-1.1,1,2.33,2.33,0,0,0,1.1.32A2.33,2.33,0,0,0,3.88,23.74Zm1.47-1.29a14,14,0,0,1-1.18-1.78A13.11,13.11,0,0,1,3,22.45a5.91,5.91,0,0,0,1.19,1.11A6.14,6.14,0,0,0,5.35,22.45Z"/></pattern><pattern id="Thick-Green-Vertical-wBG" data-name="Thick-Green-Vertical-wBG" width="36.88" height="36.88" patternTransform="translate(-48.12 -24.43) scale(2)" patternUnits="userSpaceOnUse" viewBox="0 0 36.88 36.88"><rect class="cls-1" width="36.88" height="36.88"/><rect class="cls-4" width="36.88" height="36.88"/><g class="cls-14"><rect class="cls-5" x="-0.38" width="0.75" height="36.88"/><rect class="cls-5" x="1.79" width="0.75" height="36.88"/><rect class="cls-5" x="3.96" width="0.75" height="36.88"/><rect class="cls-5" x="6.13" width="0.75" height="36.88"/><rect class="cls-5" x="8.3" width="0.75" height="36.88"/><rect class="cls-5" x="10.47" width="0.75" height="36.88"/><rect class="cls-5" x="12.64" width="0.75" height="36.88"/><rect class="cls-5" x="14.81" width="0.75" height="36.88"/><rect class="cls-5" x="16.98" width="0.75" height="36.88"/><rect class="cls-5" x="19.15" width="0.75" height="36.88"/><rect class="cls-5" x="21.32" width="0.75" height="36.88"/><rect class="cls-5" x="23.49" width="0.75" height="36.88"/><rect class="cls-5" x="25.66" width="0.75" height="36.88"/><rect class="cls-5" x="27.82" width="0.75" height="36.88"/><rect class="cls-5" x="29.99" width="0.75" height="36.88"/><rect class="cls-5" x="32.16" width="0.75" height="36.88"/><rect class="cls-5" x="34.33" width="0.75" height="36.88"/><rect class="cls-5" x="36.5" width="0.75" height="36.88"/></g></pattern><pattern id="Thin-Grey-Horizontal" data-name="Thin-Grey-Horizontal" width="36.88" height="36.88" patternTransform="translate(-48.11 17.87) scale(2)" patternUnits="userSpaceOnUse" viewBox="0 0 36.88 36.88"><rect class="cls-1" width="36.88" height="36.88"/><rect class="cls-15" y="36.38" width="36.88" height="0.5"/><rect class="cls-15" y="-0.5" width="36.88" height="0.5"/><rect class="cls-15" y="1.67" width="36.88" height="0.5"/><rect class="cls-15" y="3.84" width="36.88" height="0.5"/><rect class="cls-15" y="6.01" width="36.88" height="0.5"/><rect class="cls-15" y="8.18" width="36.88" height="0.5"/><rect class="cls-15" y="10.35" width="36.88" height="0.5"/><rect class="cls-15" y="12.52" width="36.88" height="0.5"/><rect class="cls-15" y="14.68" width="36.88" height="0.5"/><rect class="cls-15" y="16.85" width="36.88" height="0.5"/><rect class="cls-15" y="19.02" width="36.88" height="0.5"/><rect class="cls-15" y="21.19" width="36.88" height="0.5"/><rect class="cls-15" y="23.36" width="36.88" height="0.5"/><rect class="cls-15" y="25.53" width="36.88" height="0.5"/><rect class="cls-15" y="27.7" width="36.88" height="0.5"/><rect class="cls-15" y="29.87" width="36.88" height="0.5"/><rect class="cls-15" y="32.04" width="36.88" height="0.5"/><rect class="cls-15" y="34.21" width="36.88" height="0.5"/><rect class="cls-15" y="36.38" width="36.88" height="0.5"/></pattern><pattern id="Thick-Green-Vertical-wBG-5" data-name="Thick-Green-Vertical-wBG" width="36.88" height="36.88" patternTransform="translate(-93.19 45.17) scale(3.77)" patternUnits="userSpaceOnUse" viewBox="0 0 36.88 36.88"><rect class="cls-1" width="36.88" height="36.88"/><rect class="cls-4" width="36.88" height="36.88"/><g class="cls-14"><rect class="cls-5" x="-0.38" width="0.75" height="36.88"/><rect class="cls-5" x="1.79" width="0.75" height="36.88"/><rect class="cls-5" x="3.96" width="0.75" height="36.88"/><rect class="cls-5" x="6.13" width="0.75" height="36.88"/><rect class="cls-5" x="8.3" width="0.75" height="36.88"/><rect class="cls-5" x="10.47" width="0.75" height="36.88"/><rect class="cls-5" x="12.64" width="0.75" height="36.88"/><rect class="cls-5" x="14.81" width="0.75" height="36.88"/><rect class="cls-5" x="16.98" width="0.75" height="36.88"/><rect class="cls-5" x="19.15" width="0.75" height="36.88"/><rect class="cls-5" x="21.32" width="0.75" height="36.88"/><rect class="cls-5" x="23.49" width="0.75" height="36.88"/><rect class="cls-5" x="25.66" width="0.75" height="36.88"/><rect class="cls-5" x="27.82" width="0.75" height="36.88"/><rect class="cls-5" x="29.99" width="0.75" height="36.88"/><rect class="cls-5" x="32.16" width="0.75" height="36.88"/><rect class="cls-5" x="34.33" width="0.75" height="36.88"/><rect class="cls-5" x="36.5" width="0.75" height="36.88"/></g></pattern><pattern id="Thick-Green-Vertical-wBG-7" data-name="Thick-Green-Vertical-wBG" width="36.88" height="36.88" patternTransform="translate(-93.19 -34.49) scale(3.77)" patternUnits="userSpaceOnUse" viewBox="0 0 36.88 36.88"><rect class="cls-1" width="36.88" height="36.88"/><rect class="cls-4" width="36.88" height="36.88"/><g class="cls-14"><rect class="cls-5" x="-0.38" width="0.75" height="36.88"/><rect class="cls-5" x="1.79" width="0.75" height="36.88"/><rect class="cls-5" x="3.96" width="0.75" height="36.88"/><rect class="cls-5" x="6.13" width="0.75" height="36.88"/><rect class="cls-5" x="8.3" width="0.75" height="36.88"/><rect class="cls-5" x="10.47" width="0.75" height="36.88"/><rect class="cls-5" x="12.64" width="0.75" height="36.88"/><rect class="cls-5" x="14.81" width="0.75" height="36.88"/><rect class="cls-5" x="16.98" width="0.75" height="36.88"/><rect class="cls-5" x="19.15" width="0.75" height="36.88"/><rect class="cls-5" x="21.32" width="0.75" height="36.88"/><rect class="cls-5" x="23.49" width="0.75" height="36.88"/><rect class="cls-5" x="25.66" width="0.75" height="36.88"/><rect class="cls-5" x="27.82" width="0.75" height="36.88"/><rect class="cls-5" x="29.99" width="0.75" height="36.88"/><rect class="cls-5" x="32.16" width="0.75" height="36.88"/><rect class="cls-5" x="34.33" width="0.75" height="36.88"/><rect class="cls-5" x="36.5" width="0.75" height="36.88"/></g></pattern><pattern id="Orange-Aztec" data-name="Orange-Aztec" width="332.66" height="350.43" patternTransform="translate(-94.16 -41.4) scale(2.18)" patternUnits="userSpaceOnUse" viewBox="0 0 332.66 350.43"><rect class="cls-1" width="332.66" height="350.43"/><rect class="cls-6" width="332.66" height="350.43"/><g class="cls-7"><polygon class="cls-8" points="247.68 445.91 246.97 445.2 464.84 227.34 465.55 228.04 247.68 445.91"/><polygon class="cls-8" points="246.17 444.4 245.46 443.69 463.33 225.83 464.04 226.53 246.17 444.4"/><polygon class="cls-8" points="244.66 442.89 243.95 442.18 461.82 224.31 462.53 225.02 244.66 442.89"/><polygon class="cls-8" points="243.15 441.38 242.44 440.67 460.31 222.81 461.02 223.51 243.15 441.38"/><polygon class="cls-8" points="241.64 439.87 240.94 439.16 458.8 221.3 459.51 222 241.64 439.87"/><polygon class="cls-8" points="240.13 438.36 239.42 437.65 457.29 219.78 458 220.49 240.13 438.36"/><polygon class="cls-8" points="238.62 436.85 237.91 436.14 455.78 218.28 456.49 218.98 238.62 436.85"/><polygon class="cls-8" points="237.11 435.34 236.41 434.63 454.27 216.77 454.98 217.47 237.11 435.34"/><polygon class="cls-8" points="235.6 433.83 234.9 433.13 452.76 215.26 453.47 215.96 235.6 433.83"/><polygon class="cls-8" points="234.09 432.32 233.38 431.61 451.25 213.75 451.96 214.45 234.09 432.32"/><polygon class="cls-8" points="232.58 430.81 231.88 430.1 449.74 212.24 450.45 212.94 232.58 430.81"/><polygon class="cls-8" points="231.07 429.3 230.37 428.6 448.23 210.73 448.94 211.43 231.07 429.3"/><polygon class="cls-8" points="229.56 427.79 228.86 427.08 446.72 209.22 447.43 209.92 229.56 427.79"/><polygon class="cls-8" points="228.05 426.28 227.35 425.58 445.21 207.71 445.92 208.41 228.05 426.28"/><polygon class="cls-8" points="226.54 424.77 225.84 424.07 443.7 206.2 444.41 206.9 226.54 424.77"/><polygon class="cls-8" points="225.03 423.26 224.33 422.56 442.19 204.69 442.9 205.39 225.03 423.26"/><polygon class="cls-8" points="223.52 421.75 222.82 421.05 440.69 203.18 441.39 203.88 223.52 421.75"/><polygon class="cls-8" points="222.01 420.24 221.31 419.54 439.17 201.67 439.88 202.37 222.01 420.24"/><polygon class="cls-8" points="220.5 418.73 219.8 418.03 437.67 200.16 438.37 200.86 220.5 418.73"/><polygon class="cls-8" points="218.99 417.22 218.29 416.52 436.15 198.65 436.86 199.35 218.99 417.22"/><polygon class="cls-8" points="217.48 415.71 216.78 415.01 434.64 197.14 435.35 197.84 217.48 415.71"/><polygon class="cls-8" points="215.97 414.2 215.27 413.5 433.13 195.63 433.84 196.33 215.97 414.2"/><polygon class="cls-8" points="214.46 412.69 213.76 411.99 431.63 194.12 432.33 194.82 214.46 412.69"/><polygon class="cls-8" points="212.95 411.18 212.25 410.48 430.12 192.61 430.82 193.31 212.95 411.18"/><polygon class="cls-8" points="211.44 409.67 210.74 408.97 428.61 191.1 429.31 191.8 211.44 409.67"/><polygon class="cls-8" points="209.93 408.16 209.23 407.46 427.1 189.59 427.8 190.29 209.93 408.16"/><polygon class="cls-8" points="208.42 406.65 207.72 405.95 425.59 188.08 426.29 188.78 208.42 406.65"/><polygon class="cls-8" points="206.91 405.14 206.21 404.44 424.08 186.57 424.78 187.27 206.91 405.14"/><polygon class="cls-8" points="205.4 403.63 204.7 402.93 422.57 185.06 423.27 185.76 205.4 403.63"/><polygon class="cls-8" points="203.89 402.12 203.19 401.42 421.06 183.55 421.76 184.25 203.89 402.12"/><polygon class="cls-8" points="202.38 400.61 201.68 399.91 419.55 182.04 420.25 182.75 202.38 400.61"/><polygon class="cls-8" points="200.87 399.1 200.17 398.4 418.04 180.53 418.74 181.24 200.87 399.1"/><polygon class="cls-8" points="199.36 397.59 198.66 396.89 416.53 179.02 417.23 179.73 199.36 397.59"/><polygon class="cls-8" points="197.85 396.08 197.15 395.38 415.02 177.51 415.72 178.22 197.85 396.08"/><polygon class="cls-8" points="196.34 394.57 195.64 393.87 413.51 176 414.21 176.71 196.34 394.57"/><polygon class="cls-8" points="194.84 393.06 194.13 392.36 412 174.49 412.7 175.2 194.84 393.06"/><polygon class="cls-8" points="193.32 391.55 192.62 390.85 410.49 172.98 411.19 173.69 193.32 391.55"/><polygon class="cls-8" points="191.81 390.04 191.11 389.34 408.98 171.47 409.68 172.18 191.81 390.04"/><polygon class="cls-8" points="190.31 388.53 189.6 387.83 407.47 169.96 408.17 170.67 190.31 388.53"/><polygon class="cls-8" points="188.79 387.02 188.09 386.32 405.96 168.45 406.66 169.16 188.79 387.02"/><polygon class="cls-8" points="187.28 385.51 186.58 384.81 404.45 166.94 405.15 167.65 187.28 385.51"/><polygon class="cls-8" points="185.78 384 185.07 383.3 402.94 165.43 403.64 166.14 185.78 384"/><polygon class="cls-8" points="184.27 382.5 183.56 381.79 401.43 163.92 402.13 164.63 184.27 382.5"/><polygon class="cls-8" points="182.75 380.98 182.05 380.28 399.92 162.41 400.62 163.12 182.75 380.98"/><polygon class="cls-8" points="181.25 379.48 180.54 378.77 398.41 160.9 399.11 161.61 181.25 379.48"/><polygon class="cls-8" points="179.74 377.96 179.03 377.26 396.9 159.39 397.6 160.1 179.74 377.96"/><polygon class="cls-8" points="178.23 376.45 177.52 375.75 395.39 157.88 396.09 158.59 178.23 376.45"/><polygon class="cls-8" points="176.72 374.95 176.01 374.24 393.88 156.37 394.58 157.08 176.72 374.95"/><polygon class="cls-8" points="175.21 373.44 174.5 372.73 392.37 154.86 393.07 155.57 175.21 373.44"/><polygon class="cls-8" points="173.7 371.93 172.99 371.22 390.86 153.35 391.56 154.06 173.7 371.93"/><polygon class="cls-8" points="172.19 370.42 171.48 369.71 389.35 151.84 390.06 152.55 172.19 370.42"/><polygon class="cls-8" points="170.68 368.91 169.97 368.2 387.84 150.33 388.55 151.04 170.68 368.91"/><polygon class="cls-8" points="169.17 367.4 168.46 366.69 386.33 148.82 387.04 149.53 169.17 367.4"/><polygon class="cls-8" points="167.66 365.89 166.95 365.18 384.82 147.31 385.53 148.02 167.66 365.89"/><polygon class="cls-8" points="166.15 364.38 165.44 363.67 383.31 145.8 384.02 146.51 166.15 364.38"/><polygon class="cls-8" points="164.64 362.87 163.93 362.16 381.8 144.29 382.5 145 164.64 362.87"/><polygon class="cls-8" points="163.13 361.36 162.42 360.65 380.29 142.78 381 143.49 163.13 361.36"/><polygon class="cls-8" points="161.62 359.85 160.91 359.14 378.78 141.27 379.49 141.98 161.62 359.85"/><polygon class="cls-8" points="160.11 358.34 159.4 357.63 377.27 139.76 377.98 140.47 160.11 358.34"/><polygon class="cls-8" points="158.6 356.83 157.89 356.12 375.76 138.25 376.47 138.96 158.6 356.83"/><polygon class="cls-8" points="157.09 355.32 156.38 354.61 374.25 136.74 374.96 137.45 157.09 355.32"/><polygon class="cls-8" points="155.58 353.81 154.87 353.1 372.74 135.23 373.45 135.94 155.58 353.81"/><polygon class="cls-8" points="154.07 352.3 153.36 351.59 371.23 133.72 371.94 134.43 154.07 352.3"/><polygon class="cls-8" points="152.56 350.79 151.85 350.08 369.72 132.22 370.43 132.92 152.56 350.79"/><polygon class="cls-8" points="151.05 349.28 150.34 348.57 368.21 130.71 368.92 131.41 151.05 349.28"/><polygon class="cls-8" points="149.54 347.77 148.83 347.06 366.7 129.19 367.41 129.9 149.54 347.77"/><polygon class="cls-8" points="148.03 346.26 147.32 345.55 365.19 127.69 365.9 128.39 148.03 346.26"/><polygon class="cls-8" points="146.52 344.75 145.81 344.04 363.68 126.17 364.39 126.88 146.52 344.75"/><polygon class="cls-8" points="145.01 343.24 144.31 342.53 362.17 124.67 362.88 125.37 145.01 343.24"/><polygon class="cls-8" points="143.5 341.73 142.79 341.02 360.66 123.16 361.37 123.86 143.5 341.73"/><polygon class="cls-8" points="141.99 340.22 141.28 339.51 359.15 121.65 359.86 122.35 141.99 340.22"/><polygon class="cls-8" points="140.48 338.71 139.78 338 357.64 120.14 358.35 120.84 140.48 338.71"/><polygon class="cls-8" points="138.97 337.2 138.26 336.5 356.13 118.63 356.84 119.33 138.97 337.2"/><polygon class="cls-8" points="137.46 335.69 136.76 334.98 354.62 117.12 355.33 117.82 137.46 335.69"/><polygon class="cls-8" points="135.95 334.18 135.25 333.48 353.11 115.61 353.82 116.31 135.95 334.18"/><polygon class="cls-8" points="134.44 332.67 133.74 331.96 351.6 114.1 352.31 114.8 134.44 332.67"/><polygon class="cls-8" points="132.93 331.16 132.23 330.45 350.09 112.59 350.8 113.29 132.93 331.16"/><polygon class="cls-8" points="131.42 329.65 130.72 328.94 348.58 111.08 349.29 111.78 131.42 329.65"/><polygon class="cls-8" points="129.91 328.14 129.21 327.44 347.07 109.57 347.78 110.27 129.91 328.14"/><polygon class="cls-8" points="128.4 326.63 127.7 325.93 345.56 108.06 346.27 108.76 128.4 326.63"/><polygon class="cls-8" points="126.89 325.12 126.19 324.42 344.05 106.55 344.76 107.25 126.89 325.12"/><polygon class="cls-8" points="125.38 323.61 124.68 322.91 342.55 105.04 343.25 105.74 125.38 323.61"/><polygon class="cls-8" points="123.87 322.1 123.17 321.4 341.03 103.53 341.74 104.23 123.87 322.1"/><polygon class="cls-8" points="122.36 320.59 121.66 319.89 339.52 102.02 340.23 102.72 122.36 320.59"/><polygon class="cls-8" points="120.85 319.08 120.15 318.38 338.01 100.51 338.72 101.21 120.85 319.08"/><polygon class="cls-8" points="119.34 317.57 118.64 316.87 336.51 99 337.21 99.7 119.34 317.57"/><polygon class="cls-8" points="117.83 316.06 117.13 315.36 335 97.49 335.7 98.19 117.83 316.06"/><polygon class="cls-8" points="116.32 314.55 115.62 313.85 333.49 95.98 334.19 96.68 116.32 314.55"/><polygon class="cls-8" points="114.81 313.04 114.11 312.34 331.98 94.47 332.68 95.17 114.81 313.04"/><polygon class="cls-8" points="113.3 311.53 112.6 310.83 330.46 92.96 331.17 93.66 113.3 311.53"/><polygon class="cls-8" points="111.79 310.02 111.09 309.32 328.96 91.45 329.66 92.16 111.79 310.02"/><polygon class="cls-8" points="110.28 308.51 109.58 307.81 327.45 89.94 328.15 90.64 110.28 308.51"/><polygon class="cls-8" points="108.77 307 108.07 306.3 325.94 88.43 326.64 89.13 108.77 307"/><polygon class="cls-8" points="107.26 305.49 106.56 304.79 324.43 86.92 325.13 87.63 107.26 305.49"/><polygon class="cls-8" points="105.75 303.98 105.05 303.28 322.92 85.41 323.62 86.11 105.75 303.98"/><polygon class="cls-8" points="104.24 302.47 103.54 301.77 321.41 83.9 322.11 84.61 104.24 302.47"/><polygon class="cls-8" points="102.73 300.96 102.03 300.26 319.9 82.39 320.6 83.09 102.73 300.96"/><polygon class="cls-8" points="101.22 299.45 100.52 298.75 318.39 80.88 319.09 81.59 101.22 299.45"/><polygon class="cls-8" points="99.71 297.94 99.01 297.24 316.88 79.37 317.58 80.08 99.71 297.94"/><polygon class="cls-8" points="98.2 296.43 97.5 295.73 315.37 77.86 316.07 78.57 98.2 296.43"/><polygon class="cls-8" points="96.69 294.92 95.99 294.22 313.86 76.35 314.56 77.06 96.69 294.92"/><polygon class="cls-8" points="95.18 293.41 94.48 292.71 312.35 74.84 313.05 75.55 95.18 293.41"/><polygon class="cls-8" points="93.67 291.9 92.97 291.2 310.84 73.33 311.54 74.04 93.67 291.9"/><polygon class="cls-8" points="92.17 290.39 91.46 289.69 309.33 71.82 310.03 72.53 92.17 290.39"/><polygon class="cls-8" points="90.66 288.88 89.95 288.18 307.82 70.31 308.52 71.02 90.66 288.88"/><polygon class="cls-8" points="89.14 287.38 88.44 286.67 306.31 68.8 307.01 69.51 89.14 287.38"/><polygon class="cls-8" points="87.64 285.87 86.93 285.16 304.8 67.29 305.5 68 87.64 285.87"/><polygon class="cls-8" points="86.13 284.36 85.42 283.65 303.29 65.78 303.99 66.49 86.13 284.36"/><polygon class="cls-8" points="84.62 282.85 83.91 282.14 301.78 64.27 302.48 64.98 84.62 282.85"/><polygon class="cls-8" points="83.11 281.34 82.4 280.63 300.27 62.76 300.98 63.47 83.11 281.34"/><polygon class="cls-8" points="81.6 279.83 80.89 279.12 298.76 61.25 299.46 61.96 81.6 279.83"/><polygon class="cls-8" points="80.09 278.32 79.38 277.61 297.25 59.74 297.95 60.45 80.09 278.32"/><polygon class="cls-8" points="78.58 276.81 77.87 276.1 295.74 58.23 296.44 58.94 78.58 276.81"/><polygon class="cls-8" points="77.07 275.3 76.36 274.59 294.23 56.72 294.93 57.43 77.07 275.3"/></g><g class="cls-9"><rect class="cls-8" x="47.55" y="371.77" width="308.11" height="1"/><rect class="cls-8" x="47.55" y="369.63" width="308.11" height="1"/><rect class="cls-8" x="47.55" y="367.49" width="308.11" height="1"/><rect class="cls-8" x="47.55" y="365.36" width="308.11" height="1"/><rect class="cls-8" x="47.55" y="363.22" width="308.11" height="1"/><rect class="cls-8" x="47.55" y="361.09" width="308.11" height="1"/><rect class="cls-8" x="47.55" y="358.95" width="308.11" height="1"/><rect class="cls-8" x="47.55" y="356.82" width="308.11" height="1"/><rect class="cls-8" x="47.55" y="354.68" width="308.11" height="1"/><rect class="cls-8" x="47.55" y="352.55" width="308.11" height="1"/><rect class="cls-8" x="47.55" y="350.41" width="308.11" height="1"/><rect class="cls-8" x="47.55" y="348.28" width="308.11" height="1"/><rect class="cls-8" x="47.55" y="346.14" width="308.11" height="1"/><rect class="cls-8" x="47.55" y="344.01" width="308.11" height="1"/><rect class="cls-8" x="47.55" y="341.87" width="308.11" height="1"/><rect class="cls-8" x="47.55" y="339.74" width="308.11" height="1"/><rect class="cls-8" x="47.55" y="337.6" width="308.11" height="1"/><rect class="cls-8" x="47.55" y="335.47" width="308.11" height="1"/><rect class="cls-8" x="47.55" y="333.33" width="308.11" height="1"/><rect class="cls-8" x="47.55" y="331.19" width="308.11" height="1"/><rect class="cls-8" x="47.55" y="329.06" width="308.11" height="1"/><rect class="cls-8" x="47.55" y="326.92" width="308.11" height="1"/><rect class="cls-8" x="47.55" y="324.79" width="308.11" height="1"/><rect class="cls-8" x="47.55" y="322.65" width="308.11" height="1"/><rect class="cls-8" x="47.55" y="320.52" width="308.11" height="1"/><rect class="cls-8" x="47.55" y="318.38" width="308.11" height="1"/><rect class="cls-8" x="47.55" y="316.25" width="308.11" height="1"/><rect class="cls-8" x="47.55" y="314.11" width="308.11" height="1"/><rect class="cls-8" x="47.55" y="311.98" width="308.11" height="1"/><rect class="cls-8" x="47.55" y="309.84" width="308.11" height="1"/><rect class="cls-8" x="47.55" y="307.71" width="308.11" height="1"/><rect class="cls-8" x="47.55" y="305.57" width="308.11" height="1"/><rect class="cls-8" x="47.55" y="303.44" width="308.11" height="1"/><rect class="cls-8" x="47.55" y="301.3" width="308.11" height="1"/><rect class="cls-8" x="47.55" y="299.17" width="308.11" height="1"/><rect class="cls-8" x="47.55" y="297.03" width="308.11" height="1"/><rect class="cls-8" x="47.55" y="294.9" width="308.11" height="1"/><rect class="cls-8" x="47.55" y="292.76" width="308.11" height="1"/><rect class="cls-8" x="47.55" y="290.63" width="308.11" height="1"/><rect class="cls-8" x="47.55" y="288.49" width="308.11" height="1"/><rect class="cls-8" x="47.55" y="286.36" width="308.11" height="1"/><rect class="cls-8" x="47.55" y="284.22" width="308.11" height="1"/><rect class="cls-8" x="47.55" y="282.08" width="308.11" height="1"/><rect class="cls-8" x="47.55" y="279.95" width="308.11" height="1"/><rect class="cls-8" x="47.55" y="277.81" width="308.11" height="1"/><rect class="cls-8" x="47.55" y="275.68" width="308.11" height="1"/><rect class="cls-8" x="47.55" y="273.54" width="308.11" height="1"/><rect class="cls-8" x="47.55" y="271.41" width="308.11" height="1"/><rect class="cls-8" x="47.55" y="269.27" width="308.11" height="1"/><rect class="cls-8" x="47.55" y="267.14" width="308.11" height="1"/><rect class="cls-8" x="47.55" y="265" width="308.11" height="1"/><rect class="cls-8" x="47.55" y="262.87" width="308.11" height="1"/><rect class="cls-8" x="47.55" y="260.73" width="308.11" height="1"/><rect class="cls-8" x="47.55" y="258.6" width="308.11" height="1"/><rect class="cls-8" x="47.55" y="256.46" width="308.11" height="1"/><rect class="cls-8" x="47.55" y="254.33" width="308.11" height="1"/><rect class="cls-8" x="47.55" y="252.19" width="308.11" height="1"/><rect class="cls-8" x="47.55" y="250.06" width="308.11" height="1"/><rect class="cls-8" x="47.55" y="247.92" width="308.11" height="1"/><rect class="cls-8" x="47.55" y="245.79" width="308.11" height="1"/><rect class="cls-8" x="47.55" y="243.65" width="308.11" height="1"/><rect class="cls-8" x="47.55" y="241.52" width="308.11" height="1"/><rect class="cls-8" x="47.55" y="239.38" width="308.11" height="1"/><rect class="cls-8" x="47.55" y="237.24" width="308.11" height="1"/><rect class="cls-8" x="47.55" y="235.11" width="308.11" height="1"/><rect class="cls-8" x="47.55" y="232.97" width="308.11" height="1"/><rect class="cls-8" x="47.55" y="230.84" width="308.11" height="1"/><rect class="cls-8" x="47.55" y="228.7" width="308.11" height="1"/><rect class="cls-8" x="47.55" y="226.57" width="308.11" height="1"/><rect class="cls-8" x="47.55" y="224.43" width="308.11" height="1"/><rect class="cls-8" x="47.55" y="222.3" width="308.11" height="1"/><rect class="cls-8" x="47.55" y="220.16" width="308.11" height="1"/><rect class="cls-8" x="47.55" y="218.03" width="308.11" height="1"/><rect class="cls-8" x="47.55" y="215.89" width="308.11" height="1"/><rect class="cls-8" x="47.55" y="213.76" width="308.11" height="1"/><rect class="cls-8" x="47.55" y="211.62" width="308.11" height="1"/><rect class="cls-8" x="47.55" y="209.49" width="308.11" height="1"/><rect class="cls-8" x="47.55" y="207.35" width="308.11" height="1"/><rect class="cls-8" x="47.55" y="205.22" width="308.11" height="1"/><rect class="cls-8" x="47.55" y="203.08" width="308.11" height="1"/><rect class="cls-8" x="47.55" y="200.95" width="308.11" height="1"/><rect class="cls-8" x="47.55" y="198.81" width="308.11" height="1"/><rect class="cls-8" x="47.55" y="196.68" width="308.11" height="1"/><rect class="cls-8" x="47.55" y="194.54" width="308.11" height="1"/><rect class="cls-8" x="47.55" y="192.4" width="308.11" height="1"/><rect class="cls-8" x="47.55" y="190.27" width="308.11" height="1"/><rect class="cls-8" x="47.55" y="188.13" width="308.11" height="1"/><rect class="cls-8" x="47.55" y="186" width="308.11" height="1"/><rect class="cls-8" x="47.55" y="183.86" width="308.11" height="1"/><rect class="cls-8" x="47.55" y="181.73" width="308.11" height="1"/><rect class="cls-8" x="47.55" y="179.59" width="308.11" height="1"/><rect class="cls-8" x="47.55" y="177.46" width="308.11" height="1"/><rect class="cls-8" x="47.55" y="175.32" width="308.11" height="1"/><rect class="cls-8" x="47.55" y="173.19" width="308.11" height="1"/><rect class="cls-8" x="47.55" y="171.05" width="308.11" height="1"/><rect class="cls-8" x="47.55" y="168.92" width="308.11" height="1"/><rect class="cls-8" x="47.55" y="166.78" width="308.11" height="1"/><rect class="cls-8" x="47.55" y="164.65" width="308.11" height="1"/><rect class="cls-8" x="47.55" y="162.51" width="308.11" height="1"/><rect class="cls-8" x="47.55" y="160.38" width="308.11" height="1"/><rect class="cls-8" x="47.55" y="158.24" width="308.11" height="1"/><rect class="cls-8" x="47.55" y="156.11" width="308.11" height="1"/><rect class="cls-8" x="47.55" y="153.97" width="308.11" height="1"/><rect class="cls-8" x="47.55" y="151.83" width="308.11" height="1"/><rect class="cls-8" x="47.55" y="149.7" width="308.11" height="1"/><rect class="cls-8" x="47.55" y="147.56" width="308.11" height="1"/><rect class="cls-8" x="47.55" y="145.43" width="308.11" height="1"/><rect class="cls-8" x="47.55" y="143.29" width="308.11" height="1"/><rect class="cls-8" x="47.55" y="141.16" width="308.11" height="1"/><rect class="cls-8" x="47.55" y="139.02" width="308.11" height="1"/><rect class="cls-8" x="47.55" y="136.89" width="308.11" height="1"/><rect class="cls-8" x="47.55" y="134.75" width="308.11" height="1"/><rect class="cls-8" x="47.55" y="132.62" width="308.11" height="1"/><rect class="cls-8" x="47.55" y="130.48" width="308.11" height="1"/></g><g class="cls-10"><rect class="cls-8" x="195.1" y="91.99" width="1" height="308.11"/><rect class="cls-8" x="192.96" y="91.99" width="1" height="308.11"/><rect class="cls-8" x="190.83" y="91.99" width="1" height="308.11"/><rect class="cls-8" x="188.69" y="91.99" width="1" height="308.11"/><rect class="cls-8" x="186.56" y="91.99" width="1" height="308.11"/><rect class="cls-8" x="184.42" y="91.99" width="1" height="308.11"/><rect class="cls-8" x="182.29" y="91.99" width="1" height="308.11"/><rect class="cls-8" x="180.15" y="91.99" width="1" height="308.11"/><rect class="cls-8" x="178.02" y="91.99" width="1" height="308.11"/><rect class="cls-8" x="175.88" y="91.99" width="1" height="308.11"/><rect class="cls-8" x="173.75" y="91.99" width="1" height="308.11"/><rect class="cls-8" x="171.61" y="91.99" width="1" height="308.11"/><rect class="cls-8" x="169.48" y="91.99" width="1" height="308.11"/><rect class="cls-8" x="167.34" y="91.99" width="1" height="308.11"/><rect class="cls-8" x="165.21" y="91.99" width="1" height="308.11"/><rect class="cls-8" x="163.07" y="91.99" width="1" height="308.11"/><rect class="cls-8" x="160.94" y="91.99" width="1" height="308.11"/><rect class="cls-8" x="158.8" y="91.99" width="1" height="308.11"/><rect class="cls-8" x="156.66" y="91.99" width="1" height="308.11"/><rect class="cls-8" x="154.53" y="91.99" width="1" height="308.11"/><rect class="cls-8" x="152.39" y="91.99" width="1" height="308.11"/><rect class="cls-8" x="150.26" y="91.99" width="1" height="308.11"/><rect class="cls-8" x="148.12" y="91.99" width="1" height="308.11"/><rect class="cls-8" x="145.99" y="91.99" width="1" height="308.11"/><rect class="cls-8" x="143.85" y="91.99" width="1" height="308.11"/><rect class="cls-8" x="141.72" y="91.99" width="1" height="308.11"/><rect class="cls-8" x="139.58" y="91.99" width="1" height="308.11"/><rect class="cls-8" x="137.45" y="91.99" width="1" height="308.11"/><rect class="cls-8" x="135.31" y="91.99" width="1" height="308.11"/><rect class="cls-8" x="133.18" y="91.99" width="1" height="308.11"/><rect class="cls-8" x="131.04" y="91.99" width="1" height="308.11"/><rect class="cls-8" x="128.91" y="91.99" width="1" height="308.11"/><rect class="cls-8" x="126.77" y="91.99" width="1" height="308.11"/><rect class="cls-8" x="124.64" y="91.99" width="1" height="308.11"/><rect class="cls-8" x="122.5" y="91.99" width="1" height="308.11"/><rect class="cls-8" x="120.37" y="91.99" width="1" height="308.11"/><rect class="cls-8" x="118.23" y="91.99" width="1" height="308.11"/><rect class="cls-8" x="116.1" y="91.99" width="1" height="308.11"/><rect class="cls-8" x="113.96" y="91.99" width="1" height="308.11"/><rect class="cls-8" x="111.82" y="91.99" width="1" height="308.11"/><rect class="cls-8" x="109.69" y="91.99" width="1" height="308.11"/><rect class="cls-8" x="107.55" y="91.99" width="1" height="308.11"/><rect class="cls-8" x="105.42" y="91.99" width="1" height="308.11"/><rect class="cls-8" x="103.28" y="91.99" width="1" height="308.11"/><rect class="cls-8" x="101.15" y="91.99" width="1" height="308.11"/><rect class="cls-8" x="99.01" y="91.99" width="1" height="308.11"/><rect class="cls-8" x="96.88" y="91.99" width="1" height="308.11"/><rect class="cls-8" x="94.74" y="91.99" width="1" height="308.11"/><rect class="cls-8" x="92.61" y="91.99" width="1" height="308.11"/><rect class="cls-8" x="90.47" y="91.99" width="1" height="308.11"/><rect class="cls-8" x="88.34" y="91.99" width="1" height="308.11"/><rect class="cls-8" x="86.2" y="91.99" width="1" height="308.11"/><rect class="cls-8" x="84.07" y="91.99" width="1" height="308.11"/><rect class="cls-8" x="81.93" y="91.99" width="1" height="308.11"/><rect class="cls-8" x="79.8" y="91.99" width="1" height="308.11"/><rect class="cls-8" x="77.66" y="91.99" width="1" height="308.11"/><rect class="cls-8" x="75.53" y="91.99" width="1" height="308.11"/><rect class="cls-8" x="73.39" y="91.99" width="1" height="308.11"/><rect class="cls-8" x="71.26" y="91.99" width="1" height="308.11"/><rect class="cls-8" x="69.12" y="91.99" width="1" height="308.11"/><rect class="cls-8" x="66.98" y="91.99" width="1" height="308.11"/><rect class="cls-8" x="64.85" y="91.99" width="1" height="308.11"/><rect class="cls-8" x="62.71" y="91.99" width="1" height="308.11"/><rect class="cls-8" x="60.58" y="91.99" width="1" height="308.11"/><rect class="cls-8" x="58.44" y="91.99" width="1" height="308.11"/><rect class="cls-8" x="56.31" y="91.99" width="1" height="308.11"/><rect class="cls-8" x="54.17" y="91.99" width="1" height="308.11"/><rect class="cls-8" x="52.04" y="91.99" width="1" height="308.11"/><rect class="cls-8" x="49.9" y="91.99" width="1" height="308.11"/><rect class="cls-8" x="47.77" y="91.99" width="1" height="308.11"/><rect class="cls-8" x="45.63" y="91.99" width="1" height="308.11"/><rect class="cls-8" x="43.5" y="91.99" width="1" height="308.11"/><rect class="cls-8" x="41.36" y="91.99" width="1" height="308.11"/><rect class="cls-8" x="39.23" y="91.99" width="1" height="308.11"/><rect class="cls-8" x="37.09" y="91.99" width="1" height="308.11"/><rect class="cls-8" x="34.96" y="91.99" width="1" height="308.11"/><rect class="cls-8" x="32.82" y="91.99" width="1" height="308.11"/><rect class="cls-8" x="30.69" y="91.99" width="1" height="308.11"/><rect class="cls-8" x="28.55" y="91.99" width="1" height="308.11"/><rect class="cls-8" x="26.41" y="91.99" width="1" height="308.11"/><rect class="cls-8" x="24.28" y="91.99" width="1" height="308.11"/><rect class="cls-8" x="22.14" y="91.99" width="1" height="308.11"/><rect class="cls-8" x="20.01" y="91.99" width="1" height="308.11"/><rect class="cls-8" x="17.87" y="91.99" width="1" height="308.11"/><rect class="cls-8" x="15.74" y="91.99" width="1" height="308.11"/><rect class="cls-8" x="13.6" y="91.99" width="1" height="308.11"/><rect class="cls-8" x="11.47" y="91.99" width="1" height="308.11"/><rect class="cls-8" x="9.33" y="91.99" width="1" height="308.11"/><rect class="cls-8" x="7.2" y="91.99" width="1" height="308.11"/><rect class="cls-8" x="5.06" y="91.99" width="1" height="308.11"/><rect class="cls-8" x="2.93" y="91.99" width="1" height="308.11"/><rect class="cls-8" x="0.79" y="91.99" width="1" height="308.11"/><rect class="cls-8" x="-1.34" y="91.99" width="1" height="308.11"/><rect class="cls-8" x="-3.48" y="91.99" width="1" height="308.11"/><rect class="cls-8" x="-5.61" y="91.99" width="1" height="308.11"/><rect class="cls-8" x="-7.75" y="91.99" width="1" height="308.11"/><rect class="cls-8" x="-9.88" y="91.99" width="1" height="308.11"/><rect class="cls-8" x="-12.02" y="91.99" width="1" height="308.11"/><rect class="cls-8" x="-14.15" y="91.99" width="1" height="308.11"/><rect class="cls-8" x="-16.29" y="91.99" width="1" height="308.11"/><rect class="cls-8" x="-18.43" y="91.99" width="1" height="308.11"/><rect class="cls-8" x="-20.56" y="91.99" width="1" height="308.11"/><rect class="cls-8" x="-22.7" y="91.99" width="1" height="308.11"/><rect class="cls-8" x="-24.83" y="91.99" width="1" height="308.11"/><rect class="cls-8" x="-26.97" y="91.99" width="1" height="308.11"/><rect class="cls-8" x="-29.1" y="91.99" width="1" height="308.11"/><rect class="cls-8" x="-31.24" y="91.99" width="1" height="308.11"/><rect class="cls-8" x="-33.37" y="91.99" width="1" height="308.11"/><rect class="cls-8" x="-35.51" y="91.99" width="1" height="308.11"/><rect class="cls-8" x="-37.64" y="91.99" width="1" height="308.11"/><rect class="cls-8" x="-39.78" y="91.99" width="1" height="308.11"/><rect class="cls-8" x="-41.91" y="91.99" width="1" height="308.11"/><rect class="cls-8" x="-44.05" y="91.99" width="1" height="308.11"/><rect class="cls-8" x="-46.18" y="91.99" width="1" height="308.11"/></g><g class="cls-11"><polygon class="cls-8" points="-132.18 123.09 -132.89 122.39 84.98 -95.48 85.69 -94.77 -132.18 123.09"/><polygon class="cls-8" points="-130.67 124.61 -131.38 123.9 86.49 -93.97 87.19 -93.26 -130.67 124.61"/><polygon class="cls-8" points="-129.16 126.11 -129.87 125.41 88 -92.46 88.7 -91.75 -129.16 126.11"/><polygon class="cls-8" points="-127.65 127.62 -128.36 126.92 89.51 -90.95 90.22 -90.24 -127.65 127.62"/><polygon class="cls-8" points="-126.14 129.13 -126.85 128.43 91.02 -89.44 91.72 -88.73 -126.14 129.13"/><polygon class="cls-8" points="-124.63 130.64 -125.34 129.94 92.53 -87.93 93.23 -87.22 -124.63 130.64"/><polygon class="cls-8" points="-123.12 132.15 -123.83 131.45 94.04 -86.42 94.74 -85.71 -123.12 132.15"/><polygon class="cls-8" points="-121.61 133.66 -122.32 132.96 95.55 -84.91 96.25 -84.2 -121.61 133.66"/><polygon class="cls-8" points="-120.1 135.17 -120.81 134.47 97.06 -83.4 97.76 -82.69 -120.1 135.17"/><polygon class="cls-8" points="-118.59 136.68 -119.3 135.98 98.57 -81.89 99.27 -81.18 -118.59 136.68"/><polygon class="cls-8" points="-117.08 138.19 -117.79 137.49 100.08 -80.38 100.78 -79.67 -117.08 138.19"/><polygon class="cls-8" points="-115.58 139.7 -116.28 139 101.59 -78.87 102.29 -78.17 -115.58 139.7"/><polygon class="cls-8" points="-114.06 141.21 -114.77 140.51 103.1 -77.36 103.8 -76.66 -114.06 141.21"/><polygon class="cls-8" points="-112.56 142.72 -113.26 142.02 104.61 -75.85 105.31 -75.14 -112.56 142.72"/><polygon class="cls-8" points="-111.05 144.23 -111.75 143.53 106.12 -74.34 106.82 -73.64 -111.05 144.23"/><polygon class="cls-8" points="-109.53 145.74 -110.24 145.04 107.63 -72.83 108.33 -72.13 -109.53 145.74"/><polygon class="cls-8" points="-108.03 147.25 -108.73 146.55 109.14 -71.32 109.84 -70.61 -108.03 147.25"/><polygon class="cls-8" points="-106.52 148.76 -107.22 148.06 110.65 -69.81 111.35 -69.11 -106.52 148.76"/><polygon class="cls-8" points="-105.01 150.27 -105.71 149.57 112.16 -68.3 112.86 -67.6 -105.01 150.27"/><polygon class="cls-8" points="-103.5 151.78 -104.2 151.08 113.67 -66.79 114.37 -66.09 -103.5 151.78"/><polygon class="cls-8" points="-101.99 153.29 -102.69 152.59 115.18 -65.28 115.88 -64.58 -101.99 153.29"/><polygon class="cls-8" points="-100.48 154.8 -101.18 154.1 116.69 -63.77 117.39 -63.07 -100.48 154.8"/><polygon class="cls-8" points="-98.97 156.31 -99.67 155.61 118.2 -62.26 118.9 -61.56 -98.97 156.31"/><polygon class="cls-8" points="-97.46 157.82 -98.16 157.12 119.71 -60.75 120.41 -60.05 -97.46 157.82"/><polygon class="cls-8" points="-95.95 159.33 -96.65 158.63 121.22 -59.24 121.92 -58.54 -95.95 159.33"/><polygon class="cls-8" points="-94.44 160.84 -95.14 160.14 122.73 -57.73 123.43 -57.03 -94.44 160.84"/><polygon class="cls-8" points="-92.93 162.35 -93.63 161.65 124.24 -56.22 124.94 -55.52 -92.93 162.35"/><polygon class="cls-8" points="-91.42 163.86 -92.12 163.16 125.75 -54.71 126.45 -54.01 -91.42 163.86"/><polygon class="cls-8" points="-89.91 165.37 -90.61 164.67 127.26 -53.2 127.96 -52.5 -89.91 165.37"/><polygon class="cls-8" points="-88.4 166.88 -89.1 166.18 128.77 -51.69 129.47 -50.99 -88.4 166.88"/><polygon class="cls-8" points="-86.89 168.39 -87.59 167.69 130.28 -50.18 130.98 -49.48 -86.89 168.39"/><polygon class="cls-8" points="-85.38 169.9 -86.08 169.19 131.79 -48.67 132.49 -47.97 -85.38 169.9"/><polygon class="cls-8" points="-83.87 171.41 -84.57 170.71 133.29 -47.16 134 -46.46 -83.87 171.41"/><polygon class="cls-8" points="-82.36 172.92 -83.06 172.22 134.81 -45.65 135.51 -44.95 -82.36 172.92"/><polygon class="cls-8" points="-80.85 174.43 -81.55 173.72 136.32 -44.14 137.02 -43.44 -80.85 174.43"/><polygon class="cls-8" points="-79.34 175.94 -80.04 175.24 137.82 -42.63 138.53 -41.93 -79.34 175.94"/><polygon class="cls-8" points="-77.83 177.45 -78.53 176.74 139.34 -41.12 140.04 -40.42 -77.83 177.45"/><polygon class="cls-8" points="-76.32 178.96 -77.02 178.25 140.84 -39.61 141.55 -38.91 -76.32 178.96"/><polygon class="cls-8" points="-74.81 180.47 -75.51 179.76 142.35 -38.1 143.06 -37.4 -74.81 180.47"/><polygon class="cls-8" points="-73.3 181.98 -74 181.27 143.86 -36.59 144.57 -35.89 -73.3 181.98"/><polygon class="cls-8" points="-71.79 183.49 -72.49 182.78 145.37 -35.08 146.08 -34.38 -71.79 183.49"/><polygon class="cls-8" points="-70.28 185 -70.98 184.29 146.88 -33.57 147.59 -32.87 -70.28 185"/><polygon class="cls-8" points="-68.77 186.51 -69.47 185.8 148.39 -32.06 149.1 -31.36 -68.77 186.51"/><polygon class="cls-8" points="-67.26 188.02 -67.96 187.31 149.9 -30.55 150.61 -29.85 -67.26 188.02"/><polygon class="cls-8" points="-65.75 189.53 -66.45 188.82 151.41 -29.05 152.12 -28.34 -65.75 189.53"/><polygon class="cls-8" points="-64.24 191.04 -64.94 190.33 152.92 -27.54 153.63 -26.83 -64.24 191.04"/><polygon class="cls-8" points="-62.73 192.55 -63.43 191.84 154.43 -26.03 155.14 -25.32 -62.73 192.55"/><polygon class="cls-8" points="-61.22 194.06 -61.92 193.35 155.94 -24.52 156.65 -23.81 -61.22 194.06"/><polygon class="cls-8" points="-59.71 195.57 -60.41 194.86 157.45 -23 158.16 -22.3 -59.71 195.57"/><polygon class="cls-8" points="-58.2 197.08 -58.91 196.37 158.96 -21.5 159.67 -20.79 -58.2 197.08"/><polygon class="cls-8" points="-56.69 198.59 -57.4 197.88 160.47 -19.99 161.18 -19.28 -56.69 198.59"/><polygon class="cls-8" points="-55.18 200.1 -55.89 199.39 161.98 -18.48 162.69 -17.77 -55.18 200.1"/><polygon class="cls-8" points="-53.67 201.61 -54.38 200.9 163.49 -16.97 164.2 -16.26 -53.67 201.61"/><polygon class="cls-8" points="-52.16 203.12 -52.87 202.41 165 -15.46 165.71 -14.75 -52.16 203.12"/><polygon class="cls-8" points="-50.65 204.63 -51.36 203.92 166.51 -13.95 167.22 -13.24 -50.65 204.63"/><polygon class="cls-8" points="-49.14 206.14 -49.85 205.43 168.02 -12.44 168.73 -11.73 -49.14 206.14"/><polygon class="cls-8" points="-47.63 207.65 -48.34 206.94 169.53 -10.93 170.24 -10.22 -47.63 207.65"/><polygon class="cls-8" points="-46.12 209.16 -46.83 208.45 171.04 -9.42 171.75 -8.71 -46.12 209.16"/><polygon class="cls-8" points="-44.61 210.67 -45.32 209.96 172.55 -7.91 173.26 -7.2 -44.61 210.67"/><polygon class="cls-8" points="-43.1 212.18 -43.81 211.47 174.06 -6.4 174.77 -5.69 -43.1 212.18"/><polygon class="cls-8" points="-41.59 213.69 -42.3 212.98 175.57 -4.89 176.28 -4.18 -41.59 213.69"/><polygon class="cls-8" points="-40.08 215.19 -40.79 214.49 177.08 -3.38 177.79 -2.67 -40.08 215.19"/><polygon class="cls-8" points="-38.57 216.71 -39.28 216 178.59 -1.87 179.3 -1.16 -38.57 216.71"/><polygon class="cls-8" points="-37.06 218.22 -37.77 217.51 180.1 -0.36 180.81 0.35 -37.06 218.22"/><polygon class="cls-8" points="-35.55 219.72 -36.26 219.02 181.61 1.15 182.31 1.86 -35.55 219.72"/><polygon class="cls-8" points="-34.04 221.24 -34.75 220.53 183.12 2.66 183.83 3.37 -34.04 221.24"/><polygon class="cls-8" points="-32.53 222.75 -33.24 222.04 184.63 4.17 185.34 4.88 -32.53 222.75"/><polygon class="cls-8" points="-31.02 224.25 -31.73 223.55 186.14 5.68 186.84 6.39 -31.02 224.25"/><polygon class="cls-8" points="-29.51 225.76 -30.22 225.06 187.65 7.19 188.35 7.9 -29.51 225.76"/><polygon class="cls-8" points="-28 227.28 -28.71 226.57 189.16 8.7 189.87 9.41 -28 227.28"/><polygon class="cls-8" points="-26.49 228.78 -27.2 228.08 190.67 10.21 191.38 10.92 -26.49 228.78"/><polygon class="cls-8" points="-24.98 230.29 -25.69 229.59 192.18 11.72 192.88 12.43 -24.98 230.29"/><polygon class="cls-8" points="-23.47 231.8 -24.18 231.1 193.69 13.23 194.4 13.94 -23.47 231.8"/><polygon class="cls-8" points="-21.96 233.31 -22.67 232.61 195.2 14.74 195.9 15.45 -21.96 233.31"/><polygon class="cls-8" points="-20.45 234.82 -21.16 234.12 196.71 16.25 197.41 16.95 -20.45 234.82"/><polygon class="cls-8" points="-18.94 236.33 -19.65 235.63 198.22 17.76 198.92 18.47 -18.94 236.33"/><polygon class="cls-8" points="-17.43 237.84 -18.14 237.14 199.73 19.27 200.43 19.98 -17.43 237.84"/><polygon class="cls-8" points="-15.92 239.35 -16.63 238.65 201.24 20.78 201.94 21.48 -15.92 239.35"/><polygon class="cls-8" points="-14.41 240.86 -15.12 240.16 202.75 22.29 203.45 23 -14.41 240.86"/><polygon class="cls-8" points="-12.9 242.37 -13.61 241.67 204.26 23.8 204.96 24.5 -12.9 242.37"/><polygon class="cls-8" points="-11.39 243.88 -12.1 243.18 205.77 25.31 206.47 26.01 -11.39 243.88"/><polygon class="cls-8" points="-9.88 245.39 -10.59 244.69 207.28 26.82 207.98 27.52 -9.88 245.39"/><polygon class="cls-8" points="-8.38 246.9 -9.08 246.2 208.79 28.33 209.49 29.03 -8.38 246.9"/><polygon class="cls-8" points="-6.87 248.41 -7.57 247.71 210.3 29.84 211 30.54 -6.87 248.41"/><polygon class="cls-8" points="-5.36 249.92 -6.06 249.22 211.81 31.35 212.51 32.05 -5.36 249.92"/><polygon class="cls-8" points="-3.85 251.43 -4.55 250.73 213.32 32.86 214.02 33.56 -3.85 251.43"/><polygon class="cls-8" points="-2.34 252.94 -3.04 252.24 214.83 34.37 215.53 35.07 -2.34 252.94"/><polygon class="cls-8" points="-0.83 254.45 -1.53 253.75 216.34 35.88 217.04 36.58 -0.83 254.45"/><polygon class="cls-8" points="0.68 255.96 -0.02 255.26 217.85 37.39 218.55 38.09 0.68 255.96"/><polygon class="cls-8" points="2.19 257.47 1.49 256.77 219.36 38.9 220.06 39.6 2.19 257.47"/><polygon class="cls-8" points="3.7 258.98 3 258.28 220.87 40.41 221.57 41.11 3.7 258.98"/><polygon class="cls-8" points="5.21 260.49 4.51 259.79 222.38 41.92 223.08 42.62 5.21 260.49"/><polygon class="cls-8" points="6.72 262 6.02 261.3 223.89 43.43 224.59 44.13 6.72 262"/><polygon class="cls-8" points="8.23 263.51 7.53 262.81 225.4 44.94 226.1 45.64 8.23 263.51"/><polygon class="cls-8" points="9.74 265.02 9.04 264.32 226.91 46.45 227.61 47.15 9.74 265.02"/><polygon class="cls-8" points="11.25 266.53 10.55 265.82 228.41 47.96 229.12 48.66 11.25 266.53"/><polygon class="cls-8" points="12.76 268.04 12.06 267.33 229.93 49.47 230.63 50.17 12.76 268.04"/><polygon class="cls-8" points="14.27 269.55 13.57 268.85 231.44 50.98 232.14 51.68 14.27 269.55"/><polygon class="cls-8" points="15.78 271.06 15.08 270.36 232.94 52.49 233.65 53.19 15.78 271.06"/><polygon class="cls-8" points="17.29 272.57 16.59 271.86 234.46 54 235.16 54.7 17.29 272.57"/><polygon class="cls-8" points="18.8 274.08 18.1 273.38 235.97 55.51 236.67 56.21 18.8 274.08"/><polygon class="cls-8" points="20.31 275.59 19.61 274.88 237.47 57.02 238.18 57.72 20.31 275.59"/><polygon class="cls-8" points="21.82 277.1 21.12 276.39 238.98 58.53 239.69 59.23 21.82 277.1"/><polygon class="cls-8" points="23.33 278.61 22.63 277.9 240.5 60.04 241.2 60.74 23.33 278.61"/><polygon class="cls-8" points="24.84 280.12 24.14 279.41 242 61.55 242.71 62.25 24.84 280.12"/><polygon class="cls-8" points="26.35 281.63 25.65 280.92 243.51 63.05 244.22 63.76 26.35 281.63"/><polygon class="cls-8" points="27.86 283.14 27.16 282.43 245.02 64.57 245.73 65.27 27.86 283.14"/><polygon class="cls-8" points="29.37 284.65 28.66 283.94 246.53 66.08 247.24 66.78 29.37 284.65"/><polygon class="cls-8" points="30.88 286.16 30.18 285.45 248.04 67.58 248.75 68.29 30.88 286.16"/><polygon class="cls-8" points="32.39 287.67 31.68 286.96 249.55 69.09 250.26 69.8 32.39 287.67"/><polygon class="cls-8" points="33.9 289.18 33.2 288.47 251.06 70.61 251.77 71.31 33.9 289.18"/><polygon class="cls-8" points="35.41 290.69 34.7 289.98 252.57 72.11 253.28 72.82 35.41 290.69"/><polygon class="cls-8" points="36.92 292.2 36.22 291.49 254.08 73.62 254.79 74.33 36.92 292.2"/><polygon class="cls-8" points="38.43 293.71 37.73 293 255.59 75.14 256.3 75.84 38.43 293.71"/></g><g class="cls-12"><rect class="cls-8" x="-23" y="-22.33" width="308.11" height="1"/><rect class="cls-8" x="-23" y="-20.2" width="308.11" height="1"/><rect class="cls-8" x="-23" y="-18.06" width="308.11" height="1"/><rect class="cls-8" x="-23" y="-15.93" width="308.11" height="1"/><rect class="cls-8" x="-23" y="-13.79" width="308.11" height="1"/><rect class="cls-8" x="-23" y="-11.66" width="308.11" height="1"/><rect class="cls-8" x="-23" y="-9.52" width="308.11" height="1"/><rect class="cls-8" x="-23" y="-7.38" width="308.11" height="1"/><rect class="cls-8" x="-23" y="-5.25" width="308.11" height="1"/><rect class="cls-8" x="-23" y="-3.11" width="308.11" height="1"/><rect class="cls-8" x="-23" y="-0.98" width="308.11" height="1"/><rect class="cls-8" x="-23" y="1.16" width="308.11" height="1"/><rect class="cls-8" x="-23" y="3.29" width="308.11" height="1"/><rect class="cls-8" x="-23" y="5.43" width="308.11" height="1"/><rect class="cls-8" x="-23" y="7.56" width="308.11" height="1"/><rect class="cls-8" x="-23" y="9.7" width="308.11" height="1"/><rect class="cls-8" x="-23" y="11.83" width="308.11" height="1"/><rect class="cls-8" x="-23" y="13.97" width="308.11" height="1"/><rect class="cls-8" x="-23" y="16.1" width="308.11" height="1"/><rect class="cls-8" x="-23" y="18.24" width="308.11" height="1"/><rect class="cls-8" x="-23" y="20.37" width="308.11" height="1"/><rect class="cls-8" x="-23" y="22.51" width="308.11" height="1"/><rect class="cls-8" x="-23" y="24.64" width="308.11" height="1"/><rect class="cls-8" x="-23" y="26.78" width="308.11" height="1"/><rect class="cls-8" x="-23" y="28.91" width="308.11" height="1"/><rect class="cls-8" x="-23" y="31.05" width="308.11" height="1"/><rect class="cls-8" x="-23" y="33.18" width="308.11" height="1"/><rect class="cls-8" x="-23" y="35.32" width="308.11" height="1"/><rect class="cls-8" x="-23" y="37.45" width="308.11" height="1"/><rect class="cls-8" x="-23" y="39.59" width="308.11" height="1"/><rect class="cls-8" x="-23" y="41.73" width="308.11" height="1"/><rect class="cls-8" x="-23" y="43.86" width="308.11" height="1"/><rect class="cls-8" x="-23" y="46" width="308.11" height="1"/><rect class="cls-8" x="-23" y="48.13" width="308.11" height="1"/><rect class="cls-8" x="-23" y="50.27" width="308.11" height="1"/><rect class="cls-8" x="-23" y="52.4" width="308.11" height="1"/><rect class="cls-8" x="-23" y="54.54" width="308.11" height="1"/><rect class="cls-8" x="-23" y="56.67" width="308.11" height="1"/><rect class="cls-8" x="-23" y="58.81" width="308.11" height="1"/><rect class="cls-8" x="-23" y="60.94" width="308.11" height="1"/><rect class="cls-8" x="-23" y="63.08" width="308.11" height="1"/><rect class="cls-8" x="-23" y="65.21" width="308.11" height="1"/><rect class="cls-8" x="-23" y="67.35" width="308.11" height="1"/><rect class="cls-8" x="-23" y="69.48" width="308.11" height="1"/><rect class="cls-8" x="-23" y="71.62" width="308.11" height="1"/><rect class="cls-8" x="-23" y="73.75" width="308.11" height="1"/><rect class="cls-8" x="-23" y="75.89" width="308.11" height="1"/><rect class="cls-8" x="-23" y="78.02" width="308.11" height="1"/><rect class="cls-8" x="-23" y="80.16" width="308.11" height="1"/><rect class="cls-8" x="-23" y="82.29" width="308.11" height="1"/><rect class="cls-8" x="-23" y="84.43" width="308.11" height="1"/><rect class="cls-8" x="-23" y="86.57" width="308.11" height="1"/><rect class="cls-8" x="-23" y="88.7" width="308.11" height="1"/><rect class="cls-8" x="-23" y="90.84" width="308.11" height="1"/><rect class="cls-8" x="-23" y="92.97" width="308.11" height="1"/><rect class="cls-8" x="-23" y="95.11" width="308.11" height="1"/><rect class="cls-8" x="-23" y="97.24" width="308.11" height="1"/><rect class="cls-8" x="-23" y="99.38" width="308.11" height="1"/><rect class="cls-8" x="-23" y="101.51" width="308.11" height="1"/><rect class="cls-8" x="-23" y="103.65" width="308.11" height="1"/><rect class="cls-8" x="-23" y="105.78" width="308.11" height="1"/><rect class="cls-8" x="-23" y="107.92" width="308.11" height="1"/><rect class="cls-8" x="-23" y="110.05" width="308.11" height="1"/><rect class="cls-8" x="-23" y="112.19" width="308.11" height="1"/><rect class="cls-8" x="-23" y="114.32" width="308.11" height="1"/><rect class="cls-8" x="-23" y="116.46" width="308.11" height="1"/><rect class="cls-8" x="-23" y="118.59" width="308.11" height="1"/><rect class="cls-8" x="-23" y="120.73" width="308.11" height="1"/><rect class="cls-8" x="-23" y="122.86" width="308.11" height="1"/><rect class="cls-8" x="-23" y="125" width="308.11" height="1"/><rect class="cls-8" x="-23" y="127.13" width="308.11" height="1"/><rect class="cls-8" x="-23" y="129.27" width="308.11" height="1"/><rect class="cls-8" x="-23" y="131.41" width="308.11" height="1"/><rect class="cls-8" x="-23" y="133.54" width="308.11" height="1"/><rect class="cls-8" x="-23" y="135.68" width="308.11" height="1"/><rect class="cls-8" x="-23" y="137.81" width="308.11" height="1"/><rect class="cls-8" x="-23" y="139.95" width="308.11" height="1"/><rect class="cls-8" x="-23" y="142.08" width="308.11" height="1"/><rect class="cls-8" x="-23" y="144.22" width="308.11" height="1"/><rect class="cls-8" x="-23" y="146.35" width="308.11" height="1"/><rect class="cls-8" x="-23" y="148.49" width="308.11" height="1"/><rect class="cls-8" x="-23" y="150.62" width="308.11" height="1"/><rect class="cls-8" x="-23" y="152.76" width="308.11" height="1"/><rect class="cls-8" x="-23" y="154.89" width="308.11" height="1"/><rect class="cls-8" x="-23" y="157.03" width="308.11" height="1"/><rect class="cls-8" x="-23" y="159.16" width="308.11" height="1"/><rect class="cls-8" x="-23" y="161.3" width="308.11" height="1"/><rect class="cls-8" x="-23" y="163.43" width="308.11" height="1"/><rect class="cls-8" x="-23" y="165.57" width="308.11" height="1"/><rect class="cls-8" x="-23" y="167.7" width="308.11" height="1"/><rect class="cls-8" x="-23" y="169.84" width="308.11" height="1"/><rect class="cls-8" x="-23" y="171.98" width="308.11" height="1"/><rect class="cls-8" x="-23" y="174.11" width="308.11" height="1"/><rect class="cls-8" x="-23" y="176.25" width="308.11" height="1"/><rect class="cls-8" x="-23" y="178.38" width="308.11" height="1"/><rect class="cls-8" x="-23" y="180.52" width="308.11" height="1"/><rect class="cls-8" x="-23" y="182.65" width="308.11" height="1"/><rect class="cls-8" x="-23" y="184.79" width="308.11" height="1"/><rect class="cls-8" x="-23" y="186.92" width="308.11" height="1"/><rect class="cls-8" x="-23" y="189.06" width="308.11" height="1"/><rect class="cls-8" x="-23" y="191.19" width="308.11" height="1"/><rect class="cls-8" x="-23" y="193.33" width="308.11" height="1"/><rect class="cls-8" x="-23" y="195.46" width="308.11" height="1"/><rect class="cls-8" x="-23" y="197.6" width="308.11" height="1"/><rect class="cls-8" x="-23" y="199.73" width="308.11" height="1"/><rect class="cls-8" x="-23" y="201.87" width="308.11" height="1"/><rect class="cls-8" x="-23" y="204" width="308.11" height="1"/><rect class="cls-8" x="-23" y="206.14" width="308.11" height="1"/><rect class="cls-8" x="-23" y="208.27" width="308.11" height="1"/><rect class="cls-8" x="-23" y="210.41" width="308.11" height="1"/><rect class="cls-8" x="-23" y="212.54" width="308.11" height="1"/><rect class="cls-8" x="-23" y="214.68" width="308.11" height="1"/><rect class="cls-8" x="-23" y="216.82" width="308.11" height="1"/><rect class="cls-8" x="-23" y="218.95" width="308.11" height="1"/></g><g class="cls-13"><rect class="cls-8" x="129.59" y="-49.67" width="1" height="308.11"/><rect class="cls-8" x="131.72" y="-49.67" width="1" height="308.11"/><rect class="cls-8" x="133.86" y="-49.67" width="1" height="308.11"/><rect class="cls-8" x="136" y="-49.67" width="1" height="308.11"/><rect class="cls-8" x="138.13" y="-49.67" width="1" height="308.11"/><rect class="cls-8" x="140.27" y="-49.67" width="1" height="308.11"/><rect class="cls-8" x="142.4" y="-49.67" width="1" height="308.11"/><rect class="cls-8" x="144.54" y="-49.67" width="1" height="308.11"/><rect class="cls-8" x="146.67" y="-49.67" width="1" height="308.11"/><rect class="cls-8" x="148.81" y="-49.67" width="1" height="308.11"/><rect class="cls-8" x="150.94" y="-49.67" width="1" height="308.11"/><rect class="cls-8" x="153.08" y="-49.67" width="1" height="308.11"/><rect class="cls-8" x="155.21" y="-49.67" width="1" height="308.11"/><rect class="cls-8" x="157.35" y="-49.67" width="1" height="308.11"/><rect class="cls-8" x="159.48" y="-49.67" width="1" height="308.11"/><rect class="cls-8" x="161.62" y="-49.67" width="1" height="308.11"/><rect class="cls-8" x="163.75" y="-49.67" width="1" height="308.11"/><rect class="cls-8" x="165.89" y="-49.67" width="1" height="308.11"/><rect class="cls-8" x="168.02" y="-49.67" width="1" height="308.11"/><rect class="cls-8" x="170.16" y="-49.67" width="1" height="308.11"/><rect class="cls-8" x="172.29" y="-49.67" width="1" height="308.11"/><rect class="cls-8" x="174.43" y="-49.67" width="1" height="308.11"/><rect class="cls-8" x="176.56" y="-49.67" width="1" height="308.11"/><rect class="cls-8" x="178.7" y="-49.67" width="1" height="308.11"/><rect class="cls-8" x="180.83" y="-49.67" width="1" height="308.11"/><rect class="cls-8" x="182.97" y="-49.67" width="1" height="308.11"/><rect class="cls-8" x="185.11" y="-49.67" width="1" height="308.11"/><rect class="cls-8" x="187.24" y="-49.67" width="1" height="308.11"/><rect class="cls-8" x="189.38" y="-49.67" width="1" height="308.11"/><rect class="cls-8" x="191.51" y="-49.67" width="1" height="308.11"/><rect class="cls-8" x="193.65" y="-49.67" width="1" height="308.11"/><rect class="cls-8" x="195.78" y="-49.67" width="1" height="308.11"/><rect class="cls-8" x="197.92" y="-49.67" width="1" height="308.11"/><rect class="cls-8" x="200.05" y="-49.67" width="1" height="308.11"/><rect class="cls-8" x="202.19" y="-49.67" width="1" height="308.11"/><rect class="cls-8" x="204.32" y="-49.67" width="1" height="308.11"/><rect class="cls-8" x="206.46" y="-49.67" width="1" height="308.11"/><rect class="cls-8" x="208.59" y="-49.67" width="1" height="308.11"/><rect class="cls-8" x="210.73" y="-49.67" width="1" height="308.11"/><rect class="cls-8" x="212.86" y="-49.67" width="1" height="308.11"/><rect class="cls-8" x="215" y="-49.67" width="1" height="308.11"/><rect class="cls-8" x="217.13" y="-49.67" width="1" height="308.11"/><rect class="cls-8" x="219.27" y="-49.67" width="1" height="308.11"/><rect class="cls-8" x="221.4" y="-49.67" width="1" height="308.11"/><rect class="cls-8" x="223.54" y="-49.67" width="1" height="308.11"/><rect class="cls-8" x="225.67" y="-49.67" width="1" height="308.11"/><rect class="cls-8" x="227.81" y="-49.67" width="1" height="308.11"/><rect class="cls-8" x="229.95" y="-49.67" width="1" height="308.11"/><rect class="cls-8" x="232.08" y="-49.67" width="1" height="308.11"/><rect class="cls-8" x="234.22" y="-49.67" width="1" height="308.11"/><rect class="cls-8" x="236.35" y="-49.67" width="1" height="308.11"/><rect class="cls-8" x="238.49" y="-49.67" width="1" height="308.11"/><rect class="cls-8" x="240.62" y="-49.67" width="1" height="308.11"/><rect class="cls-8" x="242.76" y="-49.67" width="1" height="308.11"/><rect class="cls-8" x="244.89" y="-49.67" width="1" height="308.11"/><rect class="cls-8" x="247.03" y="-49.67" width="1" height="308.11"/><rect class="cls-8" x="249.16" y="-49.67" width="1" height="308.11"/><rect class="cls-8" x="251.3" y="-49.67" width="1" height="308.11"/><rect class="cls-8" x="253.43" y="-49.67" width="1" height="308.11"/><rect class="cls-8" x="255.57" y="-49.67" width="1" height="308.11"/><rect class="cls-8" x="257.7" y="-49.67" width="1" height="308.11"/><rect class="cls-8" x="259.84" y="-49.67" width="1" height="308.11"/><rect class="cls-8" x="261.97" y="-49.67" width="1" height="308.11"/><rect class="cls-8" x="264.11" y="-49.67" width="1" height="308.11"/><rect class="cls-8" x="266.24" y="-49.67" width="1" height="308.11"/><rect class="cls-8" x="268.38" y="-49.67" width="1" height="308.11"/><rect class="cls-8" x="270.51" y="-49.67" width="1" height="308.11"/><rect class="cls-8" x="272.65" y="-49.67" width="1" height="308.11"/><rect class="cls-8" x="274.79" y="-49.67" width="1" height="308.11"/><rect class="cls-8" x="276.92" y="-49.67" width="1" height="308.11"/><rect class="cls-8" x="279.06" y="-49.67" width="1" height="308.11"/><rect class="cls-8" x="281.19" y="-49.67" width="1" height="308.11"/><rect class="cls-8" x="283.33" y="-49.67" width="1" height="308.11"/><rect class="cls-8" x="285.46" y="-49.67" width="1" height="308.11"/><rect class="cls-8" x="287.6" y="-49.67" width="1" height="308.11"/><rect class="cls-8" x="289.73" y="-49.67" width="1" height="308.11"/><rect class="cls-8" x="291.87" y="-49.67" width="1" height="308.11"/><rect class="cls-8" x="294" y="-49.67" width="1" height="308.11"/><rect class="cls-8" x="296.14" y="-49.67" width="1" height="308.11"/><rect class="cls-8" x="298.27" y="-49.67" width="1" height="308.11"/><rect class="cls-8" x="300.41" y="-49.67" width="1" height="308.11"/><rect class="cls-8" x="302.54" y="-49.67" width="1" height="308.11"/><rect class="cls-8" x="304.68" y="-49.67" width="1" height="308.11"/><rect class="cls-8" x="306.81" y="-49.67" width="1" height="308.11"/><rect class="cls-8" x="308.95" y="-49.67" width="1" height="308.11"/><rect class="cls-8" x="311.08" y="-49.67" width="1" height="308.11"/><rect class="cls-8" x="313.22" y="-49.67" width="1" height="308.11"/><rect class="cls-8" x="315.36" y="-49.67" width="1" height="308.11"/><rect class="cls-8" x="317.49" y="-49.67" width="1" height="308.11"/><rect class="cls-8" x="319.63" y="-49.67" width="1" height="308.11"/><rect class="cls-8" x="321.76" y="-49.67" width="1" height="308.11"/><rect class="cls-8" x="323.9" y="-49.67" width="1" height="308.11"/><rect class="cls-8" x="326.03" y="-49.67" width="1" height="308.11"/><rect class="cls-8" x="328.17" y="-49.67" width="1" height="308.11"/><rect class="cls-8" x="330.3" y="-49.67" width="1" height="308.11"/><rect class="cls-8" x="332.44" y="-49.67" width="1" height="308.11"/><rect class="cls-8" x="334.57" y="-49.67" width="1" height="308.11"/><rect class="cls-8" x="336.71" y="-49.67" width="1" height="308.11"/><rect class="cls-8" x="338.84" y="-49.67" width="1" height="308.11"/><rect class="cls-8" x="340.98" y="-49.67" width="1" height="308.11"/><rect class="cls-8" x="343.11" y="-49.67" width="1" height="308.11"/><rect class="cls-8" x="345.25" y="-49.67" width="1" height="308.11"/><rect class="cls-8" x="347.38" y="-49.67" width="1" height="308.11"/><rect class="cls-8" x="349.52" y="-49.67" width="1" height="308.11"/><rect class="cls-8" x="351.65" y="-49.67" width="1" height="308.11"/><rect class="cls-8" x="353.79" y="-49.67" width="1" height="308.11"/><rect class="cls-8" x="355.92" y="-49.67" width="1" height="308.11"/><rect class="cls-8" x="358.06" y="-49.67" width="1" height="308.11"/><rect class="cls-8" x="360.2" y="-49.67" width="1" height="308.11"/><rect class="cls-8" x="362.33" y="-49.67" width="1" height="308.11"/><rect class="cls-8" x="364.47" y="-49.67" width="1" height="308.11"/><rect class="cls-8" x="366.6" y="-49.67" width="1" height="308.11"/><rect class="cls-8" x="368.74" y="-49.67" width="1" height="308.11"/><rect class="cls-8" x="370.87" y="-49.67" width="1" height="308.11"/></g></pattern><clipPath id="clip-path-8"><path class="cls-2" d="M161.32,429.14,147.23,421C274.56,316.17,397.36,164.84,501.32,0l14.09,8.19C411.46,173,288.66,324.36,161.32,429.14Z"/></clipPath><clipPath id="clip-path-9"><path class="cls-3" d="M221.16,473.2l-14.1-8.2L561.48,159.24l14.1,8.19Z"/></clipPath></defs><title>Asset 17</title><g id="Layer_2" data-name="Layer 2"><g id="Layer_1-2" data-name="Layer 1"><polygon class="cls-16" points="721.74 375.61 284.76 629.55 1 465.71 437.97 211.77 721.74 375.61"/><polygon class="cls-17" points="721.74 375.61 284.76 629.55 1 465.71 437.97 211.77 721.74 375.61"/><g class="cls-18"><polygon class="cls-19" points="729.74 296.61 292.76 550.55 9 386.71 445.97 132.77 729.74 296.61"/><polygon class="cls-19" points="729.74 296.61 729.67 321.06 292.69 575 292.76 550.55 729.74 296.61"/><polygon class="cls-20" points="292.76 550.55 292.69 575 8.93 411.17 9 386.71 292.76 550.55"/></g><path class="cls-21" d="M515.41,8.19l.64,225.8L161.35,438.78l0-9.64C288.66,324.36,411.46,173,515.41,8.19Z"/><polygon class="cls-22" points="161.35 438.78 147.25 430.58 147.22 420.95 161.32 429.14 161.35 438.78"/><path class="cls-2" d="M161.32,429.14,147.23,421C274.56,316.17,397.36,164.84,501.32,0l14.09,8.19C411.46,173,288.66,324.36,161.32,429.14Z"/><g class="cls-23"><g class="cls-18"><path class="cls-2" d="M161.32,429.14,147.23,421c27.38-22.53,54.55-47.22,81.38-73.73l14.09,8.19c-26.82,26.51-54,51.2-81.38,73.73"/><path class="cls-2" d="M242.7,355.41l-14.09-8.19c27.2-26.89,54-55.65,80.36-85.94l14.1,8.19c-26.33,30.29-53.17,59.06-80.37,85.94"/><path class="cls-2" d="M323.07,269.47,309,261.28q34.14-39.27,67-81.75l14.1,8.19q-32.85,42.38-67,81.75"/><path class="cls-2" d="M390.09,187.72,376,179.53Q407.1,139.39,436.83,97l14.1,8.19q-29.7,42.33-60.84,82.56"/><path class="cls-2" d="M450.93,105.16,436.83,97q29.09-41.46,56.62-84.58l14.1,8.2q-27.51,43-56.62,84.57"/><path class="cls-2" d="M507.55,20.59l-14.1-8.2Q497.4,6.21,501.32,0l14.09,8.19q-3.92,6.21-7.86,12.4"/></g></g><g class="cls-18"><path class="cls-24" d="M575.58,167.43l.31,110.62L221.19,482.84l0-9.64Z"/><polygon class="cls-25" points="221.19 482.84 207.09 474.64 207.06 465 221.16 473.2 221.19 482.84"/><g class="cls-18"><path class="cls-3" d="M221.16,473.2l-14.1-8.2L561.48,159.24l14.1,8.19Z"/><g class="cls-26"><g class="cls-18"><path class="cls-3" d="M221.16,473.2l-14.1-8.2L561.48,159.24l14.1,8.19L221.16,473.2"/></g></g></g></g></g></g></svg>