<svg xmlns="http://www.w3.org/2000/svg" xmlns:xlink="http://www.w3.org/1999/xlink" viewBox="0 0 973.03 1387"><defs><style>.cls-1{fill:none;}.cls-2{fill:#fff0f4;}.cls-3{fill:#ffe6eb;}.cls-4{fill:url(#Thick-Pink-Diagonal02-wBG);}</style><pattern id="Thick-Pink-Diagonal02-wBG" data-name="Thick-Pink-Diagonal02-wBG" width="36.88" height="21.29" patternTransform="translate(-177.47 261.54) scale(2.92)" patternUnits="userSpaceOnUse" viewBox="0 0 36.88 21.29"><rect class="cls-1" width="36.88" height="21.29"/><polygon class="cls-2" points="36.13 0 0 20.86 0 19.36 33.53 0 36.13 0"/><polygon class="cls-2" points="32.03 0 0 18.49 0 16.99 29.43 0 32.03 0"/><polygon class="cls-2" points="23.83 0 0 13.76 0 12.26 21.24 0 23.83 0"/><polygon class="cls-2" points="36.88 1.93 3.35 21.29 0.75 21.29 36.88 0.43 36.88 1.93"/><polygon class="cls-2" points="36.88 4.3 7.45 21.29 4.85 21.29 36.88 2.8 36.88 4.3"/><polygon class="cls-2" points="27.93 0 0 16.13 0 14.63 25.33 0 27.93 0"/><polygon class="cls-2" points="36.88 9.03 15.64 21.29 13.04 21.29 36.88 7.53 36.88 9.03"/><polygon class="cls-2" points="36.88 6.66 11.54 21.29 8.94 21.29 36.88 5.17 36.88 6.66"/><polygon class="cls-2" points="36.88 20.86 36.13 21.29 33.53 21.29 36.88 19.36 36.88 20.86"/><polygon class="cls-2" points="36.88 13.76 23.83 21.29 21.24 21.29 36.88 12.26 36.88 13.76"/><polygon class="cls-2" points="36.88 16.13 27.93 21.29 25.33 21.29 36.88 14.63 36.88 16.13"/><polygon class="cls-2" points="36.88 11.39 19.74 21.29 17.14 21.29 36.88 9.9 36.88 11.39"/><polygon class="cls-2" points="19.74 0 0 11.39 0 9.9 17.14 0 19.74 0"/><polygon class="cls-2" points="36.88 18.49 32.03 21.29 29.43 21.29 36.88 16.99 36.88 18.49"/><polygon class="cls-2" points="11.54 0 0 6.66 0 5.16 8.95 0 11.54 0"/><polygon class="cls-2" points="15.64 0 0 9.03 0 7.53 13.04 0 15.64 0"/><polygon class="cls-2" points="7.45 0 0 4.3 0 2.8 4.85 0 7.45 0"/><polygon class="cls-2" points="0.75 0 3.35 0 0 1.93 0 0.43 0.75 0"/><polygon class="cls-3" points="0 0 0.75 0 0 0.43 0 0"/><polygon class="cls-3" points="4.85 0 0 2.8 0 1.93 3.35 0 4.85 0"/><polygon class="cls-3" points="8.95 0 0 5.16 0 4.3 7.45 0 8.95 0"/><polygon class="cls-3" points="13.04 0 0 7.53 0 6.66 11.54 0 13.04 0"/><polygon class="cls-3" points="17.14 0 0 9.9 0 9.03 15.64 0 17.14 0"/><polygon class="cls-3" points="21.24 0 0 12.26 0 11.39 19.74 0 21.24 0"/><polygon class="cls-3" points="25.33 0 0 14.63 0 13.76 23.83 0 25.33 0"/><polygon class="cls-3" points="29.43 0 0 16.99 0 16.13 27.93 0 29.43 0"/><polygon class="cls-3" points="33.53 0 0 19.36 0 18.49 32.03 0 33.53 0"/><polygon class="cls-3" points="36.88 0 36.88 0.43 0.75 21.29 0 21.29 0 20.86 36.13 0 36.88 0"/><polygon class="cls-3" points="36.88 2.8 4.85 21.29 3.35 21.29 36.88 1.93 36.88 2.8"/><polygon class="cls-3" points="36.88 5.17 8.94 21.29 7.45 21.29 36.88 4.3 36.88 5.17"/><polygon class="cls-3" points="36.88 7.53 13.04 21.29 11.54 21.29 36.88 6.66 36.88 7.53"/><polygon class="cls-3" points="36.88 9.9 17.14 21.29 15.64 21.29 36.88 9.03 36.88 9.9"/><polygon class="cls-3" points="36.88 12.26 21.24 21.29 19.74 21.29 36.88 11.39 36.88 12.26"/><polygon class="cls-3" points="36.88 14.63 25.33 21.29 23.83 21.29 36.88 13.76 36.88 14.63"/><polygon class="cls-3" points="36.88 16.99 29.43 21.29 27.93 21.29 36.88 16.13 36.88 16.99"/><polygon class="cls-3" points="36.88 19.36 33.53 21.29 32.03 21.29 36.88 18.49 36.88 19.36"/><polygon class="cls-3" points="36.88 21.29 36.13 21.29 36.88 20.86 36.88 21.29"/></pattern></defs><title>Asset 5</title><g id="Layer_2" data-name="Layer 2"><g id="Layer_1-2" data-name="Layer 1"><rect class="cls-4" width="973.03" height="1387"/></g></g></svg>