<svg xmlns="http://www.w3.org/2000/svg" xmlns:xlink="http://www.w3.org/1999/xlink" viewBox="0 0 551.26891 485.78478"><defs><style>.a{fill:none;}.b{fill:#ffe6eb;}.c{fill:url(#a);}.d{fill:url(#b);}</style><pattern id="a" width="36.87604" height="21.29041" patternTransform="matrix(-0.9174, 3.83161, -1.80781, 0.27823, 1537.99474, 248.73836)" patternUnits="userSpaceOnUse" viewBox="0 0 36.876 21.29"><rect class="a" width="36.87604" height="21.29041"/><polygon class="b" points="36.876 0 36.376 0 36.876 0.288 36.876 0"/><polygon class="b" points="32.279 0 36.876 2.654 36.876 2.077 33.278 0 32.279 0"/><polygon class="b" points="28.181 0 36.876 5.02 36.876 4.443 29.181 0 28.181 0"/><polygon class="b" points="24.084 0 36.876 7.385 36.876 6.808 25.083 0 24.084 0"/><polygon class="b" points="19.987 0 36.876 9.751 36.876 9.174 20.986 0 19.987 0"/><polygon class="b" points="15.89 0 36.876 12.116 36.876 11.54 16.889 0 15.89 0"/><polygon class="b" points="11.793 0 36.876 14.482 36.876 13.905 12.792 0 11.793 0"/><polygon class="b" points="7.695 0 36.876 16.848 36.876 16.271 8.694 0 7.695 0"/><polygon class="b" points="3.598 0 36.876 19.213 36.876 18.636 4.597 0 3.598 0"/><polygon class="b" points="0 0 0 0.289 36.376 21.29 36.876 21.29 36.876 21.002 0.5 0 0 0"/><polygon class="b" points="0 2.654 32.279 21.29 33.279 21.29 0 2.077 0 2.654"/><polygon class="b" points="0 5.02 28.182 21.29 29.181 21.29 0 4.443 0 5.02"/><polygon class="b" points="0 7.385 24.084 21.29 25.083 21.29 0 6.808 0 7.385"/><polygon class="b" points="0 9.751 19.987 21.29 20.986 21.29 0 9.174 0 9.751"/><polygon class="b" points="0 12.116 15.89 21.29 16.889 21.29 0 11.54 0 12.116"/><polygon class="b" points="0 14.482 11.793 21.29 12.792 21.29 0 13.905 0 14.482"/><polygon class="b" points="0 16.848 7.695 21.29 8.694 21.29 0 16.271 0 16.848"/><polygon class="b" points="0 19.213 3.598 21.29 4.597 21.29 0 18.636 0 19.213"/><polygon class="b" points="0 21.29 0.5 21.29 0 21.002 0 21.29"/></pattern><pattern id="b" width="36.87604" height="21.29041" patternTransform="matrix(-0.68149, 2.84634, -1.34294, 0.20668, 1173.65924, 212.83566)" patternUnits="userSpaceOnUse" viewBox="0 0 36.876 21.29"><rect class="a" width="36.87604" height="21.29041"/><polygon class="b" points="0 0 0.5 0 0 0.288 0 0"/><polygon class="b" points="4.597 0 0 2.654 0 2.077 3.598 0 4.597 0"/><polygon class="b" points="8.695 0 0 5.02 0 4.443 7.695 0 8.695 0"/><polygon class="b" points="12.792 0 0 7.385 0 6.808 11.793 0 12.792 0"/><polygon class="b" points="16.889 0 0 9.751 0 9.174 15.89 0 16.889 0"/><polygon class="b" points="20.986 0 0 12.116 0 11.54 19.987 0 20.986 0"/><polygon class="b" points="25.083 0 0 14.482 0 13.905 24.084 0 25.083 0"/><polygon class="b" points="29.181 0 0 16.848 0 16.271 28.182 0 29.181 0"/><polygon class="b" points="33.278 0 0 19.213 0 18.636 32.279 0 33.278 0"/><polygon class="b" points="36.876 0 36.876 0.289 0.5 21.29 0 21.29 0 21.002 36.376 0 36.876 0"/><polygon class="b" points="36.876 2.654 4.597 21.29 3.597 21.29 36.876 2.077 36.876 2.654"/><polygon class="b" points="36.876 5.02 8.695 21.29 7.695 21.29 36.876 4.443 36.876 5.02"/><polygon class="b" points="36.876 7.385 12.792 21.29 11.793 21.29 36.876 6.808 36.876 7.385"/><polygon class="b" points="36.876 9.751 16.889 21.29 15.89 21.29 36.876 9.174 36.876 9.751"/><polygon class="b" points="36.876 12.116 20.986 21.29 19.987 21.29 36.876 11.54 36.876 12.116"/><polygon class="b" points="36.876 14.482 25.083 21.29 24.084 21.29 36.876 13.905 36.876 14.482"/><polygon class="b" points="36.876 16.848 29.181 21.29 28.182 21.29 36.876 16.271 36.876 16.848"/><polygon class="b" points="36.876 19.213 33.278 21.29 32.279 21.29 36.876 18.636 36.876 19.213"/><polygon class="b" points="36.876 21.29 36.376 21.29 36.876 21.002 36.876 21.29"/></pattern></defs><title>values-empathy</title><path class="c" d="M237.19782,29.38628A148.5111,148.5111,0,0,0,29.38628,237.19782l-1.09959,1.09958L275.77406,485.78478,485.78478,275.77406,238.2974,28.28669Z"/><path class="d" d="M521.88263,237.19782A148.5111,148.5111,0,0,0,314.07109,29.38628l-1.09959-1.09959L65.48413,275.77406,275.49484,485.78478,522.98222,238.2974Z"/></svg>