<svg xmlns="http://www.w3.org/2000/svg" xmlns:xlink="http://www.w3.org/1999/xlink" viewBox="0 0 431.32223 490.68832"><defs><style>.a,.f{fill:none;}.b{fill:#ecfbec;}.c{clip-path:url(#a);}.d{fill:#cdf2ca;}.e{fill:#fce0c0;}.f{stroke-linecap:round;stroke-miterlimit:10;stroke-width:16px;stroke:url(#b);}.g{fill:url(#c);}.h{fill:url(#d);}</style><clipPath id="a"><polygon class="a" points="0 36.876 0 0 36.876 0 36.876 36.876 0 36.876"/></clipPath><pattern id="b" width="36.87598" height="36.87598" patternTransform="translate(-11 2)" patternUnits="userSpaceOnUse" viewBox="0 0 36.876 36.876"><rect class="a" width="36.87598" height="36.87598"/><rect class="e" x="36.37598" width="0.5" height="36.87598"/><rect class="e" x="-0.5" width="0.5" height="36.87598"/><rect class="e" x="1.66943" width="0.5" height="36.87598"/><rect class="e" x="3.83838" width="0.5" height="36.87598"/><rect class="e" x="6.00781" width="0.5" height="36.87598"/><rect class="e" x="8.17676" width="0.5" height="36.87598"/><rect class="e" x="10.34619" width="0.5" height="36.87598"/><rect class="e" x="12.51514" width="0.5" height="36.87598"/><rect class="e" x="14.68408" width="0.5" height="36.87598"/><rect class="e" x="16.85352" width="0.5" height="36.87598"/><rect class="e" x="19.02246" width="0.5" height="36.87598"/><rect class="e" x="21.19189" width="0.5" height="36.87598"/><rect class="e" x="23.36084" width="0.5" height="36.87598"/><rect class="e" x="25.53027" width="0.5" height="36.87598"/><rect class="e" x="27.69922" width="0.5" height="36.87598"/><rect class="e" x="29.86865" width="0.5" height="36.87598"/><rect class="e" x="32.0376" width="0.5" height="36.87598"/><rect class="e" x="34.20703" width="0.5" height="36.87598"/><rect class="e" x="36.37598" width="0.5" height="36.87598"/></pattern><pattern id="c" width="36.87598" height="36.87598" patternTransform="matrix(-1.47614, 1.33615, 1.33615, 1.47614, 24.32941, 182.80761)" patternUnits="userSpaceOnUse" viewBox="0 0 36.876 36.876"><rect class="a" width="36.87598" height="36.87598"/><rect class="d" x="36.37598" width="0.5" height="36.87598"/><rect class="d" x="-0.5" width="0.5" height="36.87598"/><rect class="d" x="1.66943" width="0.5" height="36.87598"/><rect class="d" x="3.83838" width="0.5" height="36.87598"/><rect class="d" x="6.00781" width="0.5" height="36.87598"/><rect class="d" x="8.17676" width="0.5" height="36.87598"/><rect class="d" x="10.34619" width="0.5" height="36.87598"/><rect class="d" x="12.51514" width="0.5" height="36.87598"/><rect class="d" x="14.68408" width="0.5" height="36.87598"/><rect class="d" x="16.85352" width="0.5" height="36.87598"/><rect class="d" x="19.02246" width="0.5" height="36.87598"/><rect class="d" x="21.19189" width="0.5" height="36.87598"/><rect class="d" x="23.36084" width="0.5" height="36.87598"/><rect class="d" x="25.53027" width="0.5" height="36.87598"/><rect class="d" x="27.69922" width="0.5" height="36.87598"/><rect class="d" x="29.86865" width="0.5" height="36.87598"/><rect class="d" x="32.0376" width="0.5" height="36.87598"/><rect class="d" x="34.20703" width="0.5" height="36.87598"/><rect class="d" x="36.37598" width="0.5" height="36.87598"/></pattern><pattern id="d" width="36.87607" height="36.87607" patternTransform="matrix(-1.28333, 1.16162, 1.16162, 1.28333, 49.6152, 185.78596)" patternUnits="userSpaceOnUse" viewBox="0 0 36.876 36.876"><rect class="a" width="36.87607" height="36.87607"/><polygon class="b" points="0 36.876 0 0 36.876 0 36.876 36.876 0 36.876"/><g class="c"><rect class="d" x="-0.00002" y="-0.37515" width="36.87598" height="0.75"/><rect class="d" x="-0.00002" y="1.79428" width="36.87598" height="0.75"/><rect class="d" x="-0.00002" y="3.96323" width="36.87598" height="0.75"/><rect class="d" x="-0.00002" y="6.13266" width="36.87598" height="0.75"/><rect class="d" x="-0.00002" y="8.30161" width="36.87598" height="0.75"/><rect class="d" x="-0.00002" y="10.47104" width="36.87598" height="0.75"/><rect class="d" x="-0.00002" y="12.63999" width="36.87598" height="0.75"/><rect class="d" x="-0.00002" y="14.80942" width="36.87598" height="0.75"/><rect class="d" x="-0.00002" y="16.97837" width="36.87598" height="0.75"/><rect class="d" x="-0.00002" y="19.1478" width="36.87598" height="0.75"/><rect class="d" x="-0.00002" y="21.31675" width="36.87598" height="0.75"/><rect class="d" x="-0.00002" y="23.48618" width="36.87598" height="0.75"/><rect class="d" x="-0.00002" y="25.65512" width="36.87598" height="0.75"/><rect class="d" x="-0.00002" y="27.82456" width="36.87598" height="0.75"/><rect class="d" x="-0.00002" y="29.9935" width="36.87598" height="0.75"/><rect class="d" x="-0.00002" y="32.16294" width="36.87598" height="0.75"/><rect class="d" x="-0.00002" y="34.33188" width="36.87598" height="0.75"/><rect class="d" x="-0.00002" y="36.50132" width="36.87598" height="0.75"/></g></pattern></defs><title>values-growth_1</title><path class="f" d="M178.27128,482.68832C309.75794,371.65589,190.075,270.22168,190.075,270.22168"/><path class="g" d="M201.0947,267.027S153.65425,342.1951,70.18932,291.52237.9135,182.3515.9135,182.3515s58.12962-63.3589,111.21934-25.4753S201.0947,267.027,201.0947,267.027Z"/><path class="h" d="M181.48619,271.8424S300.537,347.29505,385.67988,217.97492,410.73952,14.48779,410.73952,14.48779,284.39979-36.78175,234.08386,53.57287,181.48619,271.8424,181.48619,271.8424Z"/></svg>