<svg xmlns="http://www.w3.org/2000/svg" xmlns:xlink="http://www.w3.org/1999/xlink" viewBox="0 0 660.87069 497"><defs><style>.a{fill:none;}.b{fill:#f5edff;}.c{fill:#fce0c0;}.d{fill:url(#a);}.e{fill:url(#b);}</style><pattern id="a" width="36.8761" height="21.29047" patternTransform="matrix(3.2642, 5.31935, -1.71328, 2.33656, 2088.15817, -1182.36027)" patternUnits="userSpaceOnUse" viewBox="0 0 36.876 21.29"><rect class="a" width="36.8761" height="21.29047"/><polygon class="b" points="0 0 0.75 0 0 0.433 0 0"/><polygon class="b" points="4.848 0 0 2.799 0 1.933 3.348 0 4.848 0"/><polygon class="b" points="8.945 0 0 5.164 0 4.298 7.445 0 8.945 0"/><polygon class="b" points="13.042 0 0 7.53 0 6.664 11.542 0 13.042 0"/><polygon class="b" points="17.139 0 0 9.895 0 9.03 15.639 0 17.139 0"/><polygon class="b" points="21.237 0 0 12.261 0 11.395 19.737 0 21.237 0"/><polygon class="b" points="25.334 0 0 14.627 0 13.761 23.834 0 25.334 0"/><polygon class="b" points="29.432 0 0 16.992 0 16.127 27.932 0 29.432 0"/><polygon class="b" points="33.529 0 0 19.358 0 18.492 32.029 0 33.529 0"/><polygon class="b" points="36.876 0 36.876 0.433 0.75 21.291 0 21.291 0 20.858 36.126 0 36.876 0"/><polygon class="b" points="36.876 2.799 4.847 21.291 3.347 21.291 36.876 1.933 36.876 2.799"/><polygon class="b" points="36.876 5.164 8.944 21.291 7.445 21.291 36.876 4.298 36.876 5.164"/><polygon class="b" points="36.876 7.53 13.042 21.291 11.542 21.291 36.876 6.664 36.876 7.53"/><polygon class="b" points="36.876 9.895 17.139 21.291 15.639 21.291 36.876 9.029 36.876 9.895"/><polygon class="b" points="36.876 12.261 21.236 21.291 19.737 21.291 36.876 11.395 36.876 12.261"/><polygon class="b" points="36.876 14.627 25.334 21.291 23.834 21.291 36.876 13.761 36.876 14.627"/><polygon class="b" points="36.876 16.992 29.431 21.291 27.932 21.291 36.876 16.127 36.876 16.992"/><polygon class="b" points="36.876 19.358 33.528 21.291 32.029 21.291 36.876 18.492 36.876 19.358"/><polygon class="b" points="36.876 21.291 36.126 21.291 36.876 20.858 36.876 21.291"/></pattern><pattern id="b" width="36.87604" height="21.29041" patternTransform="matrix(3.2642, 5.31935, -1.71328, 2.33656, 2086.15817, -1182.36027)" patternUnits="userSpaceOnUse" viewBox="0 0 36.876 21.29"><rect class="a" width="36.87604" height="21.29041"/><polygon class="c" points="0 0 0.5 0 0 0.288 0 0"/><polygon class="c" points="4.597 0 0 2.654 0 2.077 3.598 0 4.597 0"/><polygon class="c" points="8.695 0 0 5.02 0 4.443 7.695 0 8.695 0"/><polygon class="c" points="12.792 0 0 7.385 0 6.808 11.793 0 12.792 0"/><polygon class="c" points="16.889 0 0 9.751 0 9.174 15.89 0 16.889 0"/><polygon class="c" points="20.986 0 0 12.116 0 11.54 19.987 0 20.986 0"/><polygon class="c" points="25.083 0 0 14.482 0 13.905 24.084 0 25.083 0"/><polygon class="c" points="29.181 0 0 16.848 0 16.271 28.182 0 29.181 0"/><polygon class="c" points="33.278 0 0 19.213 0 18.636 32.279 0 33.278 0"/><polygon class="c" points="36.876 0 36.876 0.289 0.5 21.29 0 21.29 0 21.002 36.376 0 36.876 0"/><polygon class="c" points="36.876 2.654 4.597 21.29 3.597 21.29 36.876 2.077 36.876 2.654"/><polygon class="c" points="36.876 5.02 8.695 21.29 7.695 21.29 36.876 4.443 36.876 5.02"/><polygon class="c" points="36.876 7.385 12.792 21.29 11.793 21.29 36.876 6.808 36.876 7.385"/><polygon class="c" points="36.876 9.751 16.889 21.29 15.89 21.29 36.876 9.174 36.876 9.751"/><polygon class="c" points="36.876 12.116 20.986 21.29 19.987 21.29 36.876 11.54 36.876 12.116"/><polygon class="c" points="36.876 14.482 25.083 21.29 24.084 21.29 36.876 13.905 36.876 14.482"/><polygon class="c" points="36.876 16.848 29.181 21.29 28.182 21.29 36.876 16.271 36.876 16.848"/><polygon class="c" points="36.876 19.213 33.278 21.29 32.279 21.29 36.876 18.636 36.876 19.213"/><polygon class="c" points="36.876 21.29 36.376 21.29 36.876 21.002 36.876 21.29"/></pattern></defs><title>values-leadership</title><polygon class="d" points="291.914 108.336 0 497 631.043 497 291.914 108.336"/><polygon class="e" points="321.741 0 29.828 388.664 660.871 388.664 321.741 0"/></svg>