<svg id="Layer_1" data-name="Layer 1" xmlns="http://www.w3.org/2000/svg" xmlns:xlink="http://www.w3.org/1999/xlink" viewBox="0 0 1366 618"><defs><style>.cls-1{fill:none;}.cls-2{fill:#cdf2ca;}.cls-3{fill:#e1f6ff;}.cls-4{fill:#e8e8e8;}.cls-5{opacity:0.8;}.cls-6{clip-path:url(#clip-path);}.cls-7{fill:url(#Thin-Grey-Diagonal01);}.cls-8{fill:url(#Thin-Grey-Diagonal01-3);}.cls-9{fill:url(#Thick-Blue-Diagonal04);}.cls-10{fill:url(#Curved-Green);}</style><clipPath id="clip-path"><rect id="SVGID" class="cls-1" width="1366" height="618"/></clipPath><pattern id="Thin-Grey-Diagonal01" data-name="Thin-Grey-Diagonal01" width="36.88" height="21.29" patternTransform="translate(-86.86 6.11) scale(1.48 1.39)" patternUnits="userSpaceOnUse" viewBox="0 0 36.88 21.29"><rect class="cls-1" width="36.88" height="21.29"/><polygon class="cls-4" points="36.88 0 36.38 0 36.88 0.29 36.88 0"/><polygon class="cls-4" points="32.28 0 36.88 2.65 36.88 2.08 33.28 0 32.28 0"/><polygon class="cls-4" points="28.18 0 36.88 5.02 36.88 4.44 29.18 0 28.18 0"/><polygon class="cls-4" points="24.08 0 36.88 7.38 36.88 6.81 25.08 0 24.08 0"/><polygon class="cls-4" points="19.99 0 36.88 9.75 36.88 9.17 20.99 0 19.99 0"/><polygon class="cls-4" points="15.89 0 36.88 12.12 36.88 11.54 16.89 0 15.89 0"/><polygon class="cls-4" points="11.79 0 36.88 14.48 36.88 13.9 12.79 0 11.79 0"/><polygon class="cls-4" points="7.7 0 36.88 16.85 36.88 16.27 8.69 0 7.7 0"/><polygon class="cls-4" points="3.6 0 36.88 19.21 36.88 18.64 4.6 0 3.6 0"/><polygon class="cls-4" points="0 0 0 0.29 36.38 21.29 36.88 21.29 36.88 21 0.5 0 0 0"/><polygon class="cls-4" points="0 2.65 32.28 21.29 33.28 21.29 0 2.08 0 2.65"/><polygon class="cls-4" points="0 5.02 28.18 21.29 29.18 21.29 0 4.44 0 5.02"/><polygon class="cls-4" points="0 7.38 24.08 21.29 25.08 21.29 0 6.81 0 7.38"/><polygon class="cls-4" points="0 9.75 19.99 21.29 20.99 21.29 0 9.17 0 9.75"/><polygon class="cls-4" points="0 12.12 15.89 21.29 16.89 21.29 0 11.54 0 12.12"/><polygon class="cls-4" points="0 14.48 11.79 21.29 12.79 21.29 0 13.9 0 14.48"/><polygon class="cls-4" points="0 16.85 7.7 21.29 8.69 21.29 0 16.27 0 16.85"/><polygon class="cls-4" points="0 19.21 3.6 21.29 4.6 21.29 0 18.64 0 19.21"/><polygon class="cls-4" points="0 21.29 0.5 21.29 0 21 0 21.29"/></pattern><pattern id="Thin-Grey-Diagonal01-3" data-name="Thin-Grey-Diagonal01" width="36.88" height="21.29" patternTransform="translate(-394.94 -122.81) rotate(180) scale(1.48 1.39)" patternUnits="userSpaceOnUse" viewBox="0 0 36.88 21.29"><rect class="cls-1" width="36.88" height="21.29"/><polygon class="cls-4" points="36.88 0 36.38 0 36.88 0.29 36.88 0"/><polygon class="cls-4" points="32.28 0 36.88 2.65 36.88 2.08 33.28 0 32.28 0"/><polygon class="cls-4" points="28.18 0 36.88 5.02 36.88 4.44 29.18 0 28.18 0"/><polygon class="cls-4" points="24.08 0 36.88 7.38 36.88 6.81 25.08 0 24.08 0"/><polygon class="cls-4" points="19.99 0 36.88 9.75 36.88 9.17 20.99 0 19.99 0"/><polygon class="cls-4" points="15.89 0 36.88 12.12 36.88 11.54 16.89 0 15.89 0"/><polygon class="cls-4" points="11.79 0 36.88 14.48 36.88 13.9 12.79 0 11.79 0"/><polygon class="cls-4" points="7.7 0 36.88 16.85 36.88 16.27 8.69 0 7.7 0"/><polygon class="cls-4" points="3.6 0 36.88 19.21 36.88 18.64 4.6 0 3.6 0"/><polygon class="cls-4" points="0 0 0 0.29 36.38 21.29 36.88 21.29 36.88 21 0.5 0 0 0"/><polygon class="cls-4" points="0 2.65 32.28 21.29 33.28 21.29 0 2.08 0 2.65"/><polygon class="cls-4" points="0 5.02 28.18 21.29 29.18 21.29 0 4.44 0 5.02"/><polygon class="cls-4" points="0 7.38 24.08 21.29 25.08 21.29 0 6.81 0 7.38"/><polygon class="cls-4" points="0 9.75 19.99 21.29 20.99 21.29 0 9.17 0 9.75"/><polygon class="cls-4" points="0 12.12 15.89 21.29 16.89 21.29 0 11.54 0 12.12"/><polygon class="cls-4" points="0 14.48 11.79 21.29 12.79 21.29 0 13.9 0 14.48"/><polygon class="cls-4" points="0 16.85 7.7 21.29 8.69 21.29 0 16.27 0 16.85"/><polygon class="cls-4" points="0 19.21 3.6 21.29 4.6 21.29 0 18.64 0 19.21"/><polygon class="cls-4" points="0 21.29 0.5 21.29 0 21 0 21.29"/></pattern><pattern id="Thick-Blue-Diagonal04" data-name="Thick-Blue-Diagonal04" width="36.88" height="21.29" patternTransform="translate(-76.14 -0.19) scale(1.48 1.39)" patternUnits="userSpaceOnUse" viewBox="0 0 36.88 21.29"><rect class="cls-1" width="36.88" height="21.29"/><polygon class="cls-3" points="0 0 0.75 0 0 0.43 0 0"/><polygon class="cls-3" points="4.85 0 0 2.8 0 1.93 3.35 0 4.85 0"/><polygon class="cls-3" points="8.95 0 0 5.16 0 4.3 7.45 0 8.95 0"/><polygon class="cls-3" points="13.04 0 0 7.53 0 6.66 11.54 0 13.04 0"/><polygon class="cls-3" points="17.14 0 0 9.89 0 9.03 15.64 0 17.14 0"/><polygon class="cls-3" points="21.24 0 0 12.26 0 11.39 19.74 0 21.24 0"/><polygon class="cls-3" points="25.33 0 0 14.63 0 13.76 23.83 0 25.33 0"/><polygon class="cls-3" points="29.43 0 0 16.99 0 16.13 27.93 0 29.43 0"/><polygon class="cls-3" points="33.53 0 0 19.36 0 18.49 32.03 0 33.53 0"/><polygon class="cls-3" points="36.88 0 36.88 0.43 0.75 21.29 0 21.29 0 20.86 36.13 0 36.88 0"/><polygon class="cls-3" points="36.88 2.8 4.85 21.29 3.35 21.29 36.88 1.93 36.88 2.8"/><polygon class="cls-3" points="36.88 5.16 8.94 21.29 7.45 21.29 36.88 4.3 36.88 5.16"/><polygon class="cls-3" points="36.88 7.53 13.04 21.29 11.54 21.29 36.88 6.66 36.88 7.53"/><polygon class="cls-3" points="36.88 9.89 17.14 21.29 15.64 21.29 36.88 9.03 36.88 9.89"/><polygon class="cls-3" points="36.88 12.26 21.24 21.29 19.74 21.29 36.88 11.39 36.88 12.26"/><polygon class="cls-3" points="36.88 14.63 25.33 21.29 23.83 21.29 36.88 13.76 36.88 14.63"/><polygon class="cls-3" points="36.88 16.99 29.43 21.29 27.93 21.29 36.88 16.13 36.88 16.99"/><polygon class="cls-3" points="36.88 19.36 33.53 21.29 32.03 21.29 36.88 18.49 36.88 19.36"/><polygon class="cls-3" points="36.88 21.29 36.13 21.29 36.88 20.86 36.88 21.29"/></pattern><pattern id="Curved-Green" data-name="Curved-Green" width="22.24" height="24.72" patternTransform="translate(-67.02 1.11) scale(1.48 1.39)" patternUnits="userSpaceOnUse" viewBox="0 0 22.24 24.72"><rect class="cls-1" width="22.24" height="24.72"/><polygon class="cls-2" points="16.68 0.35 16.68 0.66 16.68 0.66 16.68 0.35 16.68 0.35"/><polygon class="cls-2" points="16.68 24.06 16.68 24.37 16.68 24.37 16.68 24.06 16.68 24.06"/><path class="cls-2" d="M27.8,22.2v.5h0a6,6,0,0,1-1.1,1,2.28,2.28,0,0,0,1.1.32v.31a2.7,2.7,0,0,1-1.38-.43,2.76,2.76,0,0,1-1.39.43,2.73,2.73,0,0,1-1.39-.43,2.76,2.76,0,0,1-1.39.43,2.73,2.73,0,0,1-1.39-.43,2.76,2.76,0,0,1-1.39.43H19.4A3.24,3.24,0,0,1,18,24a2.59,2.59,0,0,1-1.3.39v-.31a2.21,2.21,0,0,0,1-.26,3.78,3.78,0,0,1-1-1.06V22.2a15.54,15.54,0,0,0,1.21-1.86c-.21-.38-.33-.65-.35-.7L16.68,18v-.67L17.89,15l-1.21-2.32V12l1.21-2.32L16.68,7.39V6.72l.86-1.65s.15-.31.35-.69a15.54,15.54,0,0,0-1.21-1.86V2a4.15,4.15,0,0,1,.75-.8L17.77,1A2.21,2.21,0,0,0,16.68.66V.35a2.71,2.71,0,0,1,1.4.44A2.75,2.75,0,0,1,19.47.35h0a2.75,2.75,0,0,1,1.4.42A2.65,2.65,0,0,1,22.24.35a2.76,2.76,0,0,1,1.39.43A2.73,2.73,0,0,1,25,.35a2.76,2.76,0,0,1,1.39.43A2.7,2.7,0,0,1,27.79.35V.66a2.28,2.28,0,0,0-1.1.32,6,6,0,0,1,1.1,1h0v.5h0a14.83,14.83,0,0,0-1.21,1.87c.21.38.33.65.35.7l.86,1.64h0v.67h0L26.58,9.71,27.79,12h0v.66h0L26.58,15l1.21,2.32h0V18h0l-.86,1.65s-.14.31-.35.69a14.83,14.83,0,0,0,1.21,1.87Zm-1.39-6.85-1.22,2.32,1,1.84a4.74,4.74,0,0,0,.25.5c.15-.29.24-.48.24-.49l1-1.85ZM20.85,10l-1.22,2.32,1.22,2.32,1.21-2.32Zm1.39,2,1.21-2.32L22.24,7.39,21,9.71ZM21,15l1.22,2.32L23.45,15l-1.21-2.32Zm2.61-.33,1.21-2.32L23.63,10l-1.22,2.32Zm.17.33L25,17.33,26.23,15,25,12.69ZM25,12l1.21-2.32L25,7.39,23.8,9.71Zm.86-7s.14-.31.35-.69A14.83,14.83,0,0,0,25,2.51a14.35,14.35,0,0,0-1.21,1.85,6.88,6.88,0,0,1,.34.72L25,6.72ZM23.63,4.7l-.25.5-1,1.85,1.22,2.32,1.21-2.32-1-1.84S23.78,5,23.63,4.7Zm-.17-.34a12.77,12.77,0,0,0-1.2-1.88A15.09,15.09,0,0,0,21,4.38c.21.38.33.65.35.7l.87,1.64.86-1.65S23.25,4.75,23.46,4.36Zm-2.61.35c-.16.29-.24.48-.25.49l-1,1.85,1.22,2.32,1.21-2.32-1-1.84S21,5,20.85,4.71Zm-.18-.33a13.78,13.78,0,0,0-1.21-1.87,14,14,0,0,0-1.22,1.87c.21.38.33.65.35.7l.87,1.64.86-1.65S20.47,4.76,20.67,4.38Zm-1.21,3L18.24,9.71,19.46,12l1.21-2.32Zm0,5.3L18.24,15l1.22,2.32L20.67,15Zm0,5.31-.87,1.65s-.14.31-.35.69a14,14,0,0,0,1.22,1.87,13.78,13.78,0,0,0,1.21-1.87c-.21-.38-.33-.65-.35-.7Zm1.39,2c.15-.29.24-.48.24-.49l1-1.85-1.21-2.32-1.22,2.32,1,1.84A4.74,4.74,0,0,0,20.85,20Zm.17.33a13.3,13.3,0,0,0,1.22,1.86,13.15,13.15,0,0,0,1.21-1.86c-.21-.38-.33-.65-.35-.7L22.24,18l-.87,1.65S21.23,20,21,20.34ZM23.63,20c.15-.29.24-.48.24-.49l1-1.85-1.21-2.32-1.22,2.32,1,1.84A4.74,4.74,0,0,0,23.63,20Zm.17.33A14,14,0,0,0,25,22.21a14.83,14.83,0,0,0,1.21-1.87c-.21-.38-.33-.65-.35-.7L25,18l-.87,1.65S24,20,23.8,20.34ZM26.41,10l-1.22,2.32,1.22,2.32,1.21-2.32Zm0-5.33a5.34,5.34,0,0,0-.25.49l-1,1.85,1.22,2.32,1.21-2.32-1-1.84S26.56,5,26.41,4.71ZM25.22,2.27a14.12,14.12,0,0,1,1.19,1.78,13,13,0,0,1,1.18-1.78,6.14,6.14,0,0,0-1.18-1.11A5.91,5.91,0,0,0,25.22,2.27ZM23.91,1A6.44,6.44,0,0,1,25,2a6,6,0,0,1,1.1-1,2.07,2.07,0,0,0-2.21,0ZM22.47,2.24A13.2,13.2,0,0,1,23.64,4a13,13,0,0,1,1.17-1.76,6.14,6.14,0,0,0-1.18-1.11A5.6,5.6,0,0,0,22.47,2.24Zm-.73-.8a6.76,6.76,0,0,1,.52.55,6.41,6.41,0,0,1,1.08-1,2.28,2.28,0,0,0-1.1-.32,2.38,2.38,0,0,0-1.08.3,6.71,6.71,0,0,1,.58.48m-.87-.3a5.83,5.83,0,0,0-1.21,1.13,14.12,14.12,0,0,1,1.19,1.78,12.65,12.65,0,0,1,1.21-1.81A5.85,5.85,0,0,0,20.87,1.14ZM18.36,1a6.77,6.77,0,0,1,1.1,1A6.22,6.22,0,0,1,20.58,1,2.42,2.42,0,0,0,19.46.66,2.39,2.39,0,0,0,18.36,1Zm-.29,3.07a13,13,0,0,1,1.18-1.78,6,6,0,0,0-1.19-1.12l-.44.31a3.85,3.85,0,0,0-.74.8A14.93,14.93,0,0,1,18.07,4.05Zm0,5.32,1.21-2.32-1-1.84s-.1-.21-.25-.5c-.16.29-.24.48-.25.49l-1,1.85Zm0,5.31,1.21-2.32L18.07,10l-1.22,2.32Zm0,5.33c.15-.29.24-.48.24-.49l1-1.85-1.21-2.32-1.22,2.32,1,1.84A4.74,4.74,0,0,0,18.07,20Zm1.18,2.44a13,13,0,0,1-1.18-1.78,14.39,14.39,0,0,1-1.2,1.8A3.27,3.27,0,0,0,18,23.63,5.86,5.86,0,0,0,19.25,22.45Zm1.31,1.29a6,6,0,0,1-1.1-1,6.43,6.43,0,0,1-1.18,1.1,2.86,2.86,0,0,0,1.17.27A2.29,2.29,0,0,0,20.56,23.74ZM22,22.45a13,13,0,0,1-1.18-1.78,14.12,14.12,0,0,1-1.19,1.78,6.14,6.14,0,0,0,1.18,1.11A5.91,5.91,0,0,0,22,22.45Zm1.31,1.29a6,6,0,0,1-1.1-1,6.44,6.44,0,0,1-1.11,1,2.07,2.07,0,0,0,2.21,0Zm1.47-1.29a13,13,0,0,1-1.18-1.78,14.12,14.12,0,0,1-1.19,1.78,5.91,5.91,0,0,0,1.19,1.11A6.14,6.14,0,0,0,24.81,22.45Zm1.31,1.29a6,6,0,0,1-1.1-1,6.44,6.44,0,0,1-1.11,1,2.07,2.07,0,0,0,2.21,0Zm1.47-1.29a13,13,0,0,1-1.18-1.78,14.12,14.12,0,0,1-1.19,1.78,5.91,5.91,0,0,0,1.19,1.11A6.14,6.14,0,0,0,27.59,22.45Z"/><polygon class="cls-2" points="5.56 0.35 5.56 0.66 5.56 0.66 5.56 0.35 5.56 0.35"/><polygon class="cls-2" points="5.56 24.06 5.56 24.37 5.56 24.37 5.56 24.06 5.56 24.06"/><path class="cls-2" d="M16.68,22.2v.5h0a6.44,6.44,0,0,1-1.11,1,2.29,2.29,0,0,0,1.11.32v.31a2.73,2.73,0,0,1-1.39-.43,2.76,2.76,0,0,1-1.39.43,2.73,2.73,0,0,1-1.39-.43,2.76,2.76,0,0,1-1.39.43,2.73,2.73,0,0,1-1.39-.43,2.76,2.76,0,0,1-1.39.43H8.29A3.24,3.24,0,0,1,6.86,24a2.59,2.59,0,0,1-1.3.39v-.31a2.21,2.21,0,0,0,1-.26,3.78,3.78,0,0,1-1-1.06V22.2a13.4,13.4,0,0,0,1.21-1.86c-.2-.38-.33-.65-.35-.7L5.56,18v-.67L6.77,15,5.56,12.69V12L6.77,9.71,5.56,7.39V6.72l.87-1.65s.14-.31.34-.69A14.39,14.39,0,0,0,5.56,2.52V2a4.49,4.49,0,0,1,.75-.8L6.65,1A2.21,2.21,0,0,0,5.56.66V.35A2.68,2.68,0,0,1,7,.79,2.75,2.75,0,0,1,8.35.35h0a2.7,2.7,0,0,1,1.4.42A2.68,2.68,0,0,1,11.12.35a2.76,2.76,0,0,1,1.39.43A2.73,2.73,0,0,1,13.9.35a2.76,2.76,0,0,1,1.39.43A2.73,2.73,0,0,1,16.68.35V.66A2.29,2.29,0,0,0,15.57,1a6.44,6.44,0,0,1,1.11,1h0v.5h0a14,14,0,0,0-1.22,1.87c.21.38.33.65.35.7l.87,1.64h0v.67h0L15.46,9.71,16.68,12h0v.66h0L15.46,15l1.22,2.32h0V18h0l-.87,1.65s-.14.31-.35.69a14,14,0,0,0,1.22,1.87Zm-1.39-6.85-1.22,2.32,1,1.84a4.74,4.74,0,0,0,.25.5c.15-.29.24-.48.24-.49l1-1.85ZM9.73,10,8.51,12.36l1.22,2.32,1.21-2.32Zm1.39,2,1.21-2.32L11.12,7.39,9.9,9.71ZM9.9,15l1.22,2.32L12.33,15l-1.21-2.32Zm2.61-.33,1.21-2.32L12.51,10l-1.22,2.32Zm.17.33,1.22,2.32L15.11,15,13.9,12.69Zm1.22-3,1.21-2.32L13.9,7.39,12.68,9.71Zm.86-7s.15-.31.35-.69A13.78,13.78,0,0,0,13.9,2.51a14.35,14.35,0,0,0-1.21,1.85c.21.39.33.67.35.72l.86,1.64ZM12.51,4.7l-.25.5-1,1.85,1.22,2.32,1.21-2.32-1-1.84S12.66,5,12.51,4.7Zm-.17-.34a12.77,12.77,0,0,0-1.2-1.88,13.89,13.89,0,0,0-1.23,1.9c.2.38.33.65.35.7l.86,1.64L12,5.07S12.13,4.75,12.34,4.36Zm-2.61.35-.25.49-1,1.85L9.73,9.37l1.21-2.32L10,5.21S9.88,5,9.73,4.71Zm-.18-.33A13.78,13.78,0,0,0,8.34,2.51,12.88,12.88,0,0,0,7.13,4.38c.2.38.33.65.35.7l.86,1.64.87-1.65S9.35,4.76,9.55,4.38Zm-1.21,3L7.12,9.71,8.34,12,9.55,9.71Zm0,5.3L7.12,15l1.22,2.32L9.55,15Zm0,5.31-.87,1.65s-.14.31-.34.69a12.88,12.88,0,0,0,1.21,1.87,13.78,13.78,0,0,0,1.21-1.87c-.2-.38-.33-.65-.35-.7Zm1.39,2c.15-.29.24-.48.24-.49l1-1.85L9.73,15.35,8.51,17.67l1,1.84A4.74,4.74,0,0,0,9.73,20Zm.18.33a12.32,12.32,0,0,0,1.21,1.86,13.15,13.15,0,0,0,1.21-1.86c-.2-.38-.33-.65-.35-.7L11.12,18l-.87,1.65S10.11,20,9.91,20.34Zm2.6-.33c.15-.29.24-.48.24-.49l1-1.85-1.21-2.32-1.22,2.32,1,1.84A4.74,4.74,0,0,0,12.51,20Zm.18.33a12.88,12.88,0,0,0,1.21,1.87,13.78,13.78,0,0,0,1.21-1.87c-.21-.38-.33-.65-.35-.7L13.9,18,13,19.65S12.89,20,12.69,20.34ZM15.29,10l-1.22,2.32,1.22,2.32,1.21-2.32Zm0-5.33c-.16.29-.24.48-.25.49l-1,1.85,1.22,2.32L16.5,7.05l-1-1.84S15.44,5,15.29,4.71ZM14.1,2.27a14.12,14.12,0,0,1,1.19,1.78,13,13,0,0,1,1.18-1.78,6.14,6.14,0,0,0-1.18-1.11A5.91,5.91,0,0,0,14.1,2.27ZM12.8,1a6.77,6.77,0,0,1,1.1,1A6,6,0,0,1,15,1,2.25,2.25,0,0,0,13.9.66,2.22,2.22,0,0,0,12.8,1ZM11.35,2.24A12.3,12.3,0,0,1,12.52,4a13,13,0,0,1,1.17-1.76,6.14,6.14,0,0,0-1.18-1.11A5.6,5.6,0,0,0,11.35,2.24Zm-.73-.8c.18.17.36.36.53.55a6,6,0,0,1,1.07-1,2.25,2.25,0,0,0-1.1-.32,2.3,2.3,0,0,0-1.07.3,6.57,6.57,0,0,1,.57.48m-.87-.3A6.09,6.09,0,0,0,8.54,2.27,14.12,14.12,0,0,1,9.73,4.05a13.56,13.56,0,0,1,1.21-1.81A5.85,5.85,0,0,0,9.75,1.14ZM7.24,1a6.39,6.39,0,0,1,1.1,1A6.22,6.22,0,0,1,9.46,1,2.39,2.39,0,0,0,8.34.66,2.39,2.39,0,0,0,7.24,1ZM7,4.05A14,14,0,0,1,8.13,2.27,6.2,6.2,0,0,0,7,1.15a5.23,5.23,0,0,0-.45.31,3.85,3.85,0,0,0-.74.8A14.93,14.93,0,0,1,7,4.05ZM7,9.37,8.16,7.05l-1-1.84L7,4.71,6.7,5.2l-1,1.85Zm0,5.31,1.21-2.32L7,10,5.73,12.36ZM7,20c.15-.29.24-.48.24-.49l1-1.85L7,15.35,5.73,17.67l1,1.84A4.74,4.74,0,0,0,7,20Zm1.18,2.44A14,14,0,0,1,7,20.67a13.36,13.36,0,0,1-1.2,1.8,3.36,3.36,0,0,0,1.11,1.16A5.86,5.86,0,0,0,8.13,22.45Zm1.31,1.29a6,6,0,0,1-1.1-1,6.71,6.71,0,0,1-1.17,1.1,2.83,2.83,0,0,0,1.16.27A2.29,2.29,0,0,0,9.44,23.74Zm1.47-1.29a14,14,0,0,1-1.18-1.78,14.12,14.12,0,0,1-1.19,1.78,5.91,5.91,0,0,0,1.19,1.11A6.14,6.14,0,0,0,10.91,22.45Zm1.31,1.29a6,6,0,0,1-1.1-1,6.77,6.77,0,0,1-1.1,1,2.22,2.22,0,0,0,1.1.32A2.25,2.25,0,0,0,12.22,23.74Zm1.47-1.29a13,13,0,0,1-1.18-1.78,14.12,14.12,0,0,1-1.19,1.78,5.91,5.91,0,0,0,1.19,1.11A6.14,6.14,0,0,0,13.69,22.45ZM15,23.74a6,6,0,0,1-1.1-1,6.77,6.77,0,0,1-1.1,1,2.22,2.22,0,0,0,1.1.32A2.25,2.25,0,0,0,15,23.74Zm1.47-1.29a13,13,0,0,1-1.18-1.78,14.12,14.12,0,0,1-1.19,1.78,5.91,5.91,0,0,0,1.19,1.11A6.14,6.14,0,0,0,16.47,22.45Z"/><path class="cls-2" d="M5.56,22.2v.5h0a6.77,6.77,0,0,1-1.1,1,2.22,2.22,0,0,0,1.1.32v.31a2.73,2.73,0,0,1-1.39-.43,2.76,2.76,0,0,1-1.39.43,2.76,2.76,0,0,1-1.39-.43A2.76,2.76,0,0,1,0,24.37a2.76,2.76,0,0,1-1.39-.43,2.76,2.76,0,0,1-1.39.43h-.05A3.18,3.18,0,0,1-4.25,24a2.65,2.65,0,0,1-1.31.39v-.31a2.29,2.29,0,0,0,1-.26,3.66,3.66,0,0,1-1-1.06V22.2a13.4,13.4,0,0,0,1.21-1.86c-.2-.38-.33-.65-.35-.7L-5.56,18v-.67L-4.34,15l-1.22-2.32V12l1.22-2.32L-5.56,7.39V6.72l.87-1.65s.14-.31.34-.69A13.4,13.4,0,0,0-5.56,2.52V2a4.19,4.19,0,0,1,.76-.8A3.29,3.29,0,0,1-4.47,1,2.18,2.18,0,0,0-5.56.66V.35a2.68,2.68,0,0,1,1.4.44A2.79,2.79,0,0,1-2.77.35h0A2.76,2.76,0,0,1-1.36.77,2.64,2.64,0,0,1,0,.35,2.76,2.76,0,0,1,1.39.78,2.76,2.76,0,0,1,2.78.35,2.76,2.76,0,0,1,4.17.78,2.73,2.73,0,0,1,5.56.35V.66A2.22,2.22,0,0,0,4.46,1a6.77,6.77,0,0,1,1.1,1h0v.5h0A12.88,12.88,0,0,0,4.35,4.38c.2.38.33.65.35.7l.86,1.64h0v.67h0L4.34,9.71,5.56,12h0v.66h0L4.34,15l1.22,2.32h0V18h0l-.87,1.65s-.14.31-.34.69a12.88,12.88,0,0,0,1.21,1.87ZM4.17,15.35,3,17.67l1,1.84a4.74,4.74,0,0,0,.25.5c.15-.29.24-.48.24-.49l1-1.85ZM-1.39,10l-1.22,2.32,1.22,2.32,1.22-2.32ZM0,12,1.22,9.71,0,7.39-1.22,9.71Zm-1.22,3L0,17.33,1.22,15,0,12.69Zm2.61-.33,1.22-2.32L1.39,10,.17,12.36Zm.17.33,1.22,2.32L4,15,2.78,12.69Zm1.22-3L4,9.71,2.78,7.39,1.56,9.71Zm.87-7s.14-.31.34-.69A13.78,13.78,0,0,0,2.78,2.51a13.2,13.2,0,0,0-1.2,1.85c.2.39.32.67.34.72l.86,1.64ZM1.4,4.7l-.26.5-1,1.85L1.39,9.37,2.61,7.05l-1-1.84S1.55,5,1.4,4.7Zm-.18-.34A12.77,12.77,0,0,0,0,2.48a13.89,13.89,0,0,0-1.23,1.9c.2.38.33.65.35.7L0,6.72.87,5.07S1,4.75,1.22,4.36Zm-2.61.35c-.15.29-.24.48-.24.49l-1,1.85,1.22,2.32L-.17,7.05l-1-1.84S-1.24,5-1.39,4.71Zm-.18-.33A12.88,12.88,0,0,0-2.78,2.51,12.88,12.88,0,0,0-4,4.38c.2.38.33.65.35.7l.86,1.64.87-1.65S-1.77,4.76-1.57,4.38Zm-1.21,3L-4,9.71-2.78,12l1.22-2.32Zm0,5.3L-4,15l1.22,2.32L-1.56,15Zm0,5.31-.87,1.65s-.14.31-.34.69a13.78,13.78,0,0,0,1.21,1.87,12.88,12.88,0,0,0,1.21-1.87c-.2-.38-.33-.65-.35-.7Zm1.39,2,.25-.49,1-1.85-1.22-2.32-1.22,2.32,1,1.84S-1.54,19.72-1.39,20Zm.18.33A12.32,12.32,0,0,0,0,22.2a12.32,12.32,0,0,0,1.21-1.86c-.2-.38-.33-.65-.35-.7L0,18l-.87,1.65S-1,20-1.21,20.34ZM1.39,20c.15-.29.24-.48.24-.49l1-1.85L1.39,15.35.17,17.67l1,1.84S1.24,19.72,1.39,20Zm.18.33a12.88,12.88,0,0,0,1.21,1.87A13.78,13.78,0,0,0,4,20.34c-.2-.38-.33-.65-.35-.7L2.78,18l-.87,1.65S1.77,20,1.57,20.34ZM4.17,10,3,12.36l1.22,2.32,1.21-2.32Zm0-5.33-.25.49L3,7.05,4.17,9.37,5.38,7.05l-1-1.84S4.32,5,4.17,4.71ZM3,2.27A13.11,13.11,0,0,1,4.17,4.05,14,14,0,0,1,5.35,2.27,6.14,6.14,0,0,0,4.17,1.16,5.91,5.91,0,0,0,3,2.27ZM1.68,1a6.77,6.77,0,0,1,1.1,1,6.39,6.39,0,0,1,1.1-1A2.22,2.22,0,0,0,2.78.66,2.22,2.22,0,0,0,1.68,1ZM.23,2.24A12.3,12.3,0,0,1,1.4,4,12.29,12.29,0,0,1,2.58,2.27,6.18,6.18,0,0,0,1.39,1.16,5.86,5.86,0,0,0,.23,2.24Zm-.73-.8A6.88,6.88,0,0,1,0,2,6.76,6.76,0,0,1,1.1,1,2.22,2.22,0,0,0,0,.66,2.3,2.3,0,0,0-1.07,1a6.57,6.57,0,0,1,.57.48m-.87-.3A6.09,6.09,0,0,0-2.58,2.27,13.11,13.11,0,0,1-1.39,4.05,13.56,13.56,0,0,1-.18,2.24,5.85,5.85,0,0,0-1.37,1.14ZM-3.88,1a6,6,0,0,1,1.1,1A6.56,6.56,0,0,1-1.66,1,2.39,2.39,0,0,0-2.78.66,2.42,2.42,0,0,0-3.88,1Zm-.29,3.07A13.11,13.11,0,0,1-3,2.27,6.56,6.56,0,0,0-4.17,1.15l-.45.31a4.14,4.14,0,0,0-.74.8A13.81,13.81,0,0,1-4.17,4.05Zm0,5.32,1.22-2.32-1-1.84a4.74,4.74,0,0,0-.25-.5c-.15.29-.24.48-.24.49l-1,1.85Zm0,5.31,1.22-2.32L-4.17,10l-1.21,2.32Zm0,5.33.25-.49,1-1.85-1.22-2.32-1.21,2.32,1,1.84S-4.32,19.72-4.17,20ZM-3,22.45a13.11,13.11,0,0,1-1.19-1.78,13.36,13.36,0,0,1-1.2,1.8,3.36,3.36,0,0,0,1.11,1.16A6.15,6.15,0,0,0-3,22.45Zm1.3,1.29a6.77,6.77,0,0,1-1.1-1,6.71,6.71,0,0,1-1.17,1.1,2.83,2.83,0,0,0,1.16.27A2.29,2.29,0,0,0-1.68,23.74ZM-.2,22.45a13.11,13.11,0,0,1-1.19-1.78,13.11,13.11,0,0,1-1.19,1.78,6.18,6.18,0,0,0,1.19,1.11A6.49,6.49,0,0,0-.2,22.45Zm1.3,1.29a6.77,6.77,0,0,1-1.1-1,6.77,6.77,0,0,1-1.1,1,2.22,2.22,0,0,0,1.1.32A2.22,2.22,0,0,0,1.1,23.74Zm1.48-1.29a13.11,13.11,0,0,1-1.19-1.78A13.11,13.11,0,0,1,.2,22.45a6.18,6.18,0,0,0,1.19,1.11A6.18,6.18,0,0,0,2.58,22.45Zm1.3,1.29a6.77,6.77,0,0,1-1.1-1,6.77,6.77,0,0,1-1.1,1,2.22,2.22,0,0,0,1.1.32A2.22,2.22,0,0,0,3.88,23.74Zm1.47-1.29a14,14,0,0,1-1.18-1.78A13.11,13.11,0,0,1,3,22.45a5.91,5.91,0,0,0,1.19,1.11A6.14,6.14,0,0,0,5.35,22.45Z"/></pattern></defs><title>cw-v4 practice</title><g class="cls-5"><g class="cls-6"><polygon class="cls-7" points="1623.8 618 697.21 618 697.21 515.05 1256.66 198.41 1256.66 340.22 1623.8 134.31 1623.8 618"/><polygon class="cls-8" points="-372.8 -2.69 553.79 -2.69 553.79 161.26 -5.66 477.9 -5.66 275.09 -372.8 481 -372.8 -2.69"/><polygon class="cls-9" points="426.91 728.61 107.38 642.02 9.11 279.37 328.63 365.95 426.91 728.61"/><polygon class="cls-10" points="329.91 801.61 10.38 715.02 -87.89 352.37 231.63 438.95 329.91 801.61"/><polygon class="cls-10" points="1081.99 -215.58 1404.91 -27.91 1406.11 396 1083.19 208.33 1081.99 -215.58"/><polygon class="cls-9" points="954.96 -164.35 1277.89 23.32 1279.09 447.23 956.16 259.56 954.96 -164.35"/></g></g></svg>