<svg id="Layer_1" data-name="Layer 1" xmlns="http://www.w3.org/2000/svg" xmlns:xlink="http://www.w3.org/1999/xlink" viewBox="0 0 926 1006"><defs><style>.cls-1{fill:none;}.cls-2{fill:#cdf2fc;}.cls-3{fill:#fce0c0;}.cls-4{fill:#e8e8e8;}.cls-5{clip-path:url(#clip-path);}.cls-6,.cls-7,.cls-8{opacity:0.6;isolation:isolate;}.cls-6{fill:url(#d);}.cls-7{fill:url(#e);}.cls-8{fill:url(#c);}</style><clipPath id="clip-path"><rect class="cls-1" width="926" height="1006"/></clipPath><pattern id="d" data-name="d" width="36.9" height="21.3" patternTransform="translate(9650.73 10205.92) scale(2.18 2.05)" patternUnits="userSpaceOnUse" viewBox="0 0 36.9 21.3"><rect class="cls-1" width="36.9" height="21.3"/><rect class="cls-1" width="36.9" height="21.3"/><rect class="cls-1" width="36.9" height="21.3"/><rect class="cls-1" width="36.9" height="21.3"/><rect class="cls-1" width="36.9" height="21.3"/><polygon class="cls-3" points="36.9 0 36.4 0 36.9 0.3 36.9 0"/><polygon class="cls-3" points="32.3 0 36.9 2.7 36.9 2.1 33.3 0 32.3 0"/><polygon class="cls-3" points="28.2 0 36.9 5 36.9 4.4 29.2 0 28.2 0"/><polygon class="cls-3" points="24.1 0 36.9 7.4 36.9 6.8 25.1 0 24.1 0"/><polygon class="cls-3" points="20 0 36.9 9.8 36.9 9.2 21 0 20 0"/><polygon class="cls-3" points="15.9 0 36.9 12.1 36.9 11.5 16.9 0 15.9 0"/><polygon class="cls-3" points="11.8 0 36.9 14.5 36.9 13.9 12.8 0 11.8 0"/><polygon class="cls-3" points="7.7 0 36.9 16.9 36.9 16.3 8.7 0 7.7 0"/><polygon class="cls-3" points="3.6 0 36.9 19.2 36.9 18.6 4.6 0 3.6 0"/><polygon class="cls-3" points="0 0 0 0.3 36.4 21.3 36.9 21.3 36.9 21 0.5 0 0 0"/><polygon class="cls-3" points="0 2.7 32.3 21.3 33.3 21.3 0 2.1 0 2.7"/><polygon class="cls-3" points="0 5 28.2 21.3 29.2 21.3 0 4.4 0 5"/><polygon class="cls-3" points="0 7.4 24.1 21.3 25.1 21.3 0 6.8 0 7.4"/><polygon class="cls-3" points="0 9.8 20 21.3 21 21.3 0 9.2 0 9.8"/><polygon class="cls-3" points="0 12.1 15.9 21.3 16.9 21.3 0 11.5 0 12.1"/><polygon class="cls-3" points="0 14.5 11.8 21.3 12.8 21.3 0 13.9 0 14.5"/><polygon class="cls-3" points="0 16.9 7.7 21.3 8.7 21.3 0 16.3 0 16.9"/><polygon class="cls-3" points="0 19.2 3.6 21.3 4.6 21.3 0 18.6 0 19.2"/><polygon class="cls-3" points="0 21.3 0.5 21.3 0 21 0 21.3"/></pattern><pattern id="e" data-name="e" width="36.9" height="21.3" patternTransform="translate(9570.29 10411.75) scale(2.18 2.05)" patternUnits="userSpaceOnUse" viewBox="0 0 36.9 21.3"><rect class="cls-1" width="36.9" height="21.3"/><rect class="cls-1" width="36.9" height="21.3"/><rect class="cls-1" width="36.9" height="21.3"/><rect class="cls-1" width="36.9" height="21.3"/><rect class="cls-1" width="36.9" height="21.3"/><polygon class="cls-4" points="0 0 0.8 0 0 0.4 0 0"/><polygon class="cls-4" points="4.8 0 0 2.8 0 1.9 3.3 0 4.8 0"/><polygon class="cls-4" points="8.9 0 0 5.2 0 4.3 7.4 0 8.9 0"/><polygon class="cls-4" points="13 0 0 7.5 0 6.7 11.5 0 13 0"/><polygon class="cls-4" points="17.1 0 0 9.9 0 9 15.6 0 17.1 0"/><polygon class="cls-4" points="21.2 0 0 12.3 0 11.4 19.7 0 21.2 0"/><polygon class="cls-4" points="25.3 0 0 14.6 0 13.8 23.8 0 25.3 0"/><polygon class="cls-4" points="29.4 0 0 17 0 16.1 27.9 0 29.4 0"/><polygon class="cls-4" points="33.5 0 0 19.4 0 18.5 32 0 33.5 0"/><polygon class="cls-4" points="36.9 0 36.9 0.4 0.8 21.3 0 21.3 0 20.9 36.1 0 36.9 0"/><polygon class="cls-4" points="36.9 2.8 4.8 21.3 3.3 21.3 36.9 1.9 36.9 2.8"/><polygon class="cls-4" points="36.9 5.2 8.9 21.3 7.4 21.3 36.9 4.3 36.9 5.2"/><polygon class="cls-4" points="36.9 7.5 13 21.3 11.5 21.3 36.9 6.7 36.9 7.5"/><polygon class="cls-4" points="36.9 9.9 17.1 21.3 15.6 21.3 36.9 9 36.9 9.9"/><polygon class="cls-4" points="36.9 12.3 21.2 21.3 19.7 21.3 36.9 11.4 36.9 12.3"/><polygon class="cls-4" points="36.9 14.6 25.3 21.3 23.8 21.3 36.9 13.8 36.9 14.6"/><polygon class="cls-4" points="36.9 17 29.4 21.3 27.9 21.3 36.9 16.1 36.9 17"/><polygon class="cls-4" points="36.9 19.4 33.5 21.3 32 21.3 36.9 18.5 36.9 19.4"/><polygon class="cls-4" points="36.9 21.3 36.1 21.3 36.9 20.9 36.9 21.3"/></pattern><pattern id="c" data-name="c" width="22.2" height="24.7" patternTransform="translate(8366.16 9091.94) scale(2.04 1.91)" patternUnits="userSpaceOnUse" viewBox="0 0 22.2 24.7"><rect class="cls-1" width="22.2" height="24.7"/><rect class="cls-1" width="22.2" height="24.7"/><rect class="cls-1" width="22.2" height="24.7"/><rect class="cls-1" width="22.2" height="24.7"/><rect class="cls-1" width="22.2" height="24.7"/><polygon class="cls-2" points="16.6 0.3 16.6 0.6 16.6 0.6 16.6 0.3"/><polygon class="cls-2" points="16.6 24 16.6 24.4 16.6 24.4 16.6 24"/><path class="cls-2" d="M27.8,22.2v.5a5.5,5.5,0,0,1-1.1,1,2,2,0,0,0,1.1.3v.3a3.28,3.28,0,0,1-1.4-.4,2.32,2.32,0,0,1-1.4.4,3.28,3.28,0,0,1-1.4-.4,2.32,2.32,0,0,1-1.4.4,3.28,3.28,0,0,1-1.4-.4,3.28,3.28,0,0,1-1.4.4A3.24,3.24,0,0,1,18,24a2.83,2.83,0,0,1-1.3.4v-.3a2,2,0,0,0,1-.3,5.5,5.5,0,0,1-1-1.1v-.5a12.15,12.15,0,0,0,1.2-1.9c-.2-.4-.3-.7-.4-.7L16.6,18v-.7L17.8,15l-1.2-2.3V12l1.2-2.3L16.6,7.4V6.7l.9-1.6c.1-.2.2-.5.3-.7-.4-.6-.8-1.3-1.2-1.9V2a3,3,0,0,1,.8-.8l.3-.2A2,2,0,0,0,16.6.7V.4A3.28,3.28,0,0,1,18,.8,2.32,2.32,0,0,1,19.4.4a3.28,3.28,0,0,1,1.4.4,2.4,2.4,0,0,1,2.8,0,2.4,2.4,0,0,1,2.8,0A2.32,2.32,0,0,1,27.8.4V.7a2,2,0,0,0-1.1.3,5.5,5.5,0,0,1,1.1,1v.5a12.15,12.15,0,0,0-1.2,1.9c.11.23.21.46.3.7l.9,1.7v.7L26.5,9.7,27.7,12v.7L26.5,15l1.2,2.3V18l-.9,1.7a2.7,2.7,0,0,1-.4.7C26.9,21,27.3,21.6,27.8,22.2Zm-1.4-6.9-1.2,2.3,1,1.8a1,1,0,0,0,.2.6,1,1,0,0,0,.2-.5l1-1.9ZM20.8,10l-1.2,2.3,1.2,2.3L22,12.3Zm1.4,2,1.2-2.3L22.2,7.4,21,9.7ZM21,15l1.2,2.3L23.4,15l-1.2-2.3Zm2.6-.4,1.2-2.3L23.6,10l-1.2,2.3Zm.1.4,1.2,2.3L26.1,15,25,12.7ZM25,12l1.2-2.3L25,7.4,23.8,9.7Zm.8-7c.1-.2.2-.5.3-.7L24.9,2.5a7.53,7.53,0,0,0-1.2,1.9c.1.2.2.5.3.7l.9,1.6Zm-2.2-.4-.2.5L22.4,7l1.2,2.3L24.8,7l-1-1.8C23.7,5,23.7,4.8,23.6,4.6Zm-.2-.3a7.53,7.53,0,0,0-1.2-1.9,8.3,8.3,0,0,0-1.2,2c.11.23.21.46.3.7l.9,1.6.9-1.6Zm-2.6.3a1,1,0,0,0-.2.5L19.6,7l1.2,2.3L22,7,21,5.2C20.9,5,20.9,4.8,20.8,4.6Zm-.2-.3c-.4-.7-.8-1.3-1.2-1.9a7.53,7.53,0,0,0-1.2,1.9c.2.4.3.7.4.7l.9,1.6L20.4,5A2.44,2.44,0,0,1,20.6,4.3Zm-1.2,3L18.2,9.7,19.4,12l1.2-2.3Zm0,5.3L18.2,15l1.2,2.3L20.6,15Zm0,5.3-.9,1.7c-.09.24-.19.47-.3.7.4.7.8,1.3,1.2,1.9a7.53,7.53,0,0,0,1.2-1.9c-.2-.4-.3-.7-.4-.7Zm1.4,2a4.34,4.34,0,0,1,.2-.5l1-1.9-1.2-2.3-1.2,2.3,1,1.8A.87.87,0,0,0,20.8,19.9Zm.2.3c.4.7.8,1.3,1.2,1.9a7.53,7.53,0,0,0,1.2-1.9c-.2-.4-.3-.7-.4-.7L22.2,18l-.9,1.7A2.29,2.29,0,0,1,21,20.2Zm2.6-.2a4.34,4.34,0,0,1,.2-.5l1-1.9-1.2-2.3-1.2,2.3,1,1.8A4.22,4.22,0,0,0,23.6,20Zm.2.3A7.53,7.53,0,0,0,25,22.2a12.15,12.15,0,0,0,1.2-1.9c-.2-.4-.3-.7-.4-.7L24.9,18,24,19.7A1.42,1.42,0,0,1,23.8,20.3ZM26.4,10l-1.2,2.3,1.2,2.3,1.2-2.3Zm0-5.3c-.1.2-.2.3-.2.5l-1,1.9,1.2,2.3,1.2-2.3-1-1.8C26.5,5,26.5,4.8,26.4,4.7ZM25.2,2.3l1.2,1.8a9.41,9.41,0,0,1,1.2-1.8,4.34,4.34,0,0,0-1.2-1.1A3.25,3.25,0,0,0,25.2,2.3ZM23.9,1A5.5,5.5,0,0,1,25,2a5.5,5.5,0,0,1,1.1-1A1.8,1.8,0,0,0,23.9,1ZM22.4,2.2c.4.6.8,1.1,1.2,1.8a9.41,9.41,0,0,1,1.2-1.8,4.34,4.34,0,0,0-1.2-1.1A12.52,12.52,0,0,0,22.4,2.2Zm-.7-.8.5.5a5.5,5.5,0,0,1,1.1-1A2,2,0,0,0,22.2.6a2.35,2.35,0,0,0-1.1.3,2.62,2.62,0,0,0,.6.5m-.9-.3a4.34,4.34,0,0,0-1.2,1.1L20.8,4,22,2.2A4.34,4.34,0,0,0,20.8,1.1ZM18.3,1a5.5,5.5,0,0,1,1.1,1,5.5,5.5,0,0,1,1.1-1A2,2,0,0,0,19.4.7,2.35,2.35,0,0,0,18.3,1ZM18,4.1a9.41,9.41,0,0,1,1.2-1.8A4.34,4.34,0,0,0,18,1.2l-.4.3a2.83,2.83,0,0,0-.7.8A7.56,7.56,0,0,1,18,4.1Zm0,5.3,1.2-2.3-1-1.8L18,4.7a1,1,0,0,0-.2.5l-1,1.9Zm0,5.3,1.2-2.3L18,10l-1.2,2.3ZM18,20a4.34,4.34,0,0,1,.2-.5l1-1.9L18,15.3l-1.2,2.4,1,1.8A1.69,1.69,0,0,1,18,20Zm1.2,2.4c-.4-.5-.8-1.1-1.2-1.7l-1.2,1.8a3.84,3.84,0,0,0,1.1,1.1A3.74,3.74,0,0,0,19.2,22.4Zm1.3,1.3a5.5,5.5,0,0,1-1.1-1,4.34,4.34,0,0,1-1.2,1.1,2.63,2.63,0,0,0,1.2.3A2.16,2.16,0,0,0,20.5,23.7ZM22,22.4l-1.2-1.8q-.56.93-1.2,1.8a4.34,4.34,0,0,0,1.2,1.1A6,6,0,0,0,22,22.4Zm1.3,1.3a5.5,5.5,0,0,1-1.1-1,5.5,5.5,0,0,1-1.1,1A2.17,2.17,0,0,0,23.3,23.7Zm1.4-1.3c-.4-.6-.8-1.1-1.2-1.8q-.55.93-1.2,1.8a4.34,4.34,0,0,0,1.2,1.1A3.25,3.25,0,0,0,24.7,22.4Zm1.4,1.3a5.5,5.5,0,0,1-1.1-1,5.5,5.5,0,0,1-1.1,1A2.17,2.17,0,0,0,26.1,23.7Zm1.4-1.3-1.2-1.8q-.56.93-1.2,1.8a4.34,4.34,0,0,0,1.2,1.1A4.34,4.34,0,0,0,27.5,22.4Z"/><polygon class="cls-2" points="5.5 0.3 5.5 0.6 5.5 0.6 5.5 0.3"/><polygon class="cls-2" points="5.5 24 5.5 24.4 5.5 24.4 5.5 24"/><path class="cls-2" d="M16.6,22.2v.5a5.5,5.5,0,0,1-1.1,1,2,2,0,0,0,1.1.3v.3a3.28,3.28,0,0,1-1.4-.4,2.32,2.32,0,0,1-1.4.4,3.28,3.28,0,0,1-1.4-.4,2.32,2.32,0,0,1-1.4.4,3.28,3.28,0,0,1-1.4-.4,2.32,2.32,0,0,1-1.4.4H8.1A3.24,3.24,0,0,1,6.7,24a2.83,2.83,0,0,1-1.3.4v-.3a2,2,0,0,0,1-.3,5.5,5.5,0,0,1-1-1.1v-.5a9.41,9.41,0,0,0,1.2-1.8c-.1-.5-.2-.7-.2-.8L5.5,18v-.7L6.7,15,5.5,12.7V12L6.7,9.7,5.5,7.4V6.7l.9-1.6c.1-.2.2-.5.3-.7-.4-.6-.8-1.3-1.2-1.9V2a3,3,0,0,1,.8-.8L6.6,1A2,2,0,0,0,5.5.7V.4A3.28,3.28,0,0,1,6.9.8,2.32,2.32,0,0,1,8.3.4,2.32,2.32,0,0,1,9.7.8,2.32,2.32,0,0,1,11.1.4a3.28,3.28,0,0,1,1.4.4,2.4,2.4,0,0,1,2.8,0A2.32,2.32,0,0,1,16.7.4V.7a2,2,0,0,0-1.1.3,5.5,5.5,0,0,1,1.1,1v.5a7.53,7.53,0,0,0-1.2,1.9c.2.4.3.7.4.7l.9,1.7v.7L15.4,9.7,16.6,12v.7L15.4,15l1.2,2.3V18l-.9,1.7a2.7,2.7,0,0,1-.4.7A20.51,20.51,0,0,1,16.6,22.2Zm-1.3-6.9-1.2,2.3,1,1.8c.1.2.2.3.2.5l.2-.4,1-1.9ZM9.7,10,8.5,12.4l1.2,2.4,1.2-2.3Zm1.4,2,1.2-2.3L11.1,7.4,9.9,9.7ZM9.9,15l1.2,2.3L12.3,15l-1.2-2.3Zm2.6-.4,1.2-2.3L12.5,10l-1.2,2.3Zm.1.4,1.2,2.3L15,15l-1.1-2.3Zm1.3-3,1.2-2.3L13.9,7.4,12.6,9.7Zm.8-7a2.44,2.44,0,0,1,.4-.7L13.9,2.5a7.53,7.53,0,0,0-1.2,1.9c.2.4.3.7.4.7L14,6.7Zm-2.2-.4a4.34,4.34,0,0,1-.2.5L11.3,7l1.2,2.3L13.7,7l-1-1.8A1.42,1.42,0,0,1,12.5,4.6Zm-.2-.3a7.53,7.53,0,0,0-1.2-1.9,8.3,8.3,0,0,0-1.2,2l.4.7.9,1.6.9-1.6C12,4.8,12.2,4.6,12.3,4.3Zm-2.6.3-.3.5L8.4,7,9.6,9.4l1.2-2.3L9.9,5.3C10,5.2,9.8,5,9.7,4.6Zm-.2-.3L8.3,2.5A7.53,7.53,0,0,0,7.1,4.4l.3.7.9,1.6.9-1.6C9.3,4.8,9.4,4.6,9.5,4.3Zm-1.2,3L7.1,9.7,8.3,12,9.5,9.7Zm0,5.3L7.1,15l1.2,2.3L9.5,15Zm0,5.3-.9,1.6c-.09.24-.19.47-.3.7a7.53,7.53,0,0,0,1.2,1.9,7.53,7.53,0,0,0,1.2-1.9c-.2-.4-.3-.7-.4-.7Zm1.4,2a4.34,4.34,0,0,1,.2-.5l1-1.9L9.7,15.3,8.5,17.6l1,1.8A.59.59,0,0,0,9.7,19.9Zm.2.3a12.15,12.15,0,0,0,1.2,1.9,7.53,7.53,0,0,0,1.2-1.9c-.11-.23-.21-.46-.3-.7L11.1,18l-.9,1.7A2.29,2.29,0,0,1,9.9,20.2Zm2.6-.3a1,1,0,0,0,.2-.5l1-1.9-1.2-2.3-1.2,2.3,1,1.8A.87.87,0,0,0,12.5,19.9Zm.1.3a7.53,7.53,0,0,0,1.2,1.9A7.53,7.53,0,0,0,15,20.2c-.2-.4-.3-.7-.4-.7l-.9-1.6-.9,1.6C12.9,19.9,12.8,20.1,12.6,20.2ZM15.3,10l-1.2,2.3,1.2,2.3,1.2-2.3Zm0-5.3a1,1,0,0,0-.2.5l-1,1.9,1.2,2.3,1.2-2.3-1-1.8A3.84,3.84,0,0,1,15.3,4.7ZM14.1,2.3l1.2,1.8a9.41,9.41,0,0,1,1.2-1.8,4.34,4.34,0,0,0-1.2-1.1A3.25,3.25,0,0,0,14.1,2.3ZM12.8,1a5.5,5.5,0,0,1,1.1,1A5.5,5.5,0,0,1,15,1,2.17,2.17,0,0,0,12.8,1ZM11.3,2.2c.4.6.8,1.1,1.2,1.8a9.41,9.41,0,0,1,1.2-1.8,4.34,4.34,0,0,0-1.2-1.1A4.34,4.34,0,0,0,11.3,2.2Zm-.7-.8.5.5a5.5,5.5,0,0,1,1.1-1A2.17,2.17,0,0,0,10,.9a2.62,2.62,0,0,0,.6.5m-.9-.2A4.34,4.34,0,0,0,8.5,2.3L9.7,4.1l1.2-1.8A2.56,2.56,0,0,0,9.7,1.2ZM7.2,1A5.5,5.5,0,0,1,8.3,2,5.5,5.5,0,0,1,9.4,1,2.17,2.17,0,0,0,7.2,1ZM7,4A18.42,18.42,0,0,1,8.1,2.2,5.73,5.73,0,0,0,7,1.1a1.31,1.31,0,0,0-.4.3,2.83,2.83,0,0,0-.7.8A18.42,18.42,0,0,0,7,4ZM7,9.3,8.2,7l-1-1.8L7,4.7l-.3.5-1,1.9Zm0,5.4,1.2-2.3L7,10,5.7,12.4ZM7,20a1,1,0,0,0,.2-.5l1-1.9L7,15.3,5.7,17.6l1,1.8A3.36,3.36,0,0,0,7,20Zm1.1,2.4L6.9,20.6,5.7,22.4a4.34,4.34,0,0,0,1.1,1.2A5,5,0,0,0,8.1,22.4Zm1.4,1.3a5.5,5.5,0,0,1-1.1-1,4.34,4.34,0,0,1-1.2,1.1,2.63,2.63,0,0,0,1.2.3A7.24,7.24,0,0,0,9.5,23.7ZM11,22.4a9.41,9.41,0,0,1-1.2-1.8q-.56.93-1.2,1.8a4.34,4.34,0,0,0,1.2,1.1C10.2,23.2,10.5,22.8,11,22.4Zm1.2,1.3a5.5,5.5,0,0,1-1.1-1,5.5,5.5,0,0,1-1.1,1A2.17,2.17,0,0,0,12.2,23.7Zm1.5-1.3-1.2-1.8q-.55.93-1.2,1.8a4.34,4.34,0,0,0,1.2,1.1A12.52,12.52,0,0,0,13.7,22.4ZM15,23.7a5.5,5.5,0,0,1-1.1-1,5.5,5.5,0,0,1-1.1,1A2.17,2.17,0,0,0,15,23.7Zm1.4-1.3-1.2-1.8q-.55.93-1.2,1.8a4.34,4.34,0,0,0,1.2,1.1A4.34,4.34,0,0,0,16.4,22.4Z"/><path class="cls-2" d="M5.5,22.2v.5a5.5,5.5,0,0,1-1.1,1,2,2,0,0,0,1.1.3v.3a3.28,3.28,0,0,1-1.4-.4,3.28,3.28,0,0,1-1.4.4,3.28,3.28,0,0,1-1.4-.4,2.92,2.92,0,0,1-1.3.5A3.28,3.28,0,0,1-1.4,24a5.74,5.74,0,0,1-1.4.4A2.32,2.32,0,0,1-4.2,24a3.82,3.82,0,0,1-1.4.4v-.3a2,2,0,0,0,1-.3,5.5,5.5,0,0,1-1-1.1v-.5a9.41,9.41,0,0,0,1.2-1.8,3.86,3.86,0,0,1-.3-.8L-5.6,18v-.7L-4.4,15l-1.2-2.3V12l1.2-2.3L-5.6,7.4V6.7l.9-1.6c.1-.2.2-.5.3-.7A7.53,7.53,0,0,0-5.6,2.5V2a3,3,0,0,1,.8-.8l.3-.2A2,2,0,0,0-5.6.7V.4A3.28,3.28,0,0,1-4.2.8,2.32,2.32,0,0,1-2.8.4,2.32,2.32,0,0,1-1.4.8,3.28,3.28,0,0,1,0,.4,3.28,3.28,0,0,1,1.4.8,2.32,2.32,0,0,1,2.8.4,3.28,3.28,0,0,1,4.2.8,2.32,2.32,0,0,1,5.6.4V.7A2,2,0,0,0,4.5,1,5.5,5.5,0,0,1,5.6,2v.5A7.53,7.53,0,0,0,4.4,4.4l.4.7.9,1.7v.7L4.3,9.7,5.5,12v.7L4.3,15l1.2,2.3V18l-.9,1.6c-.09.24-.19.47-.3.7C4.7,21,5.1,21.6,5.5,22.2ZM4.1,15.3,3,17.6l1,1.8a1,1,0,0,0,.2.6,5.09,5.09,0,0,0,.3-.5l1-1.9ZM-1.4,10l-1.2,2.3,1.2,2.3,1.2-2.3ZM0,12,1.2,9.7,0,7.4-1.3,9.7Zm-1.3,3,1.2,2.3L1.1,15,0,12.7Zm2.7-.4,1.2-2.3L1.4,10,.2,12.4Zm.1.4,1.2,2.3L3.9,15,2.7,12.7Zm1.2-3L4,9.7,2.8,7.4,1.5,9.7Zm.9-7,.3-.6c-.4-.6-.8-1.3-1.2-1.9A7.53,7.53,0,0,0,1.5,4.4c.11.23.21.46.3.7l.9,1.6ZM1.4,4.7c-.2.3-.2.5-.3.5L.1,7.1,1.4,9.4,2.6,7.1l-1-1.8C1.5,5,1.4,4.9,1.4,4.7Zm-.2-.3C.8,3.7.4,3.1,0,2.5A7.53,7.53,0,0,0-1.2,4.4c.11.23.21.46.3.7L0,6.7.9,5.1A.89.89,0,0,1,1.2,4.4Zm-2.6.3a1,1,0,0,0-.2.5l-1,1.9,1.2,2.3L-.2,7.1l-1-1.8A4.22,4.22,0,0,0-1.4,4.7Zm-.2-.3A12.15,12.15,0,0,0-2.8,2.5,7.53,7.53,0,0,0-4,4.4c.11.23.21.46.3.7l.9,1.6.9-1.6A1.82,1.82,0,0,1-1.6,4.4Zm-1.2,3L-4,9.7-2.8,12l1.2-2.3Zm0,5.3L-4,15l1.2,2.3L-1.6,15Zm0,5.3-.9,1.6c-.09.24-.19.47-.3.7a12.15,12.15,0,0,0,1.2,1.9c.4-.6.8-1.2,1.2-1.9a3.25,3.25,0,0,0-.4-.7Zm1.4,2,.2-.5,1-1.9-1.2-2.3-1.2,2.3,1,1.8A1.42,1.42,0,0,0-1.4,20Zm.2.3A12.15,12.15,0,0,0,0,22.2c.4-.6.8-1.2,1.2-1.9a7,7,0,0,1-.4-.7L0,18l-.9,1.6A4.76,4.76,0,0,1-1.2,20.3ZM1.4,20a4.34,4.34,0,0,1,.2-.5l1-1.9L1.4,15.3.1,17.6l1,1.8A3.36,3.36,0,0,0,1.4,20Zm.1.3a12.15,12.15,0,0,0,1.2,1.9,7.53,7.53,0,0,0,1.2-1.9c-.09-.24-.19-.47-.3-.7L2.7,18l-.8,1.6A1.64,1.64,0,0,1,1.5,20.3ZM4.1,10,2.9,12.4l1.3,2.3,1.2-2.3Zm0-5.3-.2.5L3,7.1,4.2,9.4,5.4,7.1l-1-1.8A1.69,1.69,0,0,0,4.1,4.7ZM3,2.2,4.2,4A9.41,9.41,0,0,1,5.4,2.2,4.34,4.34,0,0,0,4.2,1.1,6.59,6.59,0,0,0,3,2.2ZM1.6,1A5.5,5.5,0,0,1,2.7,2,5.5,5.5,0,0,1,3.8,1,2,2,0,0,0,2.7.7,2.35,2.35,0,0,0,1.6,1ZM.2,2.2C.6,2.8,1,3.3,1.4,4A6.54,6.54,0,0,1,2.6,2.3,4.34,4.34,0,0,0,1.4,1.2,2.91,2.91,0,0,0,.2,2.2Zm-.7-.8c.2.2.3.4.5.6A5.5,5.5,0,0,1,1.1,1,4.83,4.83,0,0,0,0,.6,2.35,2.35,0,0,0-1.1.9a2.62,2.62,0,0,0,.6.5m-.9-.2A4.34,4.34,0,0,0-2.6,2.3l1.2,1.8L-.2,2.3A3.94,3.94,0,0,0-1.4,1.2ZM-3.9,1A5.5,5.5,0,0,1-2.8,2,5.5,5.5,0,0,1-1.7,1,2,2,0,0,0-2.8.7,2,2,0,0,0-3.9,1Zm-.3,3.1A9.41,9.41,0,0,1-3,2.3,4.34,4.34,0,0,0-4.2,1.2l-.4.3a2.83,2.83,0,0,0-.7.8C-5,2.8-4.6,3.4-4.2,4.1Zm0,5.3L-3,7.1-4,5.3c-.1-.2-.2-.3-.2-.5a1,1,0,0,0-.2.5l-1,1.9Zm0,5.3L-3,12.4-4.2,10l-1.2,2.3Zm0,5.3.2-.5,1-1.9-1.2-2.3-1.2,2.4,1,1.8A.72.72,0,0,0-4.2,20ZM-3,22.4a5.73,5.73,0,0,1-1.2-1.8,13.41,13.41,0,0,1-1.2,1.8,4.34,4.34,0,0,0,1.1,1.2A5,5,0,0,0-3,22.4Zm1.3,1.3a5.5,5.5,0,0,1-1.1-1A12.52,12.52,0,0,1-4,23.8a2.63,2.63,0,0,0,1.2.3A2.44,2.44,0,0,0-1.7,23.7Zm1.5-1.3a5.73,5.73,0,0,1-1.2-1.8,13.41,13.41,0,0,1-1.2,1.8,4.34,4.34,0,0,0,1.2,1.1A12.52,12.52,0,0,0-.2,22.4Zm1.3,1.3a5.5,5.5,0,0,1-1.1-1,10.44,10.44,0,0,1-1.1,1A2,2,0,0,0,0,24,2.35,2.35,0,0,0,1.1,23.7Zm1.4-1.3a7.56,7.56,0,0,1-1.1-1.8A13.41,13.41,0,0,1,.2,22.4a4.34,4.34,0,0,0,1.2,1.1A5.73,5.73,0,0,0,2.5,22.4Zm1.3,1.3a10.44,10.44,0,0,1-1.1-1,5.5,5.5,0,0,1-1.1,1,2,2,0,0,0,1.1.3A2,2,0,0,0,3.8,23.7Zm1.5-1.3L4.1,20.6A7.56,7.56,0,0,1,3,22.4a4.34,4.34,0,0,0,1.2,1.1A5.73,5.73,0,0,0,5.3,22.4Z"/></pattern></defs><title>cw-v4 practice</title><g class="cls-5"><polygon class="cls-6" points="925.52 345 925.52 1006 277.52 1006 661.52 345 925.52 345"/><polygon class="cls-7" points="165.52 -0.5 925.52 -0.5 925.52 736.5 165.52 299.5 165.52 -0.5"/><polygon class="cls-8" points="925.52 641 925.52 1006 -0.48 1006 204.52 641 925.52 641"/></g></svg>